<svg width="220" height="58" viewBox="0 0 220 58" fill="none" xmlns="http://www.w3.org/2000/svg">
<g clip-path="url(#clip0_108_678)">
<path d="M42.2993 56.4641C42.699 52.0551 43.7697 47.4827 45.4813 42.8694V56.8417C45.1515 56.8248 44.8218 56.8079 44.492 56.7895C43.7554 56.7529 43.0173 56.7177 42.2793 56.6867C42.2864 56.612 42.2921 56.5387 42.2993 56.4641Z" fill="#EAC863"/>
<path d="M28.5318 55.7021C28.586 55.9176 28.6388 56.1417 28.6917 56.3826H28.4033C26.7545 56.3826 25.1085 56.3953 23.4668 56.4221V44.5549C23.571 44.7071 23.6766 44.8621 23.7823 45.0227C23.9579 45.2806 24.1449 45.5638 24.3662 45.9119C24.586 46.2613 24.7616 46.5516 24.9229 46.8278C25.1142 47.1547 25.2869 47.459 25.4525 47.762C25.6153 48.0593 25.7766 48.3665 25.9465 48.706C26.1063 49.0217 26.2634 49.3444 26.4118 49.6684C26.4632 49.7783 26.5146 49.8882 26.5646 50.001C26.6617 50.2152 26.7559 50.4307 26.8458 50.6393C27.0086 51.0254 27.137 51.341 27.2484 51.6284C27.3897 51.9976 27.5111 52.3259 27.6181 52.6317C27.7595 53.0361 27.8637 53.3489 27.9565 53.6448C28.0635 53.9844 28.1663 54.3282 28.2605 54.665C28.3376 54.9468 28.439 55.3188 28.5318 55.7021Z" fill="#EAC863"/>
<path d="M32.6779 31.6096C32.8991 31.5716 33.1133 31.5406 33.3246 31.5166V34.8857C32.8692 34.68 32.4009 34.5066 31.9184 34.3657C30.9648 34.0853 29.9612 33.9247 28.8549 33.8754C28.6093 33.8641 28.3666 33.8599 28.1311 33.8599C27.8042 33.8599 27.4801 33.8697 27.1689 33.8923C26.7978 33.9177 26.4366 33.9599 26.084 34.0177C26.1011 33.9937 26.1182 33.9698 26.1339 33.9458C26.1482 33.9247 26.1596 33.9036 26.1711 33.881C26.6122 33.757 27.0219 33.5823 27.4216 33.4132L27.5572 33.3554C27.7571 33.2709 27.9041 33.1032 27.9641 32.9031C28.2624 32.8538 28.5622 32.7932 28.8677 32.7199C29.039 32.6791 29.1846 32.579 29.2817 32.4438C29.6743 32.4142 29.9784 32.3212 30.2239 32.1605C30.2467 32.145 30.2682 32.1295 30.2896 32.1126C30.3124 32.114 30.3367 32.114 30.3609 32.114C30.8021 32.114 31.346 31.9717 31.9113 31.8111L32.0083 31.7843C32.2724 31.7096 32.5223 31.6392 32.6779 31.6096Z" fill="#EAC863"/>
<path d="M32.2848 38.1196C32.6103 38.2295 32.9543 38.3182 33.3255 38.345V42.9794C33.2713 42.9033 33.217 42.8287 33.1642 42.761C33.1071 42.6835 33.0471 42.606 32.9857 42.5299C32.9258 42.4538 32.8644 42.3778 32.8002 42.3045C32.7388 42.2312 32.676 42.1565 32.6117 42.0847C32.5503 42.0142 32.4861 41.9438 32.4204 41.8719C32.3648 41.8127 32.3077 41.7521 32.2505 41.6915C32.2377 41.6775 32.2263 41.6648 32.2177 41.6563L32.1535 41.5915C32.1092 41.5478 32.065 41.5027 32.0221 41.4605C31.9679 41.4069 31.9136 41.3548 31.8594 41.304L31.8094 41.2576C31.7652 41.2153 31.7195 41.1744 31.6738 41.1321L31.5953 41.0617C30.2748 39.8879 28.9258 39.0594 27.4711 38.5324C27.4568 38.5268 27.4425 38.5211 27.4297 38.5169C27.4754 38.5211 27.5196 38.5254 27.5653 38.5282C27.5839 38.5282 27.601 38.5282 27.6196 38.5282C27.8808 38.5282 28.1206 38.3887 28.2477 38.1632C28.5275 38.2422 28.8458 38.2957 29.2455 38.2957C29.4582 38.2957 29.6795 38.2802 29.9222 38.2492C30.0792 38.2295 30.2206 38.1604 30.3291 38.0562C30.7316 38.1717 31.1785 38.2534 31.7138 38.2534C31.7666 38.2534 31.8209 38.252 31.8837 38.2506C32.0321 38.2464 32.1706 38.1985 32.2848 38.1182V38.1196Z" fill="#EAC863"/>
<path d="M32.8281 47.7703C32.9808 48.0394 33.1436 48.3072 33.3249 48.5692V56.3078C33.3234 56.2994 33.3206 56.2909 33.3177 56.2825C33.0365 55.4539 32.7196 54.6226 32.377 53.8138C31.2064 51.0379 29.6675 48.3508 27.8016 45.83C27.0251 44.7774 26.1785 43.7362 25.2734 42.7202C25.4547 42.8062 25.6389 42.8893 25.8288 42.9654C25.9158 43.002 26.0086 43.0189 26.1 43.0189C26.1485 43.0189 26.1956 43.0147 26.2413 43.0048C26.4112 43.1683 26.5996 43.3261 26.8195 43.4712C27.1193 43.6699 27.4519 43.8306 27.833 43.963C27.9116 43.9898 27.9915 44.0039 28.0715 44.0039C28.0971 44.0039 28.1228 44.0025 28.1485 43.9996C28.4483 44.3167 28.7938 44.6365 29.2378 44.9691C29.3662 45.0649 29.519 45.1128 29.6732 45.1128C29.7203 45.1128 29.7688 45.1072 29.8159 45.0987C30.1214 45.4876 30.4697 45.8512 30.898 46.164C31.0251 46.257 31.175 46.3049 31.3263 46.3049C31.3363 46.3049 31.3463 46.3049 31.3563 46.3035C31.5932 46.729 31.8559 47.1405 32.1942 47.5279C32.3341 47.69 32.5354 47.7745 32.7396 47.7745C32.7695 47.7745 32.7981 47.7731 32.8281 47.7703Z" fill="#EAC863"/>
<path d="M10.5908 41.0264C10.7307 40.963 10.8678 40.8939 11.002 40.8221C11.1262 40.9137 11.2775 40.9644 11.4331 40.9644C11.4916 40.9644 11.5501 40.9573 11.6087 40.9418C12.4452 40.7347 12.8706 40.6023 13.2689 40.3853C13.2803 40.3923 13.2932 40.3993 13.3046 40.4064C13.2004 40.4825 13.0962 40.5614 12.9905 40.6431C12.685 40.8812 12.3724 41.1405 12.0384 41.4364C12.0284 41.4449 12.0184 41.4533 12.0098 41.4632C11.4788 41.986 11.0048 42.5538 10.5908 43.1597V41.0264Z" fill="#EAC863"/>
<path d="M13.3531 36.1594C12.401 36.2665 11.4716 36.4765 10.5908 36.7794V34.6855C10.805 34.7349 11.0234 34.7687 11.2489 34.7884C11.3246 34.9223 11.4445 35.0322 11.5944 35.097C12.0712 35.2985 12.5309 35.3957 12.9706 35.4549C13.0362 35.5873 13.1447 35.7015 13.2846 35.7733C13.6172 35.9424 13.9384 36.0298 14.2382 36.0876C13.9413 36.1017 13.6458 36.1256 13.3531 36.1594Z" fill="#EAC863"/>
<path d="M15.4959 51.0406C15.9613 52.5398 16.7379 53.9503 17.6344 54.9268V56.5655C15.2803 56.6444 12.932 56.7515 10.5908 56.884V50.4558C10.7179 50.1134 10.8335 49.7781 10.9434 49.4343C11.129 49.4131 11.306 49.3215 11.4274 49.1708C11.8399 48.6621 12.0855 48.1647 12.2454 47.68C12.4367 47.656 12.6151 47.5574 12.735 47.3982C13.0919 46.9247 13.416 46.4823 13.6858 45.9919C13.7058 45.9933 13.7257 45.9947 13.7471 45.9947C13.9427 45.9947 14.1369 45.9144 14.2768 45.765L14.331 45.7073C14.6208 45.3959 14.9177 45.0774 15.1876 44.7266C14.7165 46.7345 14.8192 48.8495 15.4959 51.0406Z" fill="#EAC863"/>
<path d="M38.0558 16.1369C36.8039 16.833 35.6233 17.7193 34.584 18.7564L33.3249 17.7771V20.1753C32.8709 20.7558 32.4569 21.3547 32.0858 21.9C32.0658 21.9282 32.0458 21.9578 32.0258 21.9888L32.0115 22.0099C31.8388 22.2706 31.8588 22.613 32.0601 22.8525C32.2 23.0188 32.4041 23.109 32.614 23.109C32.7068 23.109 32.801 23.0921 32.8895 23.0554C33.0322 22.9963 33.1779 22.9371 33.3249 22.8765V29.764C32.841 29.5991 32.3513 29.4653 31.8631 29.3624C31.0508 29.1905 30.2242 29.1046 29.4077 29.1046C28.5911 29.1046 27.8445 29.1835 27.0765 29.3385C26.3613 29.4836 25.6446 29.6992 24.9437 29.9782C24.4269 30.1839 23.9344 30.4291 23.4662 30.7123V27.0811C23.8345 26.5612 24.2728 25.9962 24.5226 25.7101C24.7339 25.4678 24.7553 25.1169 24.5754 24.8506C24.4384 24.6505 24.2128 24.5364 23.9773 24.5364C23.9016 24.5364 23.8245 24.549 23.7488 24.573C23.6546 24.604 23.5604 24.6378 23.4662 24.673V17.7771L17.6346 22.3086V31.786C17.5433 32.3764 17.5233 32.9612 17.5532 33.5572C16.4783 32.6075 15.0664 31.8353 13.6303 31.4408C13.6232 31.438 13.616 31.4366 13.6089 31.4352C12.6139 31.1632 11.5989 31.0223 10.591 31.0152V27.773L10.4754 27.8632L8.49539 29.4019L6.18132 31.2012L4.22557 32.7216V57.307L0 57.6593V30.6926L2.96932 28.3845L10.5297 22.5101L10.591 22.4622L12.2113 21.211L23.4662 12.4649L24.9723 11.2982L28.3955 8.64209L31.8174 11.2982L32.0958 11.5138L33.2963 12.4423L33.3249 12.4649L38.0558 16.1369Z" fill="#EAC863"/>
<path d="M43.7608 20.5638C42.5574 21.1923 41.4624 22.0109 40.4803 23.0184C39.7008 23.8188 39.0156 24.7473 38.4389 25.783V21.7517L37.8936 21.3275C38.4646 21.1289 38.9571 20.9119 39.421 20.6667C39.4239 20.6709 39.4268 20.6737 39.4282 20.678C39.5624 20.8823 39.7922 21.002 40.0335 21.002C40.0834 21.002 40.1348 20.9978 40.1862 20.9865C41.1983 20.7695 42.1234 20.3905 43.0085 19.9805L43.7608 20.5638Z" fill="#EAC863"/>
<path d="M44.8611 28.2997C45.0595 28.1814 45.2736 28.0531 45.4806 27.9094V31.4955C45.3536 31.6787 45.2308 31.8576 45.1123 32.0338C44.8368 32.4396 44.5498 32.8722 44.2329 33.3583C44.0331 33.6697 43.769 34.0811 43.5163 34.4926C43.4849 34.5405 43.4549 34.5884 43.4249 34.6377L43.3878 34.6997C43.1066 35.1506 42.8296 35.6086 42.5641 36.0595C42.2815 36.5428 42.0231 36.9937 41.7747 37.4375C41.5163 37.8997 41.2608 38.3675 41.0124 38.8367L40.9453 38.9621C40.6969 39.4285 40.4799 39.847 40.2815 40.2416C40.073 40.6573 39.8275 41.1518 39.5848 41.6619C39.365 42.1227 39.1451 42.5919 38.9139 43.1006C38.744 43.4782 38.5869 43.8333 38.4385 44.1771V34.7096C38.4613 34.6645 38.4827 34.618 38.5041 34.5729C38.6726 34.2178 38.8368 33.8472 38.9938 33.4654C39.0338 33.3667 39.0723 33.2681 39.1123 33.1695H39.1194C39.335 33.1695 39.5448 33.0737 39.6847 32.8989L39.7404 32.8299C39.9645 32.5481 40.1958 32.2578 40.4171 31.9591C40.7154 31.5547 40.941 31.1996 41.1294 30.8445C41.2136 30.6853 41.2936 30.5232 41.3707 30.3626C41.472 30.4119 41.582 30.4359 41.6905 30.4359C41.8546 30.4359 42.0159 30.3809 42.1473 30.2752L42.1972 30.2344C42.5513 29.9483 42.9182 29.651 43.2436 29.2678C43.4435 29.0339 43.6191 28.7873 43.7818 28.5336C43.8889 28.5928 44.0088 28.6224 44.1287 28.6224C44.2643 28.6224 44.4 28.5844 44.5184 28.5083C44.6284 28.4392 44.744 28.3702 44.8611 28.2997Z" fill="#EAC863"/>
<path d="M50.0879 25.4803C49.1015 26.6076 48.2164 27.7433 47.4641 28.7536L46.9787 28.3773L45.9209 27.5573C46.185 27.3121 46.402 27.0387 46.6061 26.7696C46.7375 26.8767 46.9002 26.9316 47.0658 26.9316C47.1871 26.9316 47.3099 26.9006 47.4213 26.8386C47.5911 26.7428 47.771 26.6526 47.9609 26.5568C48.4034 26.3328 48.8617 26.1017 49.2699 25.772C49.4669 25.6142 49.654 25.4479 49.8295 25.2788L49.8681 25.3084L50.0794 25.4733L50.0879 25.4803Z" fill="#EAC863"/>
<path d="M56.8051 30.6924V57.6591C55.399 57.5323 53.9914 57.4153 52.5796 57.3068V32.7214L50.9521 31.4589C51.2063 31.0221 51.4675 30.5839 51.733 30.1471C52.1856 29.4045 52.6581 28.6366 53.1563 27.8616L55.7416 29.8667L56.8051 30.6924Z" fill="#EAC863"/>
<path d="M34.777 48.9215C34.7856 49.0117 34.7913 49.1019 34.797 49.192C33.7292 48.217 33.2667 46.984 32.5415 45.7835C32.5772 46.2203 32.6071 46.6459 32.7385 47.0658C32.3116 46.5768 32.0076 46.0174 31.7121 45.4496C31.4922 45.0297 31.2781 44.6069 31.0254 44.2039C31.141 44.6661 31.2367 45.1269 31.3266 45.5947C30.2931 44.8352 29.742 43.6826 29.0939 42.6173C29.2538 43.2204 29.4737 43.8136 29.6721 44.4026C28.53 43.5501 28.126 42.8174 27.2324 41.7818C27.4522 42.3412 27.7278 42.7977 28.0704 43.2937C27.7263 43.1753 27.4522 43.0358 27.2195 42.8822C26.5115 42.413 26.1917 41.7958 25.4736 41.0984L25.4051 41.0335C25.5964 41.4746 25.8605 41.8931 26.1003 42.3087C25.4023 42.0269 24.7499 41.6366 24.0803 41.29C23.2324 40.8532 22.3716 40.4417 21.5136 40.0246C22.0589 40.5418 22.6614 40.9969 23.1881 41.5352C24.6599 43.0358 26.009 44.6055 27.221 46.2485C29.0325 48.6975 30.5415 51.307 31.7135 54.0871C32.049 54.8804 32.3573 55.6864 32.6357 56.5079C32.3288 56.4966 32.0218 56.4854 31.7135 56.4769C30.954 56.4515 30.1946 56.4318 29.4351 56.4135C29.3709 56.119 29.3038 55.8245 29.231 55.5314C29.1453 55.1792 29.0511 54.8269 28.9555 54.476C28.857 54.128 28.7542 53.7785 28.6442 53.4319C28.5357 53.0853 28.4187 52.7415 28.2988 52.3977C28.1789 52.0539 28.0518 51.7129 27.9219 51.3733C27.7906 51.0337 27.6521 50.6983 27.5122 50.3644C27.4165 50.1446 27.3209 49.9248 27.2224 49.7063C27.171 49.5922 27.1196 49.4795 27.0668 49.3668C26.914 49.0356 26.7556 48.7087 26.5914 48.3832C26.4287 48.0577 26.2602 47.7365 26.0846 47.418C25.9105 47.0968 25.7306 46.7811 25.5464 46.4669C25.3637 46.1527 25.1724 45.8413 24.9783 45.5327C24.7827 45.2255 24.5843 44.9212 24.3787 44.6196C23.3637 43.0922 22.1845 41.5309 20.7941 40.3191C20.4058 41.4901 19.9304 43.1641 19.3765 44.2223C19.388 43.6685 19.3623 43.1359 19.268 42.5863C19.0768 43.7023 18.9126 44.8084 18.8084 45.9357C18.7256 45.768 18.6456 45.5961 18.56 45.427C18.4415 45.1903 18.3173 44.9578 18.1645 44.745C18.4386 46.1245 18.4943 46.7487 18.2202 48.1254C17.9162 47.6998 17.6292 47.2391 17.2752 46.8558C17.5421 47.5871 17.9932 48.4072 18.0889 49.1737C18.1488 49.6542 18.116 50.1713 18.1146 50.6575C17.9832 50.4461 17.8391 50.2404 17.6835 50.0445C17.5279 49.8473 17.3608 49.6627 17.1838 49.4851C17.4179 50.0403 17.672 50.587 17.9447 51.1253C17.8462 52.3328 17.8862 53.3276 18.2174 54.4986C17.2966 53.5179 16.58 52.0989 16.186 50.8266C15.3508 48.1226 15.4065 45.3763 16.6242 42.785C16.8797 42.2453 17.2352 41.7902 17.5136 41.2717C17.2138 41.5154 16.954 41.91 16.7027 42.2073C16.3187 42.6596 15.9261 43.102 15.5236 43.5332L15.8219 42.3834C15.4579 42.816 15.2323 43.3472 14.9397 43.8263C14.6128 44.3603 14.1731 44.8225 13.7477 45.2791C13.8448 44.6464 13.9547 44.0165 14.0018 43.3782C13.7862 43.8446 13.6249 44.3336 13.4365 44.8098C13.3708 44.9761 13.3037 45.1396 13.2295 45.3002C12.9497 45.9075 12.5614 46.4359 12.1588 46.9685C12.0803 46.2823 12.1231 45.5637 12.1031 44.8732C11.7063 46.3373 11.8804 47.4673 10.8669 48.7214C10.8512 48.2663 10.7984 47.8295 10.727 47.3814C10.4058 48.9779 10.0032 50.0051 9.41219 51.5156C9.30513 50.9618 9.2623 50.4179 9.26658 49.8543C9.28086 46.8995 10.3872 44.0574 12.5171 41.9593C12.8398 41.6747 13.1424 41.4224 13.435 41.1956C14.8084 40.1275 15.9633 39.6245 17.8905 39.1214C17.4822 39.1369 15.8077 39.4075 15.5935 39.3398C15.6649 39.2525 15.7291 39.1651 15.7848 39.0651C15.6106 39.0186 14.7356 39.4695 14.5086 39.5484C14.2316 39.6456 13.9404 39.709 13.6549 39.7795C13.8262 39.4681 14.0218 39.1651 14.2016 38.8593C13.8676 39.0961 13.6306 39.275 13.435 39.4187C12.864 39.8358 12.6428 39.9457 11.4322 40.2473L12.2273 39.2342C11.2937 39.8401 10.4358 40.4051 9.35795 40.7376C9.54067 40.3403 9.75623 40.0106 10.0246 39.6667C9.54496 39.9711 9.13953 40.353 8.68414 40.6855C8.39434 40.8983 7.78335 41.297 7.41932 41.2407L7.64773 40.5883C7.5164 40.6883 7.38221 40.787 7.24802 40.8828C6.53709 41.3943 5.8019 41.8522 5.05957 42.3242C5.64772 41.2463 6.36008 40.3036 7.24802 39.5075C7.6306 39.1623 8.04602 38.8467 8.49856 38.5578C9.97893 37.6151 11.6849 37.0543 13.4365 36.8571C14.8184 36.7007 16.2302 36.7711 17.5792 37.0572C17.2595 36.8585 16.8926 36.7218 16.5557 36.5485L16.54 36.4963C16.6342 36.4372 16.7184 36.3752 16.8055 36.3075C16.7398 36.2484 15.4736 36.0187 15.1396 35.8355C15.2195 35.7284 15.4508 35.7087 15.5835 35.672L15.5764 35.6354C14.9169 35.3987 14.273 35.4691 13.6178 35.1338L14.8184 34.9323C14.3415 34.8463 13.8862 34.8252 13.4379 34.7843C12.9197 34.735 12.4101 34.6603 11.8819 34.4363C12.2702 34.3222 12.6085 34.1925 12.9654 34.0037C12.0646 34.0911 11.3237 34.1784 10.44 33.9023C10.7441 33.8374 11.0539 33.774 11.3337 33.643L11.2794 33.6641L11.2495 33.6078C10.7741 33.6218 10.1317 33.6979 9.682 33.5655C9.56209 33.5303 9.60491 33.5584 9.5421 33.4485C9.62775 33.3584 9.69199 33.2893 9.74339 33.1766C9.67058 33.1385 8.41433 33.0695 8.12025 33.0033L8.1488 32.9934C7.83617 32.9032 7.54352 32.8426 7.24802 32.8018C6.92253 32.7553 6.59562 32.7341 6.23873 32.7229C6.56564 32.551 6.90397 32.4016 7.24802 32.2762C9.21091 31.5576 11.4222 31.566 13.4365 32.1184C15.0682 32.5665 16.8569 33.6247 17.9062 34.9534C18.1588 35.2747 18.3573 35.6481 18.5586 36.0074C18.5942 36.0736 18.6314 36.1399 18.6685 36.2047C18.6299 36.0173 18.5914 35.8341 18.5586 35.6551C18.2302 33.96 18.0917 32.5045 18.5586 30.9319C18.6899 30.4867 18.8726 30.0301 19.111 29.5567C20.106 27.5995 21.8605 25.941 23.9761 25.2407C23.6535 25.6099 22.0918 27.5896 22.1175 28.0279C22.1974 28.0124 22.2759 27.9983 22.3559 27.9828C22.2131 28.3956 21.5093 29.0593 21.2324 29.4975L22.0261 29.0353C21.515 30.0301 20.8384 30.4909 20.4001 31.3068C20.8155 31.1038 21.211 30.8263 21.605 30.5839C21.2138 31.4928 20.5671 32.2621 20.0903 33.1315C20.4001 32.8187 20.7184 32.5171 21.0454 32.2255C20.787 33.3922 20.3244 34.5265 19.9833 35.6749C21.0739 33.4063 22.8355 31.5759 25.2124 30.629C25.8776 30.3641 26.5472 30.164 27.221 30.0273C28.7156 29.7244 30.2231 29.7356 31.7135 30.0499C32.4615 30.2077 33.2039 30.4402 33.9376 30.7488C33.4737 30.7713 33.014 30.8249 32.5558 30.9038C32.3345 30.9446 32.0347 31.032 31.7135 31.1222C31.1639 31.2772 30.56 31.4392 30.2146 31.3871C30.0418 31.3603 29.8562 31.3039 29.6935 31.38L29.822 31.4829L29.8277 31.5618C29.388 31.8507 28.4786 31.7069 27.9776 31.6703L28.6985 32.0226C28.1974 32.1423 27.7135 32.2269 27.221 32.2804C26.944 32.3114 26.6642 32.3326 26.3759 32.3452L27.221 32.6764L27.2738 32.6975C27.2567 32.7045 27.2381 32.713 27.221 32.72C26.7413 32.923 26.2559 33.1343 25.7463 33.2513C25.4294 33.3231 25.1053 33.3499 24.7913 33.4288L24.807 33.4936C25.0297 33.4852 25.3409 33.4471 25.5279 33.5613C25.338 33.8572 23.6506 34.3447 23.2395 34.4828L24.3344 34.3968C23.2067 35.2789 22.0404 35.8919 21.091 36.9994C21.6649 36.6668 22.2074 36.2836 22.7798 35.9539C24.2288 35.1155 25.6592 34.7054 27.2224 34.5955C27.7406 34.5603 28.2717 34.5561 28.8241 34.58C29.8634 34.6265 30.8227 34.7787 31.7149 35.0408C33.6407 35.6058 35.2695 36.6823 36.7699 38.307C35.5765 37.7885 34.2874 37.4954 33.0611 37.0586C33.2867 37.2474 33.5308 37.4122 33.7677 37.5856L33.6949 37.6391C32.9769 37.6715 32.3473 37.3911 31.7163 37.1192C31.3466 36.9613 30.9754 36.8049 30.5843 36.7148L30.4844 36.6922C30.8741 36.9656 31.3052 37.2023 31.7178 37.4475C31.7692 37.4771 31.8206 37.5066 31.8705 37.5376C31.8177 37.5376 31.7677 37.5405 31.7178 37.5405C30.4101 37.5405 29.7406 36.9909 28.4929 36.6485C28.9412 36.9444 29.3894 37.2417 29.8334 37.5419C28.4986 37.7124 28.1318 37.3023 27.2253 37.036C27.0468 36.9825 26.8484 36.9346 26.62 36.8979C26.8255 37.0741 27.0283 37.2502 27.2253 37.432C27.3609 37.5574 27.4922 37.6842 27.6221 37.8152C27.4879 37.8054 27.3566 37.7899 27.2253 37.7716C26.5243 37.6743 25.8605 37.4728 25.1681 37.2882L25.7734 37.8645C24.62 37.9435 23.5165 38.1802 22.3915 38.4183C24.2017 38.4437 25.7663 38.6593 27.2238 39.1919C28.5771 39.6837 29.8405 40.4488 31.1168 41.5831C31.1839 41.6451 31.2524 41.7057 31.3181 41.7677C31.3837 41.8297 31.4494 41.8917 31.5151 41.9565C31.5807 42.0213 31.6421 42.0833 31.7064 42.1481C31.7106 42.1523 31.7135 42.1552 31.7163 42.1594C31.7763 42.2214 31.8348 42.2848 31.8934 42.3468C31.9533 42.413 32.0147 42.4807 32.0747 42.5483C32.136 42.6145 32.1946 42.6864 32.2531 42.7554C32.3116 42.8231 32.3687 42.8935 32.4244 42.964C32.4815 43.0344 32.5358 43.1063 32.59 43.1781C32.6457 43.25 32.6985 43.3233 32.7513 43.3965C32.8056 43.4712 32.857 43.5445 32.9084 43.6192C32.9569 43.6953 33.0069 43.7699 33.0568 43.8446C33.1068 43.9207 33.1553 43.9982 33.2024 44.0743C33.2495 44.1504 33.2967 44.2293 33.3423 44.3054C33.3866 44.3843 33.4323 44.4632 33.4737 44.5435C33.5179 44.6224 33.5593 44.7013 33.6022 44.7831C33.6436 44.8634 33.6835 44.9423 33.7221 45.0254C33.762 45.1072 33.7992 45.1875 33.8391 45.2706C33.8748 45.3509 33.9105 45.4341 33.9476 45.5172C33.9833 45.6031 34.0161 45.6849 34.0504 45.7666C34.0832 45.8525 34.1161 45.9357 34.1461 46.0216C34.1789 46.1062 34.2074 46.1907 34.2374 46.2753C34.266 46.3612 34.2945 46.4458 34.3216 46.5331C34.3488 46.6191 34.373 46.705 34.3987 46.7924C34.4244 46.8783 34.4487 46.9657 34.4687 47.0531C34.4929 47.1404 34.5158 47.2292 34.5343 47.3152C34.5558 47.4025 34.5743 47.4927 34.5929 47.5787C34.61 47.666 34.6286 47.7562 34.6443 47.8436C34.66 47.9323 34.6757 48.0225 34.6885 48.1113C34.7042 48.1986 34.7156 48.2888 34.7271 48.379C34.7385 48.4664 34.7499 48.558 34.7599 48.6467C34.7685 48.7369 34.7756 48.8271 34.7842 48.9159L34.777 48.9215Z" fill="white"/>
<path d="M32.0771 12.2407C31.9444 12.0083 31.9572 11.7293 32.0957 11.5137L33.2963 12.4422C33.1735 12.4845 33.0522 12.5254 32.9308 12.5662C32.8552 12.5902 32.7795 12.6015 32.7038 12.6015C32.4512 12.6015 32.2085 12.469 32.0771 12.2407Z" fill="#424242"/>
<path d="M45.9202 27.5573C45.913 27.5658 45.9045 27.5728 45.8973 27.5798C45.7674 27.6996 45.6261 27.8081 45.4805 27.9096V27.2163L45.9202 27.5573Z" fill="#424242"/>
<path d="M50.0785 25.473C50.0042 25.4349 49.9343 25.3828 49.8758 25.3194C49.8729 25.3152 49.8686 25.3123 49.8672 25.3081L50.0785 25.473Z" fill="#424242"/>
<path d="M75.9335 20.2695C75.204 19.8679 74.5073 19.4058 73.7565 19.0465C74.2704 19.6495 74.7672 20.254 75.2126 20.9092C73.6337 20.1864 72.3517 19.0831 70.8442 18.2574C71.2682 18.8605 71.7579 19.434 72.1133 20.0793C71.755 19.9666 71.381 19.8694 71.0384 19.7172C70.5602 19.5058 70.1105 19.2127 69.6522 18.9661C69.0341 18.6364 68.4074 18.3546 67.7579 18.0939C68.2761 18.5758 68.8328 19.0366 69.3053 19.5636C67.8764 19.3875 66.4574 19.107 65.0184 19.031C63.2339 18.9337 61.3924 19.2916 59.6836 19.7792C60.5673 19.72 61.4324 19.6439 62.3217 19.7129C64.78 19.9074 67.3539 20.9825 69.2382 22.5508C69.8978 23.0989 70.5031 23.7541 71.0584 24.4023C73.1926 26.8865 74.5816 30.2189 74.7814 33.4739C74.8485 34.5631 74.7557 35.634 74.6687 36.7176C74.416 36.199 74.2433 35.6326 74.0163 35.1014C73.6751 34.2996 73.264 33.5246 72.9228 32.7214C72.5959 31.9451 72.3432 31.1405 72.0006 30.3697C71.9192 31.0334 71.8278 31.6999 71.7022 32.3579C71.4096 31.721 71.1069 31.0855 70.8956 30.4176C70.6258 29.5806 70.4502 28.6873 70.1019 27.8785C70.0748 28.9395 70.0405 29.9991 69.9977 31.0602C69.0912 29.5313 68.7 27.7362 68.0748 26.089C67.9549 26.9851 67.9663 27.9137 67.9406 28.8155C67.164 27.8658 66.5716 26.6568 66.0591 25.5465C65.8121 25.011 65.588 24.3755 65.2397 23.8993C65.5095 24.949 65.7464 25.9762 65.8335 27.0598C65.084 26.0636 63.2168 24.4023 62.1818 23.7316C61.5651 23.3286 60.9056 23.0073 60.2218 22.734C60.7086 23.0651 61.1968 23.3991 61.6436 23.7823C64.2361 26.0072 65.8721 29.3524 66.0933 32.7257C66.3945 37.3376 65.0626 41.4083 61.9577 44.8958C62.3717 42.8132 62.9827 40.7574 63.3082 38.6635C62.8671 39.2976 62.3189 39.8217 61.7436 40.3346C62.2503 38.6677 62.6372 36.9472 63.1069 35.2662C62.5202 35.8608 62.0034 36.5668 61.4709 37.2107C61.7093 35.479 62.0405 33.7797 62.3389 32.0592C62.1376 32.3044 61.972 32.5721 61.8007 32.837C61.4738 33.395 61.1183 33.9417 60.7743 34.4898C60.7 33.6824 60.6186 32.8849 60.6458 32.0719C60.6857 30.9052 60.8656 29.7427 60.8471 28.5732C60.2632 29.6497 59.8649 30.8192 59.3438 31.9267C59.2568 31.4152 59.1069 30.9122 59.0441 30.3965C58.8927 29.1734 58.8942 27.901 58.8413 26.6709C58.6215 27.5459 58.4259 28.4351 58.1119 29.2819C57.5694 28.1518 57.2896 26.933 56.9712 25.7311C56.7757 25.0054 56.6243 24.2431 56.2289 23.5949C56.1904 24.4235 56.119 25.2506 56.0091 26.0749C55.5737 25.5803 55.1197 25.0801 54.8285 24.4855C54.7999 24.4235 54.7728 24.3657 54.75 24.3065C54.503 24.6292 54.2589 24.9504 54.0276 25.2773C52.9983 26.7357 52.0462 28.2561 51.1183 29.7793C48.7328 33.7022 46.6214 37.849 44.9812 42.1608C43.2367 46.7501 42.0247 51.5212 41.5836 56.3994C41.5679 56.5755 41.5508 56.7531 41.5379 56.9292C39.6564 56.7855 37.7677 56.6615 35.8748 56.5586C35.6093 56.5445 35.3452 56.5319 35.0796 56.5164C35.3095 55.4962 35.5836 54.4817 35.8748 53.4742C35.999 53.0472 36.126 52.6217 36.256 52.1976C36.4087 51.6973 36.5657 51.1985 36.7285 50.7025C36.8926 50.2051 37.0597 49.7092 37.2338 49.2174C37.408 48.7228 37.5879 48.231 37.7706 47.7407C37.9562 47.2517 38.1446 46.7628 38.3402 46.2781C38.5358 45.7919 38.7356 45.3086 38.9412 44.8281C39.1453 44.3448 39.3566 43.8658 39.5707 43.3895C39.7877 42.9118 40.0076 42.4384 40.236 41.9649C40.4601 41.4929 40.6928 41.0223 40.9269 40.5559C41.1411 40.1303 41.3595 39.7104 41.5822 39.2919C41.605 39.2482 41.6293 39.2032 41.6521 39.1595C41.8977 38.6959 42.1475 38.2365 42.4044 37.78C42.66 37.3206 42.9212 36.8683 43.1867 36.4146C43.4523 35.9637 43.7235 35.5142 44.0005 35.069C44.0419 35.0027 44.0818 34.9351 44.1247 34.8689C44.3588 34.4898 44.5986 34.1136 44.8399 33.7388C45.1254 33.2992 45.4152 32.8624 45.7092 32.4284C46.0033 31.993 46.3031 31.5632 46.6057 31.1362C46.9112 30.7079 47.2182 30.2824 47.5322 29.861C48.9926 27.87 50.5287 25.9185 52.2803 24.1811C51.675 24.4502 51.0383 24.6588 50.4088 24.8419C50.7714 23.9556 51.1425 23.2906 51.7592 22.5536C50.5872 23.2863 49.8634 24.3755 48.8142 25.2224C48.3017 25.6353 47.6393 25.8973 47.0654 26.2214C47.5379 25.2604 47.8163 24.4601 48.3745 23.4892C47.6022 24.2121 46.9826 25.0885 46.3431 25.9241C46.0504 26.3102 45.7663 26.7287 45.408 27.0598C45.0454 27.3924 44.5444 27.6474 44.1289 27.9123C44.3017 27.0542 44.5772 26.2073 44.8227 25.3661C43.999 26.4271 43.5622 27.7869 42.6928 28.8127C42.3973 29.1607 42.0447 29.4397 41.6921 29.7258C41.8177 28.917 41.9676 28.1265 42.1846 27.336C41.4309 28.2829 41.0511 29.4595 40.4929 30.5148C40.3017 30.877 40.0761 31.2152 39.8363 31.5407C39.6064 31.8506 39.3652 32.1522 39.1211 32.458C39.2181 32.0296 39.2724 31.59 39.3352 31.1532C39.368 30.9263 39.4023 30.7008 39.4451 30.4796C39.3538 30.6642 39.2681 30.8502 39.1867 31.0376C38.8755 31.7478 38.6171 32.4805 38.3259 33.2019C38.176 33.5641 38.019 33.9206 37.8534 34.2728C37.6221 34.7646 37.3737 35.2479 37.1068 35.7242L37.0739 34.5941C37.0668 34.2897 37.0682 33.9826 37.0782 33.6726C37.1139 32.3945 37.2909 31.0897 37.615 29.8188C38.216 27.4614 39.3266 25.2252 40.9983 23.5118C43.4737 20.9712 46.6529 19.7989 50.1832 19.7397C49.0911 19.2945 45.5551 19.6044 44.2717 19.7609C44.65 18.9521 45.4294 18.3687 46.1161 17.8262C44.0104 18.5293 42.2217 19.8229 40.0318 20.2921C40.5129 19.6524 41.0226 19.0352 41.5236 18.4138C39.7035 19.7609 38.757 20.4062 36.5329 20.998C36.8641 20.4809 37.2338 19.9905 37.5607 19.4678C36.9469 19.9271 36.373 20.4358 35.7349 20.8642C34.7756 21.5053 33.6806 21.9604 32.6143 22.3986C32.6357 22.3662 32.6585 22.3324 32.6799 22.3014C33.2766 21.425 33.9091 20.5232 34.6285 19.7397C36.6086 17.5838 39.4137 15.8521 42.3302 15.2955C46.1832 14.5628 49.5465 15.4054 52.7557 17.5585C51.2953 16.0606 49.6978 14.9362 47.6579 14.3345C46.5301 14.002 45.3823 13.7329 44.2831 13.3087C45.1496 13.0396 46.0733 13.0016 46.9212 12.7254C45.1082 12.538 43.3152 12.5323 41.5151 12.1928C42.1132 11.7306 42.8199 11.4812 43.4366 11.0585C41.5351 11.5234 40.1332 11.6658 38.2017 11.2783C38.6728 10.9331 39.1739 10.6386 39.6807 10.3441C38.847 10.5216 38.0233 10.7555 37.1882 10.9133C36.4301 11.057 35.655 11.081 34.8998 11.2275C34.1546 11.3727 33.428 11.6545 32.7056 11.8898C33.9005 10.8809 35.4108 10.0327 36.8712 9.46058C40.5658 8.01628 44.9184 7.71051 48.6229 9.31262C51.2981 10.4666 53.7764 12.879 54.837 15.59C54.8727 15.6816 54.9084 15.7661 54.9584 15.8507C54.9612 15.8338 54.9641 15.8155 54.9641 15.8014C54.9769 15.5041 54.8113 15.0954 54.7243 14.8009C54.1104 12.7155 53.024 10.9528 51.6522 9.27458C52.5401 9.71984 53.4752 10.0975 54.3802 10.5117C53.0526 9.57612 51.1597 8.20369 50.2931 6.8693C51.0355 6.97075 51.6821 7.14971 52.3831 7.39629C51.1696 6.51563 50.0447 5.70823 49.094 4.5373C49.655 4.60352 50.2132 4.61761 50.7714 4.71625C50.0947 4.35834 49.2039 4.00467 48.6343 3.51431C47.4937 2.5336 46.9041 0.96954 45.3795 0.341096C45.3952 0.341096 45.4123 0.338278 45.4266 0.341096C46.1518 0.366459 46.9184 0.684908 47.5965 0.927268C50.5173 1.96011 52.1061 2.80978 54.2075 5.1432C56.1575 7.31175 57.1483 10.3441 57.2382 13.2157C57.2582 13.9245 57.1825 14.6445 57.1425 15.3519C57.2096 15.1462 57.2796 14.9404 57.351 14.7361C58.5258 11.5277 61.6979 8.53341 64.7928 7.09757C67.9649 5.62369 71.9377 5.27142 75.2597 6.45785C73.558 6.87635 71.8749 7.36107 70.2118 7.9106C69.6922 8.0811 69.144 8.20087 68.6387 8.41505C69.4524 8.47986 70.3346 8.43618 71.1326 8.594C70.4303 8.74618 69.735 8.98854 69.0484 9.20835C67.6237 9.66348 66.2175 10.1609 64.78 10.5723C65.8321 10.5005 66.9085 10.5596 67.9649 10.5723C65.9634 11.5812 63.5851 12.4323 61.4295 13.072C62.3888 12.9692 63.3596 12.948 64.326 12.9198C62.75 13.7667 60.2989 15.3688 59.0283 16.5975C61.4709 15.2025 63.4509 14.5417 66.2918 14.5839C66.8414 14.5896 67.391 14.6248 67.9377 14.6868C68.4859 14.7474 69.027 14.8362 69.5637 14.9531C72.6358 15.6478 75.6194 17.3161 77.6737 19.6918C78.2561 20.3682 78.76 21.1248 79.2354 21.8745C78.1248 21.3855 76.9999 20.8515 75.9349 20.2681L75.9335 20.2695Z" fill="white"/>
<path d="M7.50553 12.001V5.61084H6.08368V12.001H2.96875V40.0921C3.33706 40.1006 3.71679 40.1076 4.10937 40.1146V32.8185L4.225 32.7283L4.37489 32.6128L4.41772 32.579L6.19075 31.2009H4.85313V29.4015H8.50339L9.07299 28.9591L10.4748 27.8699V27.8628L10.5291 22.5098L10.6347 12.001H7.50553ZM4.94877 14.3893H8.62473V16.1887H4.94877V14.3893ZM4.94877 17.7401H8.62473V19.5381H4.94877V17.7401ZM4.94877 21.088H8.62473V22.8888H4.94877V21.088Z" fill="#EAC863"/>
</g>
<path d="M80.3448 18.8488V18.6087H87.1573C91.869 18.6087 93.9698 20.9496 93.9698 23.9507C93.9698 27.2219 91.5989 29.0826 88.8979 29.4427C90.1884 29.7728 91.2388 30.4331 92.0791 32.6239L93.4296 36.1652C94.6301 39.3464 95.5004 39.7966 97.271 39.8266V40.0667H96.1006C93.8498 40.0667 92.6493 39.4664 91.5689 36.7054L89.9483 32.3838C89.2881 30.7032 88.3878 29.5328 86.317 29.5328V29.3827H87.4274C90.5185 29.3827 91.869 27.1319 91.869 24.0407C91.869 21.5198 91.1188 18.8788 87.1573 18.8788H84.8765V39.8266H87.3974V40.0667H80.3448V39.8266H82.8657V18.8488H80.3448ZM96.3745 32.774C96.3745 27.492 98.5353 25.2112 102.287 25.2112C105.768 25.2112 107.088 27.0718 107.088 29.8929C107.088 30.5231 106.968 31.2134 106.758 31.7236H98.4752C98.4452 31.9937 98.4452 32.4438 98.4452 32.774C98.4452 37.3657 99.3756 40.0066 102.977 40.0066C105.288 40.0066 106.728 38.0259 106.728 36.4653H106.998C106.998 38.176 105.438 40.3668 102.497 40.3668C98.5052 40.3668 96.3745 38.1459 96.3745 32.774ZM102.287 25.4513C99.4656 25.4513 98.5953 27.6421 98.4752 31.4835H104.297C105.138 31.4835 105.378 30.9133 105.378 30.0129C105.378 27.402 105.108 25.4513 102.287 25.4513ZM118.292 40.0667C116.851 40.0667 116.431 39.2564 116.371 37.7258C115.771 39.1963 114.33 40.3668 112.08 40.3668C109.589 40.3668 108.238 39.3164 108.238 37.5157C108.238 35.4149 110.099 34.0044 113.46 33.5242L116.341 33.1041V30.5231C116.341 27.432 116.221 25.4212 113.31 25.4212C110.729 25.4212 110.279 27.1619 110.279 28.7525C110.279 29.5027 110.399 30.253 110.939 30.7932L110.849 30.8833C109.499 30.7332 108.688 29.8029 108.688 28.5424C108.688 27.0718 109.949 25.2112 113.31 25.2112C117.031 25.2112 118.232 27.0718 118.232 30.9133V38.7462C118.232 39.3464 118.322 39.8266 119.072 39.8266H120.363V40.0667H118.292ZM110.279 37.3657C110.279 38.8662 110.819 39.9166 112.77 39.9166C114.511 39.9166 115.711 38.9863 116.341 37.2756V33.3442L113.52 33.7643C110.969 34.1545 110.279 35.625 110.279 37.3657ZM126.06 39.8266V40.0667H119.968V39.8266H122.069V17.7984H119.968V17.5583H123.959V39.8266H126.06ZM143.885 35.3849H144.185V40.0667H131.34V39.8266H133.861V18.8488H131.34V18.6087H144.125V23.2905H143.825C143.825 21.0696 143.285 18.8488 141.424 18.8488H135.872V29.3527H138.453C139.983 29.3527 140.794 28.9625 141.784 28.2423V30.7032C140.734 29.8929 139.983 29.5928 138.453 29.5928H135.872V39.8266H141.484C143.375 39.8266 143.885 37.6057 143.885 35.3849ZM149.793 40.1267C151.954 40.1267 153.154 39.0763 153.154 37.1856C153.154 35.625 151.804 34.5146 149.643 33.4942C147.452 32.4738 145.591 31.4535 145.591 28.9926C145.591 26.9218 147.212 25.2112 150.453 25.2112C153.334 25.2112 154.595 26.5016 154.595 27.8821C154.595 29.2326 153.484 29.8629 152.824 29.8629L152.734 29.7728C153.124 29.3527 153.274 28.7525 153.274 28.0922C153.274 26.8918 152.794 25.4513 150.453 25.4513C148.052 25.4513 147.182 26.8318 147.182 28.3023C147.182 30.3431 148.682 31.1233 150.633 32.0537C153.094 33.1941 154.715 34.3645 154.715 36.4053C154.715 38.8362 152.764 40.3668 149.793 40.3668C146.522 40.3668 145.141 38.8662 145.141 37.3056C145.141 36.1652 146.041 35.3849 146.912 35.3849L147.002 35.475C146.702 35.9551 146.582 36.5554 146.582 37.1256C146.582 38.6561 147.482 40.1267 149.793 40.1267ZM155.325 25.7514V25.5113H156.015C157.696 25.5113 158.596 24.641 159.077 21.8799H159.377V25.5113H162.318V25.7514H159.377V37.3957C159.377 38.9863 159.797 39.9766 161.057 39.9766C161.687 39.9766 162.108 39.7365 162.378 39.1963L162.558 39.2864C162.168 40.0066 161.447 40.3668 160.307 40.3668C158.656 40.3668 157.516 39.5865 157.516 37.4857V25.7514H155.325ZM173.091 40.0667C171.651 40.0667 171.231 39.2564 171.171 37.7258C170.571 39.1963 169.13 40.3668 166.879 40.3668C164.388 40.3668 163.038 39.3164 163.038 37.5157C163.038 35.4149 164.898 34.0044 168.26 33.5242L171.141 33.1041V30.5231C171.141 27.432 171.021 25.4212 168.11 25.4212C165.529 25.4212 165.079 27.1619 165.079 28.7525C165.079 29.5027 165.199 30.253 165.739 30.7932L165.649 30.8833C164.298 30.7332 163.488 29.8029 163.488 28.5424C163.488 27.0718 164.748 25.2112 168.11 25.2112C171.831 25.2112 173.031 27.0718 173.031 30.9133V38.7462C173.031 39.3464 173.121 39.8266 173.872 39.8266H175.162V40.0667H173.091ZM165.079 37.3657C165.079 38.8662 165.619 39.9166 167.569 39.9166C169.31 39.9166 170.511 38.9863 171.141 37.2756V33.3442L168.32 33.7643C165.769 34.1545 165.079 35.625 165.079 37.3657ZM174.686 25.7514V25.5113H175.376C177.057 25.5113 177.957 24.641 178.437 21.8799H178.737V25.5113H181.678V25.7514H178.737V37.3957C178.737 38.9863 179.157 39.9766 180.418 39.9766C181.048 39.9766 181.468 39.7365 181.738 39.1963L181.918 39.2864C181.528 40.0066 180.808 40.3668 179.668 40.3668C178.017 40.3668 176.877 39.5865 176.877 37.4857V25.7514H174.686ZM182.252 32.774C182.252 27.492 184.413 25.2112 188.164 25.2112C191.645 25.2112 192.966 27.0718 192.966 29.8929C192.966 30.5231 192.846 31.2134 192.636 31.7236H184.353C184.323 31.9937 184.323 32.4438 184.323 32.774C184.323 37.3657 185.253 40.0066 188.854 40.0066C191.165 40.0066 192.606 38.0259 192.606 36.4653H192.876C192.876 38.176 191.315 40.3668 188.374 40.3668C184.383 40.3668 182.252 38.1459 182.252 32.774ZM188.164 25.4513C185.343 25.4513 184.473 27.6421 184.353 31.4835H190.175C191.015 31.4835 191.255 30.9133 191.255 30.0129C191.255 27.402 190.985 25.4513 188.164 25.4513Z" fill="white"/>
<path d="M80.0804 41.0518V40.8689H84.7907C89.8897 40.8689 91.8104 43.224 91.8104 48.6432C91.8104 53.9023 90.0269 57.2178 85.248 57.2178H80.0804V57.0348H82.0011V41.0518H80.0804ZM84.7907 41.0518H83.5331V57.0348H85.248C88.9523 57.0348 90.187 53.9251 90.187 48.6432C90.187 43.3384 88.8379 41.0518 84.7907 41.0518ZM98.6012 46.128H101.642V56.2117C101.642 56.669 101.711 57.0348 102.305 57.0348H103.266V57.2178H101.711C100.545 57.2178 100.225 56.4861 100.225 55.0455V54.5196C99.3329 56.669 97.8695 57.4464 96.4061 57.4464C94.1652 57.4464 93.4793 56.4175 93.4793 53.605V46.3109H91.8787V46.128H94.9198V54.1538C94.9198 56.2117 95.2171 57.172 96.7262 57.172C97.9609 57.172 99.3557 56.3031 100.202 54.0623V46.3109H98.6012V46.128ZM113.172 51.1584C113.172 55.5943 111.388 57.4464 108.69 57.4464C107.364 57.4464 106.495 56.9205 105.946 55.9144V57.2178H104.506V40.2515H102.905V40.0686H105.946V48.666C106.609 47.1112 107.73 45.8993 109.582 45.8993C112.097 45.8993 113.172 47.477 113.172 51.1584ZM105.946 49.1005V55.5257C106.472 56.7147 107.318 57.2178 108.553 57.2178C110.634 57.2178 111.617 55.2513 111.617 51.1584C111.617 47.7057 110.908 46.1737 109.262 46.1737C107.684 46.1737 106.678 47.3627 105.946 49.1005ZM121.716 57.2178C120.618 57.2178 120.298 56.6004 120.253 55.4343C119.795 56.5547 118.698 57.4464 116.983 57.4464C115.085 57.4464 114.056 56.6461 114.056 55.2742C114.056 53.6736 115.474 52.5989 118.035 52.2331L120.23 51.913V49.9465C120.23 47.5914 120.138 46.0594 117.92 46.0594C115.954 46.0594 115.611 47.3856 115.611 48.5974C115.611 49.1691 115.702 49.7407 116.114 50.1523L116.045 50.2209C115.016 50.1066 114.399 49.3977 114.399 48.4374C114.399 47.317 115.359 45.8993 117.92 45.8993C120.756 45.8993 121.67 47.317 121.67 50.2438V56.2117C121.67 56.669 121.739 57.0348 122.31 57.0348H123.294V57.2178H121.716ZM115.611 55.1599C115.611 56.3031 116.022 57.1034 117.509 57.1034C118.835 57.1034 119.75 56.3946 120.23 55.0913V52.0959L118.08 52.416C116.137 52.7133 115.611 53.8337 115.611 55.1599ZM125.531 43.224C125.005 43.224 124.616 42.7896 124.616 42.2865C124.616 41.7835 125.005 41.3719 125.531 41.3719C126.057 41.3719 126.446 41.7835 126.446 42.2865C126.446 42.7896 126.057 43.224 125.531 43.224ZM127.863 57.0348V57.2178H123.222V57.0348H124.822V46.3109H123.222V46.128H126.263V57.0348H127.863Z" fill="white"/>
<defs>
<clipPath id="clip0_108_678">
<rect width="79.2337" height="57.318" fill="white" transform="translate(0 0.341064)"/>
</clipPath>
</defs>
</svg>
