<svg width="996" height="263" viewBox="0 0 996 263" fill="none" xmlns="http://www.w3.org/2000/svg">
<g clip-path="url(#clip0_149_220)">
<g clip-path="url(#clip1_149_220)">
<path fill-rule="evenodd" clip-rule="evenodd" d="M-18.1133 117.333C-11.0936 41.1357 53.1888 -18.7387 131.251 -18.7478C131.245 -18.7478 131.239 -18.7478 131.233 -18.7478C53.0876 -18.7478 -11.0993 41.0171 -18.1133 117.333ZM142.712 -18.3151C220.059 -12.4444 281.206 52.4321 281.216 131.252C281.216 131.246 281.216 131.24 281.216 131.235C281.216 52.2635 220.182 -12.4523 142.712 -18.3151ZM83.0464 231.639H103.591C105.874 231.639 107.728 229.784 107.728 227.501C107.728 225.219 105.874 223.364 103.591 223.364H83.0464C80.7637 223.364 78.9089 225.219 78.9089 227.501C78.9089 229.784 80.7637 231.639 83.0464 231.639ZM158.376 231.639H178.921C181.204 231.639 183.058 229.784 183.058 227.501C183.058 225.219 181.204 223.364 178.921 223.364H158.376C156.094 223.364 154.239 225.219 154.239 227.501C154.239 229.784 156.094 231.639 158.376 231.639ZM188.901 191.468L188.908 191.477C189.693 192.619 190.977 193.189 192.546 193.261C193.402 193.261 194.258 192.975 194.971 192.476C196.826 191.192 197.254 188.624 195.899 186.769C195.883 186.75 195.851 186.706 195.801 186.64C194.913 185.462 188.594 177.072 177.994 169.577C164.511 160.018 149.888 156.024 135.406 157.878V152.671C153.383 148.462 169.79 150.959 184.2 159.947C195.685 167.152 201.606 175.997 201.677 176.14C202.462 177.353 203.746 177.995 205.101 177.995C205.814 177.995 206.599 177.781 207.312 177.353C209.238 176.069 209.738 173.572 208.525 171.646L208.517 171.634C208.136 171.061 201.645 161.308 188.837 153.17C177.708 146.108 159.66 139.117 135.335 144.182V141.828C158.305 130.771 179.42 128.631 198.11 135.55C211.881 140.62 219.335 149.045 220.03 149.831C220.059 149.864 220.076 149.883 220.081 149.889C220.937 150.887 222.079 151.387 223.291 151.387C224.219 151.387 225.146 151.101 225.931 150.459C227.643 149.033 227.928 146.465 226.502 144.681L226.499 144.679C226.111 144.212 217.694 134.111 201.463 127.989C187.553 122.781 165.082 119.571 135.406 132.768V129.63C162.3 115.22 182.916 112.652 195.613 113.08C209.269 113.57 216.875 117.497 217.284 117.709L217.299 117.717C219.225 118.787 221.793 118.073 222.863 116.147C223.934 114.221 223.291 111.724 221.294 110.583C219.939 109.798 189.122 93.0345 135.335 120.356V116.932C178.35 86.0437 199.18 90.3951 199.608 90.5378C201.748 91.1085 204.031 89.8244 204.602 87.6844C205.244 85.473 203.96 83.1903 201.748 82.6196C200.821 82.3342 179.206 76.8414 135.335 106.874V103.877C140.471 95.1032 149.674 87.399 157.734 81.8349C165.836 76.2476 172.844 72.78 173.267 72.5703L173.285 72.5613C175.354 71.5626 176.21 69.1372 175.212 67.0685C174.213 64.9998 171.787 64.1437 169.719 65.1424C168.649 65.6418 148.675 75.4147 135.264 90.2524V84.4743C141.827 70.4926 153.882 64.2151 154.096 64.1437C156.094 63.1451 156.95 60.7197 155.951 58.6509C154.952 56.6535 152.456 55.7975 150.458 56.7962C149.959 57.0102 142.397 60.8623 135.264 69.3512V53.3008C135.264 51.0181 133.409 49.1633 131.126 49.1633C128.844 49.1633 126.989 51.0181 126.989 53.3008V69.3512C119.927 60.8623 112.294 57.0102 111.866 56.7962C109.868 55.7975 107.372 56.6535 106.373 58.6509C105.374 60.6483 106.159 63.1451 108.228 64.1437C108.231 64.1475 108.268 64.1677 108.335 64.2048C109.55 64.8776 120.769 71.0875 126.989 84.4743V90.2524C113.759 75.6922 94.2775 66.0091 92.6098 65.1802C92.578 65.1644 92.5527 65.1518 92.534 65.1424C90.4653 64.1437 88.0399 64.9998 87.0412 67.0685C86.0425 69.1372 86.8985 71.5626 88.9672 72.5613C88.9706 72.563 88.9776 72.5665 88.9883 72.5717C89.8879 73.0159 116.555 86.1824 126.989 103.877V106.874C83.1177 76.8414 61.5031 82.3342 60.5758 82.6196C58.4357 83.1903 57.0804 85.473 57.7224 87.6844C58.2931 89.8244 60.5044 91.1085 62.7158 90.5378C62.9298 90.4665 83.7597 85.8297 126.989 116.932V120.356C73.1308 93.0345 42.3853 109.798 41.0299 110.583C39.0325 111.653 38.3905 114.15 39.4606 116.147C40.5306 118.073 43.0273 118.787 45.0247 117.717C45.0296 117.717 45.0701 117.697 45.1458 117.66C46.169 117.164 53.6259 113.545 66.7106 113.08C79.4796 112.652 100.096 115.22 126.918 129.63V132.768C97.2421 119.571 74.7715 122.71 60.8611 127.989C44.6297 134.111 36.2133 144.212 35.8247 144.679L35.8225 144.681C34.3958 146.465 34.6811 149.033 36.3931 150.459C37.1778 151.101 38.1052 151.387 39.0325 151.387C40.2452 151.387 41.4579 150.887 42.2426 149.889C42.2447 149.887 42.2533 149.877 42.2685 149.859C42.7658 149.29 50.2983 140.673 64.2139 135.55C82.9037 128.702 104.019 130.771 126.989 141.828V144.182C102.592 139.046 84.4731 146.037 73.3448 153.099C60.5902 161.132 54.1005 170.906 53.6694 171.555L53.6563 171.575C52.4436 173.429 52.9429 175.997 54.869 177.21C55.511 177.638 56.2957 177.852 57.0804 177.852C58.3644 177.852 59.7198 177.21 60.5045 175.997C60.5083 175.994 60.5294 175.964 60.5676 175.91C61.234 174.964 67.1191 166.619 77.9816 159.804C92.3913 150.816 108.87 148.319 126.918 152.528V157.736C112.508 155.881 97.8841 159.876 84.4018 169.435C73.8009 176.929 67.4821 185.319 66.5948 186.497C66.5447 186.564 66.5119 186.607 66.4966 186.626C65.1412 188.41 65.5693 190.978 67.424 192.333C68.2087 192.833 68.9933 193.118 69.8494 193.118C71.1334 193.118 72.4174 192.547 73.2021 191.406L73.2092 191.396C73.7051 190.73 95.5949 161.333 126.989 166.01V176.925H111.866C108.87 176.925 106.444 179.35 106.444 182.346V190.407C106.444 196.328 111.295 201.179 117.216 201.179H117.43V248.403C117.43 255.893 123.565 262.028 131.055 262.028C138.545 262.028 144.68 255.964 144.68 248.403V201.179H144.894C150.815 201.179 155.666 196.399 155.666 190.407V182.346C155.666 179.35 153.24 176.925 150.244 176.925H135.121V166.082C137.404 165.725 139.687 165.582 141.898 165.582C169.603 165.582 188.439 190.849 188.901 191.468ZM218.298 225.789L222.792 221.295C247.189 196.827 260.671 164.37 260.671 129.772C260.671 58.3656 202.676 0.298706 131.269 0.298706C59.8624 0.298706 1.79555 58.3656 1.79555 129.772C1.79555 146.536 5.00563 162.943 11.1405 178.137C17.2753 193.403 26.3349 207.385 37.9625 219.512L44.1687 225.932C44.3114 226.075 44.454 226.217 44.668 226.36L48.8055 230.498C51.2309 232.923 54.5123 234.278 58.0077 234.278C61.5031 234.278 64.7846 232.923 67.21 230.498C72.2748 225.433 72.2748 217.158 67.21 212.093L60.9325 205.816L56.7237 201.393C38.1052 182.061 27.8329 156.594 27.8329 129.772C27.8329 72.7753 74.2008 26.4074 131.198 26.4074C188.195 26.4074 234.562 72.7753 234.562 129.772C234.562 157.379 223.862 183.345 204.316 202.891L193.402 213.805C188.337 218.87 188.337 227.145 193.402 232.21C195.899 234.706 199.323 235.99 202.604 235.99C205.886 235.99 209.238 234.778 211.807 232.21L218.155 225.932C218.183 225.905 218.21 225.888 218.233 225.874C218.271 225.85 218.298 225.833 218.298 225.789Z" fill="#EAC863"/>
<path d="M253.79 128.626C253.79 161.012 241.163 191.473 218.265 214.371L213.699 218.937L213.557 219.079L207.351 225.286C205.496 227.14 202.428 227.14 200.502 225.286C198.648 223.431 198.648 220.363 200.502 218.437L211.417 207.523C232.461 186.479 244.088 158.444 244.088 128.626C244.088 67.0639 194.011 17.0579 132.52 17.0579C71.0289 17.0579 20.9516 67.1353 20.9516 128.626C20.9516 157.588 32.0086 185.052 52.1251 205.954L56.4052 210.376C56.4052 210.376 56.4765 210.376 56.4765 210.448L62.754 216.797C64.6088 218.651 64.6088 221.719 62.754 223.645C60.8993 225.5 57.8319 225.5 55.9059 223.645L51.3404 219.079C51.1977 218.937 51.0551 218.794 50.9124 218.723L45.1342 212.731C23.3057 190.046 11.25 160.156 11.25 128.698C11.25 61.8565 65.6075 7.49902 132.449 7.49902C199.29 7.49902 253.79 61.7851 253.79 128.626Z" fill="#EAC863"/>
<path d="M147.481 185.129V190.408C147.481 191.834 146.269 192.976 144.913 192.976H117.164C115.737 192.976 114.596 191.763 114.596 190.408V185.129H147.481Z" fill="#EAC863"/>
<path d="M136.394 201.25V248.473C136.394 251.47 133.968 253.895 130.972 253.895C127.976 253.895 125.551 251.47 125.551 248.473V201.25H136.394Z" fill="#EAC863"/>
</g>
</g>
<path d="M381.735 110.698H383.545V140.203H304.261V138.755H318.018V12.2264H304.261V10.7783H349.515V12.2264H335.758V138.755H362.185C374.856 138.755 381.554 126.446 381.735 110.698ZM434.625 52.4114H463.225V132.6C463.225 136.221 463.949 138.755 468.112 138.755H474.81V140.203H459.062C449.468 140.203 446.029 134.772 446.029 124.093V120.834C439.693 136.402 429.194 142.013 417.248 142.013C399.146 142.013 392.811 134.591 392.811 112.508V53.8595H381.407V52.4114H410.007V120.653C410.007 133.324 412.179 139.479 421.773 139.479C430.461 139.479 440.236 132.781 446.029 117.214V53.8595H434.625V52.4114ZM487.256 62.9101C482.912 55.8506 480.739 53.8595 476.033 53.8595H473.68V52.4114H514.589V53.8595H503.004C503.366 55.8506 504.09 58.0228 505.357 60.0139L524.002 89.7001L541.922 62.5481C543.008 60.738 543.913 59.1088 543.913 57.6607C543.913 55.4886 542.103 53.8595 538.483 53.8595H531.604V52.4114H559.48V53.8595H556.765C551.335 53.8595 547.533 57.1177 543.732 62.9101L525.088 91.3292L548.619 129.704C553.326 137.126 554.774 138.755 559.48 138.755H561.833V140.203H520.924V138.755H532.871C532.509 136.764 531.785 134.41 530.699 132.781L511.512 102.371L491.419 130.609C489.971 132.6 489.428 134.229 489.428 135.497C489.428 137.669 491.419 138.755 495.039 138.755H501.918V140.203H472.956V138.755H476.757C481.101 138.755 485.446 135.497 489.609 129.704L510.426 100.561L487.256 62.9101ZM557.317 96.2166C557.317 64.7203 571.436 50.6012 595.872 50.6012C617.594 50.6012 626.102 61.643 626.102 77.7532C626.102 81.9165 625.197 86.6229 623.568 89.8811H575.961V96.2166C575.961 123.369 580.667 139.117 601.846 139.117C614.879 139.117 623.568 127.894 623.568 118.481H625.197C625.197 128.799 615.965 142.013 596.415 142.013C571.074 142.013 557.317 128.618 557.317 96.2166ZM595.691 52.0493C580.667 52.0493 576.504 65.4443 575.961 88.433H603.837C609.991 88.433 611.621 84.2697 611.621 77.5722C611.621 63.0911 609.991 52.0493 595.691 52.0493ZM667.193 138.755V140.203H627.189V138.755H638.593V5.89089H627.189V4.44278H655.789V138.755H667.193ZM685.463 31.2328C680.213 31.2328 676.05 26.8884 676.05 21.6391C676.05 16.3897 680.213 12.0454 685.463 12.0454C690.893 12.0454 695.057 16.3897 695.057 21.6391C695.057 26.8884 690.893 31.2328 685.463 31.2328ZM705.736 138.755V140.203H665.732V138.755H677.136V53.8595H665.732V52.4114H694.332V138.755H705.736ZM774.963 58.5658C774.963 55.6696 772.79 53.8595 768.084 53.8595H762.292V52.4114H787.091V53.8595H784.556C780.212 53.8595 777.859 56.9367 775.687 62.9101L747.087 140.203H744.371L712.694 60.919C710.703 55.6696 708.893 53.8595 705.091 53.8595H701.833V52.4114H742.561V53.8595H729.347C729.347 56.5747 729.528 59.1088 731.157 62.9101L753.784 119.024L774.058 62.3671C774.601 60.919 774.963 59.4709 774.963 58.5658ZM801.884 31.2328C796.635 31.2328 792.471 26.8884 792.471 21.6391C792.471 16.3897 796.635 12.0454 801.884 12.0454C807.315 12.0454 811.478 16.3897 811.478 21.6391C811.478 26.8884 807.315 31.2328 801.884 31.2328ZM822.158 138.755V140.203H782.154V138.755H793.558V53.8595H782.154V52.4114H810.754V138.755H822.158ZM862.603 138.755V140.203H822.599V138.755H834.003V53.8595H822.599V52.4114H850.113L851.018 71.9608C857.353 56.3936 868.757 50.6012 880.704 50.6012C898.806 50.6012 905.322 58.0228 905.322 80.1064V138.755H916.726V140.203H876.722V138.755H888.126V71.9608C888.126 59.2899 885.773 53.1354 876.36 53.1354C867.671 53.1354 856.81 59.8329 851.199 75.7621V138.755H862.603ZM989.407 148.53C989.407 168.622 968.772 181.836 944.878 181.836C928.043 181.836 911.933 177.13 911.933 166.269C911.933 158.485 919.898 153.598 934.741 151.969L937.637 151.788L937.818 152.693L936.189 153.055C926.957 155.589 924.785 160.476 924.785 165.907C924.785 174.414 932.026 180.207 946.326 180.207C965.875 180.207 980.537 170.251 980.537 156.313C980.537 149.073 976.374 145.633 964.608 145.633H941.076C928.949 145.633 920.803 140.927 920.803 131.152C920.803 119.024 932.569 111.965 943.792 110.336C926.233 107.439 916.821 96.9407 916.821 80.2874C916.821 62.1861 928.224 50.6012 951.394 50.6012C956.463 50.6012 961.169 51.1443 965.151 52.4114H990.493V54.2215H970.039C980.537 58.9278 985.787 68.5215 985.787 80.8305C985.787 99.4749 974.383 110.879 952.299 110.879C937.818 110.879 926.414 117.395 926.595 125.179C926.595 130.066 932.569 130.066 937.094 130.066H965.151C982.348 130.066 989.407 137.126 989.407 148.53ZM968.772 80.4684C968.772 60.1949 964.427 52.0493 951.213 52.0493C938.361 52.0493 934.017 60.1949 934.017 80.2874C934.017 102.19 939.447 109.431 952.118 109.431C963.703 109.431 968.772 102.19 968.772 80.4684Z" fill="#FEFEFE"/>
<path d="M302.882 153.76V152.657H333.637C364.392 152.657 376.667 166.862 376.667 199.548C376.667 231.268 365.22 251.266 336.395 251.266H302.882V250.163H313.364V153.76H302.882ZM333.637 153.76H326.879V250.163H336.395C355.979 250.163 362.461 231.406 362.461 199.548C362.461 167.552 355.428 153.76 333.637 153.76ZM416.887 184.377H438.678V245.474C438.678 248.232 439.229 250.163 442.401 250.163H447.504V251.266H435.506C428.196 251.266 425.576 247.129 425.576 238.992V236.509C420.749 248.37 412.75 252.645 403.647 252.645C389.856 252.645 385.029 246.991 385.029 230.165V185.481H376.34V184.377H398.131V236.371C398.131 246.025 399.786 250.714 407.095 250.714C413.715 250.714 421.162 245.612 425.576 233.751V185.481H416.887V184.377ZM509.427 214.719C509.427 241.474 498.532 252.645 481.568 252.645C473.983 252.645 469.156 249.749 465.984 244.232V251.266H452.882V148.933H444.193V147.83H465.984V198.445C469.983 189.342 476.603 182.998 486.809 182.998C502.531 182.998 509.427 192.376 509.427 214.719ZM465.984 201.203V241.888C468.88 248.37 473.431 251.128 480.051 251.128C490.808 251.128 495.498 240.095 495.498 214.719C495.498 193.204 492.05 185.067 483.499 185.067C475.638 185.067 469.845 191.411 465.984 201.203ZM559.807 251.266C553.187 251.266 550.705 248.232 550.153 242.026C547.119 247.956 540.913 252.645 530.845 252.645C519.674 252.645 513.33 247.956 513.33 239.543C513.33 229.062 522.432 222.442 539.947 220.097L549.877 218.718V205.616C549.877 192.376 549.325 183.964 537.878 183.964C527.121 183.964 525.328 192.376 525.328 199.824C525.328 203.685 526.018 207.133 528.086 209.892L527.673 210.305C519.674 209.754 515.26 205.065 515.26 198.445C515.26 191.549 521.467 182.998 537.878 182.998C556.359 182.998 562.979 190.997 562.979 208.926V245.474C562.979 248.232 563.531 250.163 566.565 250.163H571.668V251.266H559.807ZM526.845 238.164C526.845 245.336 529.19 249.887 536.499 249.887C542.843 249.887 547.257 246.301 549.877 239.957V219.821L540.223 221.339C529.741 222.994 526.845 230.303 526.845 238.164ZM585.537 168.241C581.537 168.241 578.365 164.931 578.365 160.932C578.365 156.932 581.537 153.622 585.537 153.622C589.674 153.622 592.846 156.932 592.846 160.932C592.846 164.931 589.674 168.241 585.537 168.241ZM600.983 250.163V251.266H570.504V250.163H579.193V185.481H570.504V184.377H592.295V250.163H600.983Z" fill="#FEFEFE"/>
<defs>
<clipPath id="clip0_149_220">
<rect width="262.469" height="262.469" rx="131.235" fill="white"/>
</clipPath>
<clipPath id="clip1_149_220">
<rect width="299.965" height="299.965" fill="white" transform="translate(-18.748 -18.7478)"/>
</clipPath>
</defs>
</svg>
