<svg xmlns="http://www.w3.org/2000/svg" width="220" height="58" fill="none" xmlns:v="https://vecta.io/nano"><g clip-path="url(#A)"><g fill="#eac863"><path d="M42.299 56.464c.4-4.409 1.47-8.981 3.182-13.595v13.972l-.989-.052-2.213-.103.02-.223zm-13.767-.762l.16.68h-.288l-4.937.04V44.555l.316.468.584.889.557.916.53.934.494.944.465.962.153.333.281.638.403.989.37 1.003.338 1.013.304 1.02.271 1.037zm4.146-24.092l.647-.093v3.369a10.69 10.69 0 0 0-1.406-.52 12.76 12.76 0 0 0-3.063-.49l-.724-.015-.962.032-1.085.125.05-.072a.52.52 0 0 0 .037-.065c.441-.124.851-.299 1.251-.468l.136-.058c.2-.085.347-.252.407-.452l.904-.183a.71.71 0 0 0 .414-.276c.393-.03.697-.123.942-.283l.066-.048.071.001c.441 0 .985-.142 1.55-.303l.097-.027.67-.175zm-.393 6.51c.326.11.67.199 1.041.225v4.634l-.161-.218-.178-.231-.186-.225-.188-.22-.191-.213-.17-.18-.033-.035-.064-.065-.131-.131-.163-.157-.05-.046-.136-.125-.078-.07c-1.321-1.174-2.67-2.002-4.124-2.529l-.041-.016.136.011h.054a.72.72 0 0 0 .628-.365c.28.079.598.132.998.132a5.31 5.31 0 0 0 .677-.046.72.72 0 0 0 .407-.193c.402.116.849.197 1.385.197l.17-.003a.73.73 0 0 0 .401-.132v.001zm.543 9.65l.497.799v7.739c-.002-.008-.004-.017-.007-.025l-.941-2.469c-1.171-2.776-2.71-5.463-4.575-7.984l-2.528-3.11.555.245a.7.7 0 0 0 .271.053c.048 0 .096-.004.141-.014a4.03 4.03 0 0 0 .578.466 4.46 4.46 0 0 0 1.013.492c.079.027.159.041.239.041a.66.66 0 0 0 .077-.004c.3.317.645.637 1.089.969.128.096.281.144.435.144a.81.81 0 0 0 .143-.014 5.5 5.5 0 0 0 1.082 1.065c.127.093.277.141.428.141l.03-.001c.237.425.5.837.838 1.224a.72.72 0 0 0 .545.247l.088-.004zm-22.237-6.744l.411-.204a.73.73 0 0 0 .431.142c.059 0 .117-.007.176-.023.836-.207 1.262-.34 1.66-.556l.036.021-.314.237-.952.793c-.01.008-.02.017-.029.027-.531.523-1.005 1.091-1.419 1.697v-2.133zm2.762-4.867c-.952.107-1.881.317-2.762.62v-2.094c.214.049.433.083.658.103.076.134.196.244.345.309.477.201.937.299 1.376.358.066.132.174.247.314.318a3.53 3.53 0 0 0 .954.314l-.885.072zm2.143 14.882c.465 1.499 1.242 2.91 2.138 3.886v1.639l-7.044.319v-6.428l.353-1.022a.73.73 0 0 0 .484-.264c.412-.509.658-1.006.818-1.491.191-.024.37-.123.49-.282.357-.474.681-.916.951-1.406l.061.003a.73.73 0 0 0 .53-.23l.054-.058.857-.981c-.471 2.008-.368 4.123.308 6.314zm22.56-34.904a15.84 15.84 0 0 0-3.472 2.619l-1.259-.979v2.398L32.086 21.9l-.06.089-.014.021c-.173.261-.153.603.049.843.14.166.344.257.554.257a.72.72 0 0 0 .276-.054l.435-.179v6.887c-.484-.165-.974-.299-1.462-.402-.812-.172-1.639-.258-2.455-.258a11.53 11.53 0 0 0-2.331.234 12.51 12.51 0 0 0-2.133.64c-.517.206-1.009.451-1.477.734v-3.631l1.056-1.371c.211-.242.233-.593.053-.86-.137-.2-.363-.314-.598-.314a.76.76 0 0 0-.229.037l-.283.1v-6.896l-5.832 4.531v9.477a8.66 8.66 0 0 0-.081 1.771c-1.075-.95-2.487-1.722-3.923-2.116-.007-.003-.014-.004-.021-.006a11.76 11.76 0 0 0-3.018-.42v-3.242l-.116.09-1.98 1.539L6.182 31.2l-1.956 1.52v24.585L0 57.659V30.693l2.969-2.308 7.56-5.874.061-.048 1.62-1.251 11.255-8.746 1.506-1.167 3.423-2.656 3.422 2.656.278.216 1.201.928.029.023 4.731 3.672zm5.705 4.427c-1.203.628-2.298 1.447-3.281 2.455a13.05 13.05 0 0 0-2.041 2.765v-4.031l-.545-.424c.571-.199 1.063-.416 1.527-.661a.73.73 0 0 0 .612.335.71.71 0 0 0 .153-.015c1.012-.217 1.937-.596 2.822-1.006l.752.583zm1.1 7.736l.62-.39v3.586l-.368.538-.879 1.325-.717 1.134-.091.145-.037.062-.824 1.36-.789 1.378-.762 1.399-.067.125-.664 1.279-.697 1.42-.671 1.439-.475 1.077V34.71l.066-.137.49-1.107.118-.296h.007a.72.72 0 0 0 .565-.271l.056-.069.677-.871c.298-.404.524-.759.712-1.115l.241-.482a.73.73 0 0 0 .777-.087l.05-.041c.354-.286.721-.583 1.046-.967a6.63 6.63 0 0 0 .538-.734.72.72 0 0 0 .737-.025l.343-.209zm5.227-2.82l-2.624 3.273-.485-.376-1.058-.82a5.97 5.97 0 0 0 .685-.788c.131.107.294.162.46.162a.73.73 0 0 0 .355-.093l.54-.282c.442-.224.901-.455 1.309-.785l.56-.493.039.03.211.165.008.007zm6.717 5.212v26.967l-4.226-.352V32.721l-1.627-1.263.781-1.312 1.423-2.285 2.585 2.005 1.064.826z"/></g><path d="M34.777 48.922l.02.27c-1.068-.975-1.53-2.208-2.255-3.409.036.437.066.862.197 1.282-.427-.489-.731-1.048-1.026-1.616l-.687-1.246.301 1.391c-1.033-.76-1.585-1.912-2.233-2.977.16.603.38 1.196.578 1.785-1.142-.852-1.546-1.585-2.44-2.621.22.559.495 1.016.838 1.512a3.71 3.71 0 0 1-.851-.412c-.708-.469-1.028-1.086-1.746-1.784l-.069-.065c.191.441.455.86.695 1.275-.698-.282-1.35-.672-2.02-1.019l-2.567-1.265 1.674 1.511c1.472 1.501 2.821 3.07 4.033 4.713 1.811 2.449 3.32 5.059 4.493 7.839l.922 2.421-.922-.031-2.278-.063-.204-.882-.276-1.055-.311-1.044-.345-1.034-.377-1.024-.41-1.009-.29-.658-.156-.34-.475-.984-.507-.965-.538-.951-.568-.934-.6-.913c-1.015-1.527-2.194-3.089-3.585-4.3-.388 1.171-.864 2.845-1.418 3.903.012-.554-.014-1.086-.108-1.636l-.46 3.349-.248-.509a4.98 4.98 0 0 0-.395-.682c.274 1.38.33 2.004.056 3.38-.304-.426-.591-.886-.945-1.27.267.731.718 1.551.814 2.318.06.481.027.998.026 1.484-.131-.211-.276-.417-.431-.613a6.47 6.47 0 0 0-.5-.559l.761 1.64c-.099 1.207-.059 2.202.273 3.373-.921-.981-1.637-2.4-2.031-3.672-.835-2.704-.78-5.45.438-8.042.256-.54.611-.995.889-1.513-.3.244-.56.638-.811.936l-1.179 1.326.298-1.15c-.364.433-.59.964-.882 1.443-.327.534-.767.996-1.192 1.453l.254-1.901c-.216.466-.377.955-.565 1.432l-.207.49c-.28.607-.668 1.136-1.071 1.668-.079-.686-.036-1.405-.056-2.095-.397 1.464-.223 2.594-1.236 3.848a10.79 10.79 0 0 0-.14-1.34c-.321 1.596-.724 2.624-1.315 4.134-.107-.554-.15-1.098-.146-1.661.014-2.955 1.121-5.797 3.251-7.895l.918-.764c1.373-1.068 2.528-1.571 4.455-2.074-.408.015-2.083.286-2.297.218a1.86 1.86 0 0 0 .191-.275c-.174-.047-1.049.404-1.276.483-.277.097-.568.161-.854.231l.547-.92-.767.559c-.571.417-.792.527-2.003.829l.795-1.013c-.934.606-1.791 1.171-2.869 1.503.183-.397.398-.727.667-1.071-.48.304-.885.686-1.34 1.019-.29.213-.901.611-1.265.555l.228-.652-.4.295-2.188 1.441c.588-1.078 1.301-2.021 2.188-2.817.383-.345.798-.661 1.251-.95 1.48-.943 3.186-1.504 4.938-1.701a13.01 13.01 0 0 1 4.143.2c-.32-.199-.687-.335-1.023-.509l-.016-.052c.094-.059.178-.121.265-.189-.066-.059-1.332-.289-1.666-.472.08-.107.311-.127.444-.164l-.007-.037c-.659-.237-1.303-.166-1.959-.502l1.201-.202c-.477-.086-.932-.107-1.38-.148-.518-.049-1.028-.124-1.556-.348.388-.114.727-.244 1.084-.433-.901.087-1.642.175-2.525-.101.304-.065.614-.128.894-.259l-.054.021-.03-.056c-.475.014-1.118.09-1.567-.042-.12-.035-.077-.007-.14-.117.086-.09.15-.159.201-.272-.073-.038-1.329-.107-1.623-.173l.029-.01a6.32 6.32 0 0 0-.901-.192 9.08 9.08 0 0 0-1.009-.079 8.22 8.22 0 0 1 1.009-.447c1.963-.719 4.174-.71 6.188-.158 1.632.448 3.42 1.506 4.47 2.835.253.321.451.695.652 1.054l.11.197-.11-.55c-.328-1.695-.467-3.151 0-4.723.131-.445.314-.902.552-1.375.995-1.957 2.749-3.616 4.865-4.316-.323.369-1.884 2.349-1.859 2.787l.238-.045c-.143.413-.847 1.076-1.123 1.515l.794-.462c-.511.995-1.188 1.456-1.626 2.271.415-.203.811-.48 1.205-.723-.391.909-1.038 1.678-1.515 2.548l.955-.906c-.258 1.167-.721 2.301-1.062 3.449 1.091-2.269 2.852-4.099 5.229-5.046a11.72 11.72 0 0 1 2.009-.602c1.495-.303 3.002-.292 4.493.023.748.158 1.49.39 2.224.699a11.38 11.38 0 0 0-1.382.155c-.221.041-.521.128-.842.218-.55.155-1.154.317-1.499.265-.173-.027-.358-.083-.521-.007l.128.103.006.079c-.44.289-1.349.145-1.85.108l.721.352c-.501.12-.985.204-1.477.258l-.845.065.845.331.053.021-.053.023c-.48.203-.965.414-1.475.531l-.955.178.016.065c.223-.008.534-.047.721.068-.19.296-1.877.783-2.288.921l1.095-.086c-1.128.882-2.294 1.495-3.243 2.603l1.689-1.046c1.449-.838 2.879-1.248 4.443-1.358a14.4 14.4 0 0 1 1.602-.016c1.039.047 1.999.199 2.891.461 1.926.565 3.555 1.642 5.055 3.266-1.193-.519-2.483-.812-3.709-1.248.226.189.47.354.707.527l-.073.053c-.718.032-1.348-.248-1.979-.52-.37-.158-.741-.314-1.132-.404l-.1-.023c.39.273.821.51 1.233.755l.153.09-.153.003c-1.308 0-1.977-.55-3.225-.892l1.341.893c-1.335.171-1.702-.24-2.608-.506-.178-.053-.377-.101-.605-.138l.605.534.397.383-.397-.044c-.701-.097-1.365-.299-2.057-.483l.605.576c-1.153.079-2.257.316-3.382.554 1.81.025 3.375.241 4.832.774 1.353.492 2.617 1.257 3.893 2.391l.201.185.197.189.191.192.187.199.181.201.178.207.171.209.166.214.161.218.157.223.148.225.146.23.14.231.131.238.129.24.12.242.117.245.108.247.103.249.096.255.091.254.084.258.077.259.07.261.066.262.059.264.051.265.044.268.039.268.033.268.024.269-.007.006z" fill="#fff"/><g fill="#424242"><path d="M32.077 12.241a.7.7 0 0 1 .019-.727l1.201.928-.366.124c-.076.024-.151.035-.227.035-.253 0-.495-.133-.627-.361zM45.92 27.557c-.007.008-.016.015-.023.022-.13.12-.271.228-.417.33v-.693l.44.341zm4.159-2.084a.73.73 0 0 1-.203-.154l.203.154z"/></g><path d="M75.934 20.27l-2.177-1.223 1.456 1.863c-1.579-.723-2.861-1.826-4.368-2.652.424.603.914 1.177 1.269 1.822l-1.075-.362c-.478-.211-.928-.504-1.386-.751-.618-.33-1.245-.611-1.894-.872l1.547 1.47-4.287-.533c-1.785-.097-3.626.261-5.335.748.884-.059 1.749-.135 2.638-.066 2.458.194 5.032 1.27 6.917 2.838.66.548 1.265 1.203 1.82 1.852 2.134 2.484 3.523 5.817 3.723 9.072.067 1.089-.026 2.16-.113 3.244-.253-.519-.425-1.085-.652-1.616l-1.094-2.38-.922-2.352-.298 1.988-.807-1.94c-.27-.837-.445-1.73-.794-2.539l-.104 3.182c-.906-1.529-1.298-3.324-1.923-4.971-.12.896-.108 1.825-.134 2.727-.777-.95-1.369-2.159-1.882-3.269-.247-.536-.471-1.171-.819-1.647.27 1.05.507 2.077.594 3.16-.749-.996-2.617-2.657-3.652-3.328-.617-.403-1.276-.724-1.96-.998l1.422 1.048c2.592 2.225 4.229 5.57 4.45 8.943.301 4.612-1.031 8.683-4.136 12.17.414-2.083 1.025-4.138 1.35-6.232-.441.634-.989 1.158-1.565 1.671.507-1.667.894-3.387 1.363-5.068-.587.595-1.104 1.301-1.636 1.945.238-1.732.57-3.431.868-5.152-.201.245-.367.513-.538.778-.327.558-.682 1.105-1.026 1.653-.074-.807-.156-1.605-.128-2.418.04-1.167.22-2.329.201-3.499-.584 1.076-.982 2.246-1.503 3.354-.087-.512-.237-1.015-.3-1.53-.151-1.223-.15-2.495-.203-3.726-.22.875-.415 1.764-.729 2.611-.542-1.13-.822-2.349-1.141-3.551-.196-.726-.347-1.488-.742-2.136a28.91 28.91 0 0 1-.22 2.48c-.435-.495-.889-.995-1.181-1.589-.029-.062-.056-.12-.078-.179l-.722.971c-1.029 1.458-1.981 2.979-2.909 4.502-2.386 3.923-4.497 8.07-6.137 12.382-1.745 4.589-2.956 9.36-3.398 14.239l-.046.53-5.663-.371-.795-.042c.23-1.02.504-2.035.795-3.042l.381-1.277.472-1.495.505-1.485.537-1.477.57-1.463.601-1.45.63-1.439.665-1.425.691-1.409.655-1.264.07-.132.752-1.38.782-1.365.814-1.346.124-.2.715-1.13.869-1.31.896-1.292.927-1.275c1.46-1.991 2.996-3.942 4.748-5.68-.605.269-1.242.478-1.871.661.363-.886.734-1.551 1.35-2.288-1.172.733-1.896 1.822-2.945 2.669-.513.413-1.175.675-1.749.999.473-.961.751-1.761 1.309-2.732-.772.723-1.392 1.599-2.031 2.435-.293.386-.577.805-.935 1.136s-.864.588-1.279.852c.173-.858.448-1.705.694-2.546-.824 1.061-1.261 2.421-2.13 3.447-.295.348-.648.627-1.001.913.126-.809.275-1.599.492-2.39-.754.947-1.134 2.124-1.692 3.179-.191.362-.417.7-.657 1.026-.23.31-.471.611-.715.917.097-.428.151-.868.214-1.305.033-.227.067-.452.11-.674a12.41 12.41 0 0 0-.258.558c-.311.71-.57 1.443-.861 2.164-.15.362-.307.719-.472 1.071-.231.492-.48.975-.747 1.451l-.033-1.13a16.58 16.58 0 0 1 .004-.921 17.66 17.66 0 0 1 .537-3.854c.601-2.357 1.712-4.594 3.383-6.307 2.475-2.541 5.655-3.713 9.185-3.772-1.092-.445-4.628-.135-5.911.021.378-.809 1.158-1.392 1.844-1.935-2.106.703-3.894 1.997-6.084 2.466.481-.64.991-1.257 1.492-1.878-1.82 1.347-2.767 1.992-4.991 2.584.331-.517.701-1.008 1.028-1.53-.614.459-1.188.968-1.826 1.396-.959.641-2.054 1.096-3.121 1.534l.066-.097c.597-.876 1.229-1.778 1.949-2.562 1.98-2.156 4.785-3.888 7.702-4.444 3.853-.733 7.216.11 10.426 2.263-1.46-1.498-3.058-2.622-5.098-3.224-1.128-.332-2.276-.602-3.375-1.026.867-.269 1.79-.307 2.638-.583-1.813-.187-3.606-.193-5.406-.533.598-.462 1.305-.712 1.922-1.134-1.901.465-3.303.607-5.235.22.471-.345.972-.64 1.479-.934-.834.178-1.657.411-2.492.569-.758.144-1.533.168-2.288.314-.745.145-1.472.427-2.194.662 1.195-1.009 2.705-1.857 4.166-2.429 3.695-1.444 8.047-1.75 11.752-.148 2.675 1.154 5.154 3.566 6.214 6.277.036.092.071.176.121.261.003-.017.006-.035.006-.049.013-.297-.153-.706-.24-1-.614-2.085-1.7-3.848-3.072-5.526.888.445 1.823.823 2.728 1.237-1.328-.936-3.221-2.308-4.087-3.642.742.101 1.389.28 2.09.527-1.213-.881-2.338-1.688-3.289-2.859.561.066 1.119.08 1.677.179-.677-.358-1.568-.712-2.137-1.202C47.494 2.534 46.904.97 45.38.341c.016 0 .033-.003.047 0 .725.025 1.492.344 2.17.586 2.921 1.033 4.51 1.883 6.611 4.216 1.95 2.169 2.941 5.201 3.031 8.073.02.709-.056 1.429-.096 2.136l.209-.616c1.175-3.208 4.347-6.203 7.442-7.639 3.172-1.474 7.145-1.826 10.467-.64a67.36 67.36 0 0 0-5.048 1.453c-.52.17-1.068.29-1.573.504.814.065 1.696.021 2.494.179-.702.152-1.398.395-2.084.614l-4.268 1.364c1.052-.072 2.129-.013 3.185 0-2.002 1.009-4.38 1.86-6.535 2.5.959-.103 1.93-.124 2.896-.152-1.576.847-4.027 2.449-5.298 3.678 2.443-1.395 4.423-2.056 7.263-2.014a16.09 16.09 0 0 1 1.646.103 15.77 15.77 0 0 1 1.626.266c3.072.695 6.056 2.363 8.11 4.739.582.676 1.086 1.433 1.562 2.183a42.86 42.86 0 0 1-3.3-1.606l-.001.001z" fill="#fff"/><path d="M7.506 12.001v-6.39H6.084v6.39H2.969v28.091l1.141.023v-7.296l.116-.09.15-.115.043-.034 1.773-1.378H4.853v-1.799h3.65l.57-.442 1.402-1.089v-.007l.054-5.353.106-10.509H7.506zm-2.557 2.388h3.676v1.799H4.949v-1.799zm0 3.351h3.676v1.798H4.949V17.74zm0 3.348h3.676v1.801H4.949v-1.801z" fill="#eac863"/></g><g fill="#fff"><path d="M80.345 18.849v-.24h6.813c4.712 0 6.813 2.341 6.813 5.342 0 3.271-2.371 5.132-5.072 5.492 1.29.33 2.341.99 3.181 3.181l1.35 3.541c1.201 3.181 2.071 3.631 3.841 3.661v.24h-1.17c-2.251 0-3.451-.6-4.532-3.361l-1.621-4.322c-.66-1.681-1.561-2.851-3.631-2.851v-.15h1.11c3.091 0 4.442-2.251 4.442-5.342 0-2.521-.75-5.162-4.712-5.162h-2.281v20.948h2.521v.24h-7.053v-.24h2.521V18.849h-2.521zm16.03 13.925c0-5.282 2.161-7.563 5.913-7.563 3.481 0 4.801 1.861 4.801 4.682 0 .63-.12 1.32-.33 1.831h-8.283c-.03.27-.03.72-.03 1.05 0 4.592.93 7.233 4.532 7.233 2.311 0 3.751-1.981 3.751-3.541h.27c0 1.711-1.56 3.901-4.501 3.901-3.992 0-6.123-2.221-6.123-7.593zm5.913-7.323c-2.821 0-3.692 2.191-3.812 6.032h5.822c.841 0 1.081-.57 1.081-1.471 0-2.611-.27-4.562-3.091-4.562zm16.005 14.615c-1.441 0-1.861-.81-1.921-2.341-.6 1.471-2.041 2.641-4.291 2.641-2.491 0-3.842-1.05-3.842-2.851 0-2.101 1.861-3.511 5.222-3.992l2.881-.42v-2.581c0-3.091-.12-5.102-3.031-5.102-2.581 0-3.031 1.741-3.031 3.331 0 .75.12 1.5.66 2.041l-.09.09c-1.35-.15-2.161-1.08-2.161-2.341 0-1.471 1.261-3.331 4.622-3.331 3.721 0 4.922 1.861 4.922 5.702v7.833c0 .6.09 1.08.84 1.08h1.291v.24h-2.071zm-8.013-2.701c0 1.501.54 2.551 2.491 2.551 1.741 0 2.941-.93 3.571-2.641v-3.931l-2.821.42c-2.551.39-3.241 1.861-3.241 3.601zm15.781 2.461v.24h-6.092v-.24h2.101V17.798h-2.101v-.24h3.991v22.268h2.101zm17.825-4.442h.3v4.682H131.34v-.24h2.521V18.849h-2.521v-.24h12.785v4.682h-.3c0-2.221-.54-4.442-2.401-4.442h-5.552v10.504h2.581c1.53 0 2.341-.39 3.331-1.11v2.461c-1.05-.81-1.801-1.11-3.331-1.11h-2.581v10.234h5.612c1.891 0 2.401-2.221 2.401-4.442zm5.908 4.742c2.161 0 3.361-1.05 3.361-2.941 0-1.561-1.35-2.671-3.511-3.691-2.191-1.02-4.052-2.041-4.052-4.502 0-2.071 1.621-3.781 4.862-3.781 2.881 0 4.142 1.29 4.142 2.671 0 1.351-1.111 1.981-1.771 1.981l-.09-.09c.39-.42.54-1.02.54-1.681 0-1.2-.48-2.641-2.821-2.641-2.401 0-3.271 1.381-3.271 2.851 0 2.041 1.5 2.821 3.451 3.751 2.461 1.14 4.082 2.311 4.082 4.352 0 2.431-1.951 3.962-4.922 3.962-3.271 0-4.652-1.501-4.652-3.061 0-1.14.9-1.921 1.771-1.921l.09.09c-.3.48-.42 1.08-.42 1.651 0 1.531.9 3.001 3.211 3.001zm5.532-14.375v-.24h.69c1.681 0 2.581-.87 3.062-3.631h.3v3.631h2.941v.24h-2.941v11.644c0 1.591.42 2.581 1.68 2.581.63 0 1.051-.24 1.321-.78l.18.09c-.39.72-1.111 1.08-2.251 1.08-1.651 0-2.791-.78-2.791-2.881V25.751h-2.191zm17.766 14.315c-1.44 0-1.86-.81-1.92-2.341-.6 1.471-2.041 2.641-4.292 2.641-2.491 0-3.841-1.05-3.841-2.851 0-2.101 1.86-3.511 5.222-3.992l2.881-.42v-2.581c0-3.091-.12-5.102-3.031-5.102-2.581 0-3.031 1.741-3.031 3.331 0 .75.12 1.5.66 2.041l-.09.09c-1.351-.15-2.161-1.08-2.161-2.341 0-1.471 1.26-3.331 4.622-3.331 3.721 0 4.921 1.861 4.921 5.702v7.833c0 .6.09 1.08.841 1.08h1.29v.24h-2.071zm-8.012-2.701c0 1.501.54 2.551 2.49 2.551 1.741 0 2.942-.93 3.572-2.641v-3.931l-2.821.42c-2.551.39-3.241 1.861-3.241 3.601zm9.607-11.614v-.24h.69c1.681 0 2.581-.87 3.061-3.631h.3v3.631h2.941v.24h-2.941v11.644c0 1.591.42 2.581 1.681 2.581.63 0 1.05-.24 1.32-.78l.18.09c-.39.72-1.11 1.08-2.25 1.08-1.651 0-2.791-.78-2.791-2.881V25.751h-2.191zm7.566 7.023c0-5.282 2.161-7.563 5.912-7.563 3.481 0 4.802 1.861 4.802 4.682 0 .63-.12 1.32-.33 1.831h-8.283c-.03.27-.03.72-.03 1.05 0 4.592.93 7.233 4.531 7.233 2.311 0 3.752-1.981 3.752-3.541h.27c0 1.711-1.561 3.901-4.502 3.901-3.991 0-6.122-2.221-6.122-7.593zm5.912-7.323c-2.821 0-3.691 2.191-3.811 6.032h5.822c.84 0 1.08-.57 1.08-1.471 0-2.611-.27-4.562-3.091-4.562z"/><path d="M80.08 41.052v-.183h4.71c5.099 0 7.02 2.355 7.02 7.774 0 5.259-1.784 8.575-6.562 8.575H80.08v-.183h1.921V41.052H80.08zm4.71 0h-1.258v15.983h1.715c3.704 0 4.939-3.11 4.939-8.392 0-5.305-1.349-7.591-5.396-7.591zm13.811 5.076h3.041v10.084c0 .457.069.823.663.823h.961v.183h-1.555c-1.166 0-1.486-.732-1.486-2.172v-.526c-.892 2.149-2.355 2.927-3.819 2.927-2.241 0-2.927-1.029-2.927-3.841v-7.294h-1.601v-.183h3.041v8.026c0 2.058.297 3.018 1.806 3.018 1.235 0 2.629-.869 3.476-3.11v-7.751h-1.601v-.183zm14.571 5.03c0 4.436-1.784 6.288-4.482 6.288-1.326 0-2.195-.526-2.744-1.532v1.303h-1.44V40.252h-1.601v-.183h3.041v8.597c.663-1.555 1.784-2.767 3.636-2.767 2.515 0 3.59 1.578 3.59 5.259zm-7.226-2.058v6.425c.526 1.189 1.372 1.692 2.607 1.692 2.081 0 3.064-1.966 3.064-6.059 0-3.453-.709-4.985-2.355-4.985-1.578 0-2.584 1.189-3.316 2.927zm15.77 8.117c-1.098 0-1.418-.617-1.463-1.783-.458 1.12-1.555 2.012-3.27 2.012-1.898 0-2.927-.8-2.927-2.172 0-1.601 1.418-2.675 3.979-3.041l2.195-.32v-1.966c0-2.355-.092-3.887-2.31-3.887-1.966 0-2.309 1.326-2.309 2.538 0 .572.091 1.143.503 1.555l-.069.069c-1.029-.114-1.646-.823-1.646-1.784 0-1.12.96-2.538 3.521-2.538 2.836 0 3.75 1.418 3.75 4.345v5.968c0 .457.069.823.64.823h.984v.183h-1.578zm-6.105-2.058c0 1.143.411 1.944 1.898 1.944 1.326 0 2.241-.709 2.721-2.012v-2.995l-2.15.32c-1.943.297-2.469 1.418-2.469 2.744zm9.92-11.936c-.526 0-.915-.434-.915-.937s.389-.915.915-.915.915.412.915.915-.389.938-.915.938zm2.332 13.811v.183h-4.641v-.183h1.6V46.311h-1.6v-.183h3.041v10.907h1.6z"/></g><defs><clipPath id="A"><path fill="#fff" transform="translate(0 .341)" d="M0 0h79.234v57.318H0z"/></clipPath></defs></svg>