<svg width="1920" height="1080" viewBox="0 0 1920 1080" fill="none" xmlns="http://www.w3.org/2000/svg">
<rect width="1920" height="1080" fill="#EAC863"/>
<g clip-path="url(#clip0_233_399)">
<g clip-path="url(#clip1_233_399)">
<path fill-rule="evenodd" clip-rule="evenodd" d="M443.887 526.333C450.906 450.136 515.189 390.261 593.251 390.252C593.245 390.252 593.239 390.252 593.233 390.252C515.088 390.252 450.901 450.017 443.887 526.333ZM604.712 390.685C682.059 396.556 743.206 461.432 743.216 540.252C743.216 540.246 743.216 540.24 743.216 540.235C743.216 461.264 682.182 396.548 604.712 390.685ZM545.046 640.639H565.591C567.874 640.639 569.728 638.784 569.728 636.501C569.728 634.219 567.874 632.364 565.591 632.364H545.046C542.764 632.364 540.909 634.219 540.909 636.501C540.909 638.784 542.764 640.639 545.046 640.639ZM620.376 640.639H640.921C643.204 640.639 645.058 638.784 645.058 636.501C645.058 634.219 643.204 632.364 640.921 632.364H620.376C618.094 632.364 616.239 634.219 616.239 636.501C616.239 638.784 618.094 640.639 620.376 640.639ZM650.901 600.468L650.908 600.477C651.693 601.619 652.977 602.189 654.546 602.261C655.402 602.261 656.258 601.975 656.971 601.476C658.826 600.192 659.254 597.624 657.899 595.769C657.883 595.75 657.851 595.706 657.801 595.64C656.913 594.462 650.594 586.072 639.994 578.577C626.511 569.018 611.888 565.024 597.406 566.878V561.671C615.383 557.462 631.79 559.959 646.2 568.947C657.685 576.152 663.606 584.997 663.677 585.14C664.462 586.353 665.746 586.995 667.101 586.995C667.814 586.995 668.599 586.781 669.312 586.353C671.238 585.069 671.738 582.572 670.525 580.646L670.517 580.634C670.136 580.061 663.645 570.308 650.837 562.17C639.708 555.108 621.66 548.117 597.335 553.182V550.828C620.305 539.771 641.42 537.631 660.11 544.55C673.881 549.62 681.335 558.045 682.03 558.831C682.059 558.864 682.076 558.883 682.081 558.889C682.937 559.887 684.079 560.387 685.291 560.387C686.219 560.387 687.146 560.101 687.931 559.459C689.643 558.033 689.928 555.465 688.502 553.681L688.499 553.679C688.111 553.212 679.694 543.111 663.463 536.989C649.553 531.781 627.082 528.571 597.406 541.768V538.63C624.3 524.22 644.916 521.652 657.613 522.08C671.269 522.57 678.875 526.497 679.284 526.709L679.299 526.717C681.225 527.787 683.793 527.073 684.863 525.147C685.934 523.221 685.291 520.724 683.294 519.583C681.939 518.798 651.122 502.035 597.335 529.356V525.932C640.35 495.044 661.18 499.395 661.608 499.538C663.748 500.108 666.031 498.824 666.602 496.684C667.244 494.473 665.96 492.19 663.748 491.62C662.821 491.334 641.206 485.841 597.335 515.874V512.877C602.471 504.103 611.674 496.399 619.734 490.835C627.836 485.248 634.844 481.78 635.267 481.57L635.285 481.561C637.354 480.563 638.21 478.137 637.212 476.068C636.213 474 633.787 473.144 631.719 474.142C630.649 474.642 610.675 484.415 597.264 499.252V493.474C603.827 479.493 615.882 473.215 616.096 473.144C618.094 472.145 618.95 469.72 617.951 467.651C616.952 465.654 614.456 464.798 612.458 465.796C611.959 466.01 604.397 469.862 597.264 478.351V462.301C597.264 460.018 595.409 458.163 593.126 458.163C590.844 458.163 588.989 460.018 588.989 462.301V478.351C581.927 469.862 574.294 466.01 573.866 465.796C571.868 464.798 569.372 465.654 568.373 467.651C567.374 469.648 568.159 472.145 570.228 473.144C570.231 473.147 570.268 473.168 570.335 473.205C571.55 473.878 582.769 480.087 588.989 493.474V499.252C575.759 484.692 556.277 475.009 554.61 474.18C554.578 474.164 554.553 474.152 554.534 474.142C552.465 473.144 550.04 474 549.041 476.068C548.042 478.137 548.898 480.563 550.967 481.561C550.971 481.563 550.978 481.566 550.988 481.572C551.888 482.016 578.555 495.182 588.989 512.877V515.874C545.118 485.841 523.503 491.334 522.576 491.62C520.436 492.19 519.08 494.473 519.722 496.684C520.293 498.824 522.504 500.108 524.716 499.538C524.93 499.466 545.76 494.83 588.989 525.932V529.356C535.131 502.035 504.385 518.798 503.03 519.583C501.033 520.653 500.391 523.15 501.461 525.147C502.531 527.073 505.027 527.787 507.025 526.717C507.03 526.717 507.07 526.697 507.146 526.66C508.169 526.164 515.626 522.545 528.711 522.08C541.48 521.652 562.096 524.22 588.918 538.63V541.768C559.242 528.571 536.771 531.71 522.861 536.989C506.63 543.111 498.213 553.212 497.825 553.679L497.822 553.681C496.396 555.465 496.681 558.033 498.393 559.459C499.178 560.101 500.105 560.387 501.033 560.387C502.245 560.387 503.458 559.887 504.243 558.889C504.245 558.887 504.253 558.877 504.268 558.859C504.766 558.29 512.298 549.673 526.214 544.55C544.904 537.702 566.019 539.771 588.989 550.828V553.182C564.592 548.046 546.473 555.037 535.345 562.099C522.59 570.132 516.1 579.906 515.669 580.555L515.656 580.575C514.444 582.429 514.943 584.997 516.869 586.21C517.511 586.638 518.296 586.852 519.08 586.852C520.364 586.852 521.72 586.21 522.504 584.997C522.508 584.994 522.529 584.964 522.568 584.91C523.234 583.964 529.119 575.619 539.982 568.804C554.391 559.816 570.87 557.319 588.918 561.528V566.736C574.508 564.881 559.884 568.876 546.402 578.435C535.801 585.929 529.482 594.319 528.595 595.497C528.545 595.564 528.512 595.607 528.497 595.626C527.141 597.41 527.569 599.978 529.424 601.333C530.209 601.833 530.993 602.118 531.849 602.118C533.133 602.118 534.417 601.547 535.202 600.406L535.209 600.396C535.705 599.73 557.595 570.333 588.989 575.01V585.925H573.866C570.87 585.925 568.444 588.35 568.444 591.346V599.407C568.444 605.328 573.295 610.179 579.216 610.179H579.43V657.403C579.43 664.893 585.565 671.028 593.055 671.028C600.545 671.028 606.68 664.964 606.68 657.403V610.179H606.894C612.815 610.179 617.666 605.399 617.666 599.407V591.346C617.666 588.35 615.24 585.925 612.244 585.925H597.121V575.082C599.404 574.725 601.687 574.582 603.898 574.582C631.603 574.582 650.439 599.849 650.901 600.468ZM680.298 634.789L684.792 630.295C709.189 605.827 722.671 573.37 722.671 538.772C722.671 467.366 664.676 409.299 593.269 409.299C521.862 409.299 463.796 467.366 463.796 538.772C463.796 555.536 467.006 571.943 473.14 587.137C479.275 602.403 488.335 616.385 499.963 628.512L506.169 634.932C506.311 635.075 506.454 635.217 506.668 635.36L510.805 639.498C513.231 641.923 516.512 643.278 520.008 643.278C523.503 643.278 526.785 641.923 529.21 639.498C534.275 634.433 534.275 626.158 529.21 621.093L522.932 614.816L518.724 610.393C500.105 591.061 489.833 565.594 489.833 538.772C489.833 481.775 536.201 435.407 593.198 435.407C650.195 435.407 696.562 481.775 696.562 538.772C696.562 566.379 685.862 592.345 666.316 611.891L655.402 622.805C650.337 627.87 650.337 636.145 655.402 641.21C657.899 643.706 661.323 644.99 664.604 644.99C667.886 644.99 671.238 643.778 673.807 641.21L680.155 634.932C680.183 634.905 680.21 634.888 680.233 634.874C680.271 634.85 680.298 634.833 680.298 634.789Z" fill="#032B27"/>
<path d="M715.79 537.626C715.79 570.012 703.163 600.473 680.265 623.371L675.699 627.937L675.557 628.079L669.351 634.286C667.496 636.14 664.428 636.14 662.502 634.286C660.648 632.431 660.648 629.363 662.502 627.437L673.417 616.523C694.461 595.479 706.088 567.444 706.088 537.626C706.088 476.064 656.011 426.058 594.52 426.058C533.029 426.058 482.952 476.135 482.952 537.626C482.952 566.588 494.009 594.052 514.125 614.954L518.405 619.376C518.405 619.376 518.477 619.376 518.477 619.448L524.754 625.797C526.609 627.651 526.609 630.719 524.754 632.645C522.899 634.5 519.832 634.5 517.906 632.645L513.34 628.079C513.198 627.937 513.055 627.794 512.912 627.723L507.134 621.731C485.306 599.046 473.25 569.156 473.25 537.698C473.25 470.856 527.607 416.499 594.449 416.499C661.29 416.499 715.79 470.785 715.79 537.626Z" fill="#032B27"/>
<path d="M609.481 594.129V599.408C609.481 600.834 608.269 601.976 606.913 601.976H579.164C577.737 601.976 576.596 600.763 576.596 599.408V594.129H609.481Z" fill="#032B27"/>
<path d="M598.394 610.25V657.473C598.394 660.47 595.968 662.895 592.972 662.895C589.976 662.895 587.551 660.47 587.551 657.473V610.25H598.394Z" fill="#032B27"/>
</g>
</g>
<path d="M843.735 519.698H845.545V549.203H766.261V547.755H780.018V421.226H766.261V419.778H811.515V421.226H797.758V547.755H824.185C836.856 547.755 843.554 535.446 843.735 519.698ZM896.625 461.411H925.225V541.6C925.225 545.221 925.949 547.755 930.112 547.755H936.81V549.203H921.062C911.468 549.203 908.029 543.772 908.029 533.093V529.834C901.693 545.402 891.194 551.013 879.248 551.013C861.146 551.013 854.811 543.591 854.811 521.508V462.859H843.407V461.411H872.007V529.653C872.007 542.324 874.179 548.479 883.773 548.479C892.461 548.479 902.236 541.781 908.029 526.214V462.859H896.625V461.411ZM949.256 471.91C944.912 464.851 942.739 462.859 938.033 462.859H935.68V461.411H976.589V462.859H965.004C965.366 464.851 966.09 467.023 967.357 469.014L986.002 498.7L1003.92 471.548C1005.01 469.738 1005.91 468.109 1005.91 466.661C1005.91 464.489 1004.1 462.859 1000.48 462.859H993.604V461.411H1021.48V462.859H1018.77C1013.33 462.859 1009.53 466.118 1005.73 471.91L987.088 500.329L1010.62 538.704C1015.33 546.126 1016.77 547.755 1021.48 547.755H1023.83V549.203H982.924V547.755H994.871C994.509 545.764 993.785 543.41 992.699 541.781L973.512 511.371L953.419 539.609C951.971 541.6 951.428 543.229 951.428 544.497C951.428 546.669 953.419 547.755 957.039 547.755H963.918V549.203H934.956V547.755H938.757C943.101 547.755 947.446 544.497 951.609 538.704L972.426 509.561L949.256 471.91ZM1019.32 505.217C1019.32 473.72 1033.44 459.601 1057.87 459.601C1079.59 459.601 1088.1 470.643 1088.1 486.753C1088.1 490.917 1087.2 495.623 1085.57 498.881H1037.96V505.217C1037.96 532.369 1042.67 548.117 1063.85 548.117C1076.88 548.117 1085.57 536.894 1085.57 527.481H1087.2C1087.2 537.799 1077.96 551.013 1058.42 551.013C1033.07 551.013 1019.32 537.618 1019.32 505.217ZM1057.69 461.049C1042.67 461.049 1038.5 474.444 1037.96 497.433H1065.84C1071.99 497.433 1073.62 493.27 1073.62 486.572C1073.62 472.091 1071.99 461.049 1057.69 461.049ZM1129.19 547.755V549.203H1089.19V547.755H1100.59V414.891H1089.19V413.443H1117.79V547.755H1129.19ZM1147.46 440.233C1142.21 440.233 1138.05 435.888 1138.05 430.639C1138.05 425.39 1142.21 421.045 1147.46 421.045C1152.89 421.045 1157.06 425.39 1157.06 430.639C1157.06 435.888 1152.89 440.233 1147.46 440.233ZM1167.74 547.755V549.203H1127.73V547.755H1139.14V462.859H1127.73V461.411H1156.33V547.755H1167.74ZM1236.96 467.566C1236.96 464.67 1234.79 462.859 1230.08 462.859H1224.29V461.411H1249.09V462.859H1246.56C1242.21 462.859 1239.86 465.937 1237.69 471.91L1209.09 549.203H1206.37L1174.69 469.919C1172.7 464.67 1170.89 462.859 1167.09 462.859H1163.83V461.411H1204.56V462.859H1191.35C1191.35 465.575 1191.53 468.109 1193.16 471.91L1215.78 528.024L1236.06 471.367C1236.6 469.919 1236.96 468.471 1236.96 467.566ZM1263.88 440.233C1258.63 440.233 1254.47 435.888 1254.47 430.639C1254.47 425.39 1258.63 421.045 1263.88 421.045C1269.31 421.045 1273.48 425.39 1273.48 430.639C1273.48 435.888 1269.31 440.233 1263.88 440.233ZM1284.16 547.755V549.203H1244.15V547.755H1255.56V462.859H1244.15V461.411H1272.75V547.755H1284.16ZM1324.6 547.755V549.203H1284.6V547.755H1296V462.859H1284.6V461.411H1312.11L1313.02 480.961C1319.35 465.394 1330.76 459.601 1342.7 459.601C1360.81 459.601 1367.32 467.023 1367.32 489.106V547.755H1378.73V549.203H1338.72V547.755H1350.13V480.961C1350.13 468.29 1347.77 462.135 1338.36 462.135C1329.67 462.135 1318.81 468.833 1313.2 484.762V547.755H1324.6ZM1451.41 557.53C1451.41 577.622 1430.77 590.836 1406.88 590.836C1390.04 590.836 1373.93 586.13 1373.93 575.269C1373.93 567.485 1381.9 562.598 1396.74 560.969L1399.64 560.788L1399.82 561.693L1398.19 562.055C1388.96 564.589 1386.79 569.476 1386.79 574.907C1386.79 583.414 1394.03 589.207 1408.33 589.207C1427.88 589.207 1442.54 579.251 1442.54 565.313C1442.54 558.073 1438.37 554.633 1426.61 554.633H1403.08C1390.95 554.633 1382.8 549.927 1382.8 540.152C1382.8 528.024 1394.57 520.965 1405.79 519.336C1388.23 516.439 1378.82 505.941 1378.82 489.287C1378.82 471.186 1390.22 459.601 1413.39 459.601C1418.46 459.601 1423.17 460.144 1427.15 461.411H1452.49V463.221H1432.04C1442.54 467.928 1447.79 477.522 1447.79 489.83C1447.79 508.475 1436.38 519.879 1414.3 519.879C1399.82 519.879 1388.41 526.395 1388.6 534.179C1388.6 539.066 1394.57 539.066 1399.09 539.066H1427.15C1444.35 539.066 1451.41 546.126 1451.41 557.53ZM1430.77 489.468C1430.77 469.195 1426.43 461.049 1413.21 461.049C1400.36 461.049 1396.02 469.195 1396.02 489.287C1396.02 511.19 1401.45 518.431 1414.12 518.431C1425.7 518.431 1430.77 511.19 1430.77 489.468Z" fill="#032B27"/>
<path d="M764.882 562.76V561.657H795.637C826.392 561.657 838.667 575.862 838.667 608.548C838.667 640.268 827.22 660.266 798.395 660.266H764.882V659.163H775.364V562.76H764.882ZM795.637 562.76H788.879V659.163H798.395C817.979 659.163 824.461 640.406 824.461 608.548C824.461 576.552 817.428 562.76 795.637 562.76ZM878.887 593.377H900.678V654.474C900.678 657.232 901.229 659.163 904.401 659.163H909.504V660.266H897.506C890.196 660.266 887.576 656.129 887.576 647.992V645.509C882.749 657.37 874.75 661.645 865.647 661.645C851.856 661.645 847.029 655.991 847.029 639.165V594.481H838.34V593.377H860.131V645.371C860.131 655.025 861.786 659.714 869.095 659.714C875.715 659.714 883.162 654.612 887.576 642.751V594.481H878.887V593.377ZM971.427 623.719C971.427 650.474 960.532 661.645 943.568 661.645C935.983 661.645 931.156 658.749 927.984 653.232V660.266H914.882V557.933H906.193V556.83H927.984V607.445C931.983 598.342 938.603 591.998 948.809 591.998C964.531 591.998 971.427 601.376 971.427 623.719ZM927.984 610.203V650.888C930.88 657.37 935.431 660.128 942.051 660.128C952.808 660.128 957.498 649.095 957.498 623.719C957.498 602.204 954.05 594.067 945.499 594.067C937.638 594.067 931.845 600.411 927.984 610.203ZM1021.81 660.266C1015.19 660.266 1012.7 657.232 1012.15 651.026C1009.12 656.956 1002.91 661.645 992.845 661.645C981.674 661.645 975.33 656.956 975.33 648.543C975.33 638.062 984.432 631.442 1001.95 629.097L1011.88 627.718V614.616C1011.88 601.376 1011.33 592.964 999.878 592.964C989.121 592.964 987.328 601.376 987.328 608.824C987.328 612.685 988.018 616.133 990.086 618.892L989.673 619.305C981.674 618.754 977.26 614.065 977.26 607.445C977.26 600.549 983.467 591.998 999.878 591.998C1018.36 591.998 1024.98 599.997 1024.98 617.926V654.474C1024.98 657.232 1025.53 659.163 1028.56 659.163H1033.67V660.266H1021.81ZM988.845 647.164C988.845 654.336 991.19 658.887 998.499 658.887C1004.84 658.887 1009.26 655.301 1011.88 648.957V628.821L1002.22 630.339C991.741 631.994 988.845 639.303 988.845 647.164ZM1047.54 577.241C1043.54 577.241 1040.37 573.931 1040.37 569.932C1040.37 565.932 1043.54 562.622 1047.54 562.622C1051.67 562.622 1054.85 565.932 1054.85 569.932C1054.85 573.931 1051.67 577.241 1047.54 577.241ZM1062.98 659.163V660.266H1032.5V659.163H1041.19V594.481H1032.5V593.377H1054.29V659.163H1062.98Z" fill="#032B27"/>
<defs>
<clipPath id="clip0_233_399">
<rect x="462" y="409" width="262.469" height="262.469" rx="131.235" fill="white"/>
</clipPath>
<clipPath id="clip1_233_399">
<rect width="299.965" height="299.965" fill="white" transform="translate(443.252 390.252)"/>
</clipPath>
</defs>
</svg>
