<svg width="1440" height="130" viewBox="0 0 1440 130" fill="none" xmlns="http://www.w3.org/2000/svg">
<path d="M93.4588 59.3995C93.4588 58.1106 94.5287 57.6149 96.3007 57.6149C98.8416 57.6149 102.051 58.375 104.592 59.73V51.9636C101.817 50.873 99.0757 50.4434 96.3007 50.4434C89.5136 50.4434 85 53.9465 85 59.7961C85 68.9175 97.7049 67.4634 97.7049 71.3962C97.7049 72.9164 96.3675 73.4121 94.4952 73.4121C91.7202 73.4121 88.1762 72.2885 85.3678 70.7682V78.6338C88.4771 79.9557 91.6199 80.5176 94.4952 80.5176C101.449 80.5176 106.231 77.1136 106.231 71.1979C106.197 61.3494 93.4588 63.101 93.4588 59.3995ZM116.06 43.8336L107.902 45.5522L107.869 72.0241C107.869 76.9153 111.58 80.5176 116.528 80.5176C119.27 80.5176 121.276 80.0218 122.379 79.427V72.7181C121.309 73.1477 116.027 74.668 116.027 69.7768V58.0445H122.379V51.0052H116.027L116.06 43.8336ZM132.777 53.4508L132.242 51.0052H125.02V79.9227H133.379V60.3249C135.351 57.7801 138.695 58.2428 139.731 58.6064V51.0052C138.661 50.6086 134.75 49.8815 132.777 53.4508ZM141.771 51.0052H150.163V79.9227H141.771V51.0052ZM141.771 48.4935L150.163 46.7089V40L141.771 41.7516V48.4935ZM167.615 50.4434C164.339 50.4434 162.232 51.9636 161.062 53.0211L160.627 50.9721H153.272V89.5068L161.631 87.7552L161.664 78.4024C162.868 79.2617 164.64 80.4845 167.582 80.4845C173.566 80.4845 179.016 75.7255 179.016 65.2491C178.983 55.665 173.466 50.4434 167.615 50.4434ZM165.609 73.2138C163.637 73.2138 162.466 72.5198 161.664 71.6605L161.631 59.3995C162.5 58.4411 163.703 57.7801 165.609 57.7801C168.652 57.7801 170.758 61.1511 170.758 65.4805C170.758 69.909 168.685 73.2138 165.609 73.2138ZM205.362 65.5796C205.362 57.1192 201.216 50.4434 193.292 50.4434C185.335 50.4434 180.521 57.1192 180.521 65.5135C180.521 75.4611 186.204 80.4845 194.362 80.4845C198.341 80.4845 201.35 79.5922 203.623 78.3363V71.7266C201.35 72.8503 198.742 73.5443 195.432 73.5443C192.189 73.5443 189.314 72.4207 188.946 68.5209H205.295C205.295 68.0913 205.362 66.3728 205.362 65.5796ZM188.846 62.44C188.846 58.7055 191.153 57.1522 193.259 57.1522C195.298 57.1522 197.472 58.7055 197.472 62.44H188.846Z" fill="#4F4F4F"/>
<path d="M398.821 55.7907H383.367V60.5125H394.327C393.786 67.1342 388.436 69.9578 383.386 69.9578C376.925 69.9578 371.287 64.7234 371.287 57.3865C371.287 50.2395 376.662 44.735 383.4 44.735C388.599 44.735 391.662 48.148 391.662 48.148L394.874 44.7245C394.874 44.7245 390.752 40 383.236 40C373.665 40 366.261 48.3179 366.261 57.3021C366.261 66.1063 373.225 74.6903 383.48 74.6903C392.499 74.6903 399.101 68.3285 399.101 58.9215C399.101 56.9365 398.82 55.7896 398.82 55.7896L398.821 55.7907Z" fill="#4F4F4F"/>
<path d="M411.479 52.0145C405.138 52.0145 400.594 57.2012 400.594 63.2499C400.594 69.3881 405.002 74.6708 411.554 74.6708C417.485 74.6708 422.345 69.9279 422.345 63.3815C422.345 55.8787 416.692 52.0145 411.479 52.0145ZM411.542 56.4643C414.661 56.4643 417.616 59.1016 417.616 63.3519C417.616 67.5119 414.673 70.2243 411.528 70.2243C408.072 70.2243 405.346 67.3289 405.346 63.3189C405.346 59.3947 408.039 56.4643 411.542 56.4643Z" fill="#4F4F4F"/>
<path d="M435.154 52.0145C428.813 52.0145 424.269 57.2012 424.269 63.2499C424.269 69.3881 428.676 74.6708 435.229 74.6708C441.16 74.6708 446.019 69.9279 446.019 63.3815C446.019 55.8787 440.367 52.0145 435.154 52.0145ZM435.217 56.4643C438.335 56.4643 441.29 59.1016 441.29 63.3519C441.29 67.5119 438.348 70.2243 435.203 70.2243C431.747 70.2243 429.021 67.3289 429.021 63.3189C429.021 59.3947 431.713 56.4643 435.217 56.4643Z" fill="#4F4F4F"/>
<path d="M458.375 52.0268C452.554 52.0268 447.979 57.2871 447.979 63.1913C447.979 69.9163 453.283 74.3761 458.274 74.3761C461.36 74.3761 463.001 73.1122 464.213 71.6609V73.8644C464.213 77.7188 461.945 80.0272 458.521 80.0272C455.213 80.0272 453.555 77.49 452.978 76.0498L448.816 77.845C450.293 81.066 453.265 84.4253 458.555 84.4253C464.342 84.4253 468.753 80.664 468.753 72.7757V52.6987H464.213V54.5912C462.817 53.0393 460.908 52.0272 458.375 52.0272V52.0268ZM458.796 56.4066C461.65 56.4066 464.58 58.9211 464.58 63.2148C464.58 67.5792 461.656 69.9844 458.733 69.9844C455.63 69.9844 452.743 67.3843 452.743 63.2563C452.743 58.9669 455.741 56.4066 458.796 56.4066Z" fill="#4F4F4F"/>
<path d="M488.938 52.0001C483.448 52.0001 478.838 56.5702 478.838 63.3126C478.838 70.4481 483.976 74.6798 489.466 74.6798C494.047 74.6798 496.859 72.0576 498.536 69.7081L494.793 67.1028C493.822 68.6799 492.198 70.2208 489.488 70.2208C486.444 70.2208 485.045 68.4769 484.177 66.7881L498.696 60.4855L497.943 58.6385C496.54 55.0215 493.268 52.0012 488.938 52.0012L488.938 52.0001ZM489.127 56.3569C491.105 56.3569 492.529 57.4569 493.134 58.7766L483.438 63.0163C483.02 59.7336 485.992 56.3569 489.127 56.3569Z" fill="#4F4F4F"/>
<path d="M471.916 74.0367H476.685V41.1201H471.916V74.0367Z" fill="#4F4F4F"/>
<path d="M670.749 40C657.521 40 646.798 50.6336 646.798 63.7506C646.798 76.869 657.521 87.5021 670.749 87.5021C683.977 87.5021 694.7 76.869 694.7 63.7506C694.7 50.6345 683.977 40.0012 670.749 40.0012L670.749 40ZM681.733 74.2552C681.302 74.9548 680.383 75.1742 679.68 74.7479C674.056 71.3389 666.976 70.569 658.639 72.4576C657.836 72.6404 657.035 72.1409 656.852 71.3445C656.668 70.5478 657.17 69.7536 657.975 69.572C667.099 67.5038 674.924 68.3941 681.237 72.2196C681.941 72.6477 682.164 73.558 681.732 74.2557L681.733 74.2552ZM684.664 67.7891C684.122 68.6607 682.973 68.934 682.095 68.399C675.659 64.4754 665.844 63.3388 658.229 65.631C657.242 65.9267 656.199 65.3749 655.899 64.3973C655.601 63.4179 656.158 62.3857 657.144 62.0877C665.842 59.4707 676.656 60.7383 684.049 65.2437C684.927 65.7794 685.204 66.9197 684.664 67.7894L684.664 67.7891H684.664ZM684.916 61.0548C677.195 56.5083 664.461 56.09 657.091 58.3083C655.907 58.6642 654.656 58.0018 654.297 56.8281C653.938 55.654 654.606 54.4137 655.79 54.0569C664.25 51.5099 678.315 52.0022 687.202 57.234C688.267 57.8603 688.616 59.2238 687.985 60.2779C687.356 61.3335 685.977 61.6816 684.916 61.0548H684.916ZM711.96 61.9261C707.825 60.9482 707.089 60.2619 707.089 58.8198C707.089 57.4572 708.383 56.5401 710.306 56.5401C712.171 56.5401 714.02 57.2366 715.959 58.6701C716.017 58.7134 716.091 58.7307 716.163 58.7192C716.235 58.7085 716.299 58.669 716.342 58.6099L718.361 55.7872C718.444 55.6708 718.421 55.5106 718.309 55.422C716.002 53.5862 713.404 52.6936 710.367 52.6936C705.902 52.6936 702.783 55.3507 702.783 59.1528C702.783 63.2297 705.474 64.6733 710.123 65.7876C714.08 66.6914 714.748 67.4488 714.748 68.8026C714.748 70.3024 713.398 71.235 711.224 71.235C708.81 71.235 706.842 70.4288 704.639 68.5372C704.584 68.4904 704.509 68.4693 704.44 68.4732C704.367 68.4791 704.301 68.5123 704.254 68.5679L701.99 71.2399C701.895 71.3506 701.907 71.5162 702.017 71.6121C704.58 73.8807 707.732 75.0789 711.133 75.0789C715.944 75.0789 719.053 72.4722 719.053 68.4371C719.062 65.0309 717.006 63.1447 711.969 61.9297L711.96 61.9261ZM729.939 57.8817C727.853 57.8817 726.143 58.6964 724.732 60.3653V58.4867C724.732 58.3382 724.611 58.2177 724.461 58.2177H720.759C720.609 58.2177 720.488 58.3382 720.488 58.4867V79.3613C720.488 79.5098 720.609 79.6306 720.759 79.6306H724.461C724.611 79.6306 724.732 79.5098 724.732 79.3613V72.7721C726.143 74.3423 727.854 75.1094 729.939 75.1094C733.814 75.1094 737.737 72.1513 737.737 66.4966C737.742 60.8406 733.818 57.8815 729.943 57.8815L729.939 57.8817ZM733.431 66.4966C733.431 69.3761 731.642 71.3854 729.081 71.3854C726.549 71.3854 724.639 69.2849 724.639 66.4966C724.639 63.7085 726.549 61.6076 729.081 61.6076C731.601 61.6074 733.431 63.663 733.431 66.4962L733.431 66.4966ZM747.791 57.8817C742.801 57.8817 738.891 61.6924 738.891 66.558C738.891 71.3708 742.774 75.1416 747.73 75.1416C752.738 75.1416 756.66 71.3436 756.66 66.4966C756.66 61.6663 752.765 57.8822 747.791 57.8822L747.791 57.8817ZM747.791 71.4142C745.137 71.4142 743.136 69.2992 743.136 66.4952C743.136 63.6791 745.068 61.6356 747.73 61.6356C750.402 61.6356 752.416 63.7506 752.416 66.5568C752.416 69.3723 750.471 71.4142 747.791 71.4142H747.791ZM767.317 58.2177H763.242V54.0863C763.242 53.9385 763.121 53.8175 762.972 53.8175H759.269C759.12 53.8175 758.998 53.9385 758.998 54.0863V58.2177H757.218C757.069 58.2177 756.948 58.3382 756.948 58.4867V61.6424C756.948 61.7904 757.069 61.9116 757.218 61.9116H758.998V70.0773C758.998 73.3771 760.654 75.0502 763.921 75.0502C765.249 75.0502 766.351 74.7781 767.389 74.1943C767.474 74.1476 767.526 74.0572 767.526 73.9613V70.9562C767.526 70.8636 767.478 70.7759 767.397 70.7272C767.317 70.6771 767.216 70.6746 767.134 70.7151C766.42 71.071 765.731 71.2353 764.96 71.2353C763.772 71.2353 763.242 70.7004 763.242 69.5015V61.9132H767.317C767.466 61.9132 767.587 61.7922 767.587 61.644V58.4885C767.592 58.3401 767.472 58.2191 767.321 58.2191L767.317 58.2177ZM781.514 58.2338V57.7264C781.514 56.2337 782.091 55.5679 783.386 55.5679C784.158 55.5679 784.778 55.72 785.472 55.9498C785.558 55.9763 785.647 55.9631 785.716 55.9123C785.788 55.8614 785.828 55.7801 785.828 55.6939V52.5999C785.828 52.4815 785.752 52.3768 785.637 52.3417C784.903 52.1254 783.964 51.9033 782.559 51.9033C779.139 51.9033 777.331 53.8133 777.331 57.4246V58.2017H775.552C775.403 58.2017 775.28 58.3224 775.28 58.4704V61.6424C775.28 61.7904 775.403 61.9116 775.552 61.9116H777.331V74.5068C777.331 74.6551 777.452 74.7758 777.601 74.7758H781.304C781.453 74.7758 781.575 74.6551 781.575 74.5068V61.9125H785.033L790.329 74.5045C789.727 75.8276 789.136 76.0907 788.329 76.0907C787.677 76.0907 786.99 75.8976 786.287 75.5165C786.221 75.4804 786.143 75.4743 786.072 75.4963C786.001 75.521 785.941 75.5731 785.911 75.6413L784.656 78.3715C784.597 78.5008 784.648 78.6522 784.773 78.7192C786.083 79.4226 787.266 79.7228 788.728 79.7228C791.462 79.7228 792.973 78.4601 794.305 75.0624L800.729 58.6013C800.762 58.5184 800.752 58.4249 800.701 58.3513C800.65 58.2785 800.568 58.2345 800.478 58.2345H796.623C796.508 58.2345 796.404 58.3073 796.367 58.4149L792.418 69.6003L788.093 58.4077C788.053 58.3034 787.952 58.2345 787.84 58.2345H781.513L781.514 58.2338ZM773.283 58.2177H769.58C769.43 58.2177 769.309 58.3382 769.309 58.4867V74.5068C769.309 74.6551 769.43 74.7758 769.58 74.7758H773.283C773.432 74.7758 773.554 74.6551 773.554 74.5068V58.488C773.554 58.4164 773.526 58.3478 773.475 58.2971C773.424 58.2467 773.355 58.2184 773.283 58.2186L773.283 58.2177ZM771.452 50.9232C769.986 50.9232 768.795 52.1007 768.795 53.5556C768.795 55.0111 769.986 56.1901 771.452 56.1901C772.919 56.1901 774.108 55.0111 774.108 53.5556C774.108 52.101 772.918 50.9232 771.454 50.9232H771.452ZM803.891 63.3682C802.426 63.3682 801.285 62.2012 801.285 60.784C801.285 59.3667 802.441 58.1864 803.905 58.1864C805.37 58.1864 806.511 59.3531 806.511 60.7692C806.511 62.1865 805.355 63.3682 803.891 63.3682H803.891ZM803.905 58.4434C802.571 58.4434 801.561 59.4956 801.561 60.784C801.561 62.0718 802.564 63.1099 803.892 63.1099C805.227 63.1099 806.238 62.0585 806.238 60.7692C806.238 59.4814 805.234 58.4434 803.907 58.4434H803.905H803.905ZM804.483 61.0348L805.22 62.0582H804.599L803.935 61.1195H803.365V62.0582H802.844V59.3458H804.064C804.7 59.3458 805.118 59.6683 805.118 60.211C805.12 60.6557 804.86 60.9275 804.486 61.0351H804.483V61.0348ZM804.043 59.8113H803.364V60.6691H804.043C804.381 60.6691 804.584 60.5049 804.584 60.2397C804.584 59.9608 804.381 59.8113 804.043 59.8113H804.043Z" fill="#4F4F4F"/>
<path d="M1005.27 55.546C1008.18 52.4766 1013.11 52.3167 1016.11 53.9484C1016.96 54.4133 1017.76 54.9656 1018.36 55.7252C1018.74 56.2049 1018.91 56.0894 1019.29 55.7385C1022.41 52.8808 1026.07 52.176 1029.99 53.5367C1033.13 54.625 1034.51 57.2384 1035.01 60.3804C1035.12 61.2103 1035.17 62.048 1035.16 62.8857C1035.16 68.1629 1035.14 73.4401 1035.17 78.7172C1035.17 79.2754 1035.03 79.4101 1034.48 79.3983C1032.58 79.3613 1030.68 79.3583 1028.78 79.3983C1028.13 79.4116 1027.92 79.2769 1027.92 78.5691C1027.96 73.7614 1027.94 68.9536 1027.94 64.1443C1027.96 63.5528 1027.91 62.9613 1027.79 62.3808C1027.39 60.604 1026.31 59.5291 1024.78 59.3869C1022.84 59.2048 1021.23 60.1065 1020.53 61.7723C1020.33 62.2488 1020.23 62.7613 1020.23 63.2781C1020.24 68.4072 1020.23 73.5363 1020.25 78.6654C1020.25 79.2236 1020.14 79.4057 1019.54 79.3983C1017.57 79.3568 1015.59 79.3642 1013.61 79.3983C1013.09 79.4072 1012.96 79.2502 1012.97 78.7409C1012.99 73.9583 1012.98 69.1742 1012.97 64.3901C1013 63.7247 1012.95 63.0587 1012.83 62.403C1012.52 60.9105 1011.79 59.7556 1010.22 59.4417C1008.59 59.1218 1007.13 59.5438 1006.08 60.9224C1005.54 61.6023 1005.25 62.4475 1005.26 63.3152C1005.28 68.4442 1005.26 73.5733 1005.28 78.7024C1005.28 79.2399 1005.18 79.4087 1004.61 79.3968C1002.63 79.3568 1000.66 79.3657 998.683 79.3968C998.207 79.3968 998.059 79.2858 998.059 78.7898C998.075 70.5542 998.075 62.3181 998.059 54.0816C998.059 53.5915 998.207 53.4657 998.683 53.4731C1000.68 53.4997 1002.68 53.5027 1004.68 53.4731C1005.18 53.4642 1005.31 53.6315 1005.27 54.0964C1005.24 54.5318 1005.27 54.976 1005.27 55.546Z" fill="#4F4F4F"/>
<path d="M956.683 54.6206C956.761 53.4938 956.761 53.4938 957.892 53.4938C959.669 53.4938 961.446 53.5071 963.223 53.4849C963.674 53.4849 963.864 53.5574 963.864 54.0772C963.846 62.3364 963.846 70.5957 963.864 78.8549C963.864 79.4161 963.652 79.4886 963.175 79.4827C961.326 79.459 959.474 79.4309 957.627 79.4931C956.865 79.5197 956.591 79.3006 956.721 78.5617C956.726 78.4419 956.715 78.3219 956.689 78.2049C949.49 81.5601 942.918 78.2049 940.155 74.2159C936.779 69.3445 936.963 62.5733 940.669 57.9639C943.974 53.8491 950.328 51.5097 956.683 54.6206ZM950.741 60.2338C947.314 60.2087 944.614 62.8991 944.6 66.358C944.587 69.8376 947.234 72.5457 950.664 72.5605C954.019 72.5753 956.674 69.916 956.706 66.506C956.74 62.982 954.149 60.259 950.741 60.2338Z" fill="#4F4F4F"/>
<path d="M985.372 77.038C984.059 78.3885 982.381 79.3274 980.542 79.7402C976.841 80.5902 972.991 79.3108 971.013 76.5405C969.89 74.9553 969.293 73.0577 969.307 71.1153C969.255 65.3954 969.286 59.6741 969.271 53.9542C969.271 53.5544 969.394 53.4626 969.775 53.4656C971.821 53.4833 973.869 53.4996 975.915 53.4581C976.542 53.4448 976.496 53.7676 976.494 54.1852C976.488 59.022 976.488 63.855 976.494 68.684C976.479 69.2013 976.512 69.7189 976.595 70.2298C977.058 72.5782 978.718 73.7479 981.169 73.4873C983.584 73.2371 985.292 71.4914 985.292 69.2718C985.292 64.2375 985.303 59.2121 985.279 54.1807C985.279 53.5988 985.427 53.4404 986.008 53.4537C987.955 53.4907 989.905 53.4863 991.853 53.4537C992.375 53.4448 992.564 53.5351 992.563 54.1215C992.541 62.3334 992.541 70.5447 992.563 78.7556C992.563 79.2161 992.477 79.3878 991.97 79.379C989.973 79.3479 987.972 79.3508 985.977 79.379C985.491 79.379 985.331 79.2531 985.369 78.7674C985.405 78.2699 985.372 77.7532 985.372 77.038Z" fill="#4F4F4F"/>
<path d="M1047.62 55.8228C1051.04 52.3817 1056.03 52.3358 1059.17 53.9098C1061.76 55.2083 1063.07 57.419 1063.58 60.1819C1063.71 60.9593 1063.78 61.7475 1063.76 62.5362C1063.76 67.9111 1063.75 73.286 1063.77 78.6608C1063.77 79.2161 1063.67 79.4101 1063.06 79.4012C1061.12 79.3582 1059.17 79.3656 1057.22 79.4012C1056.7 79.4101 1056.57 79.2665 1056.57 78.7512C1056.59 73.8945 1056.59 69.0364 1056.58 64.1798C1056.58 63.3121 1056.5 62.4563 1056.14 61.6552C1055.27 59.7614 1053.12 58.9678 1050.86 59.6193C1049.22 60.0931 1047.56 61.864 1047.6 64.0258C1047.7 68.9047 1047.63 73.7879 1047.65 78.6697C1047.65 79.2279 1047.54 79.4175 1046.94 79.4101C1044.97 79.3671 1042.99 79.379 1041.01 79.4101C1040.55 79.4101 1040.44 79.2827 1040.45 78.8341C1040.46 70.5748 1040.46 62.3151 1040.45 54.0549C1040.45 53.5885 1040.59 53.4819 1041.03 53.4878C1043.05 53.5115 1045.08 53.5085 1047.1 53.4878C1047.51 53.4878 1047.67 53.5929 1047.64 54.0194C1047.59 54.5613 1047.62 55.1239 1047.62 55.8228Z" fill="#4F4F4F"/>
<path d="M1069.05 66.3772C1069.05 62.3601 1069.07 58.3415 1069.03 54.3229C1069.02 53.5826 1069.24 53.4464 1069.92 53.4656C1071.77 53.516 1073.62 53.5071 1075.46 53.4656C1076.06 53.4523 1076.26 53.5693 1076.25 54.206C1076.23 62.3665 1076.23 70.526 1076.25 78.6846C1076.25 79.2162 1076.16 79.4027 1075.57 79.3908C1073.65 79.3484 1071.73 79.3484 1069.8 79.3908C1069.21 79.4027 1069.02 79.2857 1069.02 78.6505C1069.07 74.5594 1069.05 70.4668 1069.05 66.3772Z" fill="#4F4F4F"/>
<path d="M1068.76 43.9078C1068.78 41.7001 1070.57 39.9751 1072.81 40.0003C1073.86 40.0176 1074.87 40.453 1075.6 41.2108C1076.34 41.9686 1076.74 42.9866 1076.72 44.041C1076.7 45.0954 1076.27 46.0998 1075.51 46.8331C1074.75 47.5665 1073.73 47.9688 1072.68 47.9515C1070.44 47.9115 1068.75 46.1673 1068.76 43.9078Z" fill="#4F4F4F"/>
<path d="M1297.76 73.625H1291.53V72.5359C1291.53 69.7373 1291.54 66.9346 1291.53 64.1381C1291.52 63.5879 1291.46 63.0394 1291.35 62.4992C1291.14 61.3561 1290.54 60.4951 1289.28 60.3209C1288 60.1425 1286.75 60.5284 1286.24 61.6839C1285.66 62.9992 1285.31 64.4023 1285.21 65.833C1285.05 68.3785 1285.17 70.9406 1285.17 73.5877H1278.91C1278.91 72.8948 1278.91 72.2122 1278.91 71.5297C1278.89 68.7664 1278.92 66.001 1278.84 63.2315C1278.78 61.3893 1277.85 60.3271 1276.38 60.2669C1275.14 60.2192 1274.03 60.7047 1273.52 61.8415C1273.05 62.8323 1272.76 63.9004 1272.68 64.9928C1272.56 67.8183 1272.64 70.6543 1272.64 73.5773H1266.45V55.6283H1271.99V58.5949L1272.2 58.767C1273.66 56.3896 1275.82 55.2652 1278.52 55.1553C1281.29 55.0453 1283.45 56.0369 1284.75 58.6177C1286.98 55.3814 1290.06 54.7362 1293.62 55.3938C1295.54 55.7506 1296.71 56.956 1297.28 58.7131C1297.55 59.4634 1297.7 60.2485 1297.74 61.0428C1297.78 65.2044 1297.76 69.3514 1297.76 73.625Z" fill="#4F4F4F"/>
<path d="M1308.14 81H1301.91V55.568C1303.66 55.568 1305.41 55.5473 1307.14 55.6012C1307.32 55.6012 1307.6 56.0618 1307.62 56.3252C1307.69 57.07 1307.64 57.8252 1307.75 58.6405C1308.86 56.931 1310.4 55.9435 1312.34 55.4249C1315.68 54.5432 1318.92 55.6863 1320.82 58.5097C1323.41 62.3518 1322.92 68.4676 1320.03 71.6811C1317.35 74.6705 1310.95 75.2078 1308.14 71.3637V81ZM1316.23 64.6401C1315.93 63.6463 1315.79 62.6278 1315.33 61.7668C1314.02 59.2442 1310.44 59.1819 1308.95 61.6153C1307.78 63.5239 1307.81 65.5031 1308.86 67.4241C1309.53 68.6522 1310.62 69.3866 1312.1 69.3721C1313.52 69.3576 1314.65 68.7394 1315.27 67.505C1315.72 66.6379 1315.91 65.6421 1316.23 64.6401Z" fill="#4F4F4F"/>
<path d="M1224.48 50.2469L1223.98 55.1303C1222.55 54.6843 1221.23 54.1429 1219.85 53.869C1217.21 53.3462 1214.65 53.5827 1212.48 55.3461C1209.94 57.3999 1209.01 61.1735 1210.17 64.4264C1210.69 65.8896 1211.67 67.1528 1212.97 68.0352C1214.27 68.9176 1215.82 69.374 1217.4 69.339C1219.16 69.3162 1220.93 68.8867 1222.69 68.6129C1223.2 68.506 1223.7 68.373 1224.2 68.2145C1224.31 69.7435 1224.43 71.177 1224.47 72.6126C1224.47 72.82 1224.14 73.2018 1223.9 73.2619C1219.23 74.4444 1214.58 74.5606 1210.06 72.6396C1205.71 70.7974 1203.46 67.4159 1203.07 62.8498C1202.77 59.4122 1203.42 56.1801 1205.74 53.4292C1207.82 50.9501 1210.62 49.7863 1213.75 49.2615C1217.36 48.6661 1220.87 49.1266 1224.48 50.2469Z" fill="#4F4F4F"/>
<path d="M1252.91 74.1521C1249.08 73.9654 1246.07 73.202 1243.81 70.6876C1240.09 66.5385 1240.66 57.3503 1249.2 55.5081C1252.41 54.8152 1255.58 54.9853 1258.51 56.5993C1262.07 58.566 1263.36 61.7857 1263.07 65.5967C1262.75 69.5902 1260.41 72.1937 1256.58 73.4343C1255.24 73.872 1253.78 73.9903 1252.91 74.1521ZM1247.99 64.4017C1248.22 65.439 1248.33 66.3684 1248.63 67.2335C1249.23 68.9118 1250.66 69.8204 1252.43 69.7976C1253.24 69.7923 1254.04 69.5393 1254.7 69.0735C1255.36 68.6076 1255.86 67.9518 1256.13 67.1961C1256.81 65.4324 1256.76 63.4762 1255.99 61.7483C1255.36 60.2775 1254.1 59.4891 1252.53 59.4373C1250.88 59.3833 1249.46 59.9974 1248.79 61.6094C1248.43 62.5201 1248.27 63.5138 1248 64.41L1247.99 64.4017Z" fill="#4F4F4F"/>
<path d="M1352.32 74.1665C1348.06 73.959 1344.91 73.1831 1342.64 70.4323C1339.24 66.3143 1339.82 57.622 1347.74 55.6449C1351.52 54.7031 1355.16 54.9582 1358.44 57.1946C1361.34 59.1737 1362.34 62.0988 1362.1 65.4243C1361.84 69.0216 1360.07 71.7372 1356.58 73.0691C1354.97 73.6811 1353.22 73.9424 1352.32 74.1665ZM1347.08 64.3476C1347.29 65.3497 1347.37 66.25 1347.64 67.0923C1348.21 68.8328 1349.65 69.812 1351.45 69.8058C1352.28 69.8138 1353.1 69.5621 1353.77 69.087C1354.45 68.6118 1354.96 67.9375 1355.23 67.1607C1355.83 65.4849 1355.82 63.653 1355.18 61.9889C1354.57 60.3914 1353.3 59.4994 1351.57 59.4351C1349.88 59.3687 1348.46 60.1882 1347.8 61.7524C1347.45 62.5967 1347.3 63.524 1347.08 64.3476Z" fill="#4F4F4F"/>
<path d="M1371.71 73.6167H1365.47C1365.45 73.2598 1365.4 72.8989 1365.4 72.5358C1365.4 67.2478 1365.43 61.9556 1365.38 56.6738C1365.38 55.7216 1365.69 55.4975 1366.59 55.5349C1368.05 55.5992 1369.53 55.5535 1371.1 55.5535V58.6363C1372.12 57.2816 1373.31 56.2734 1374.85 55.6946C1380.09 53.7342 1384.43 56.4062 1384.98 61.9183C1385 62.1921 1385 62.4701 1385 62.7481C1385 66.3371 1385 69.9281 1385 73.5959H1378.75C1378.75 73.181 1378.75 72.7848 1378.75 72.3844C1378.69 69.3452 1378.73 66.3038 1378.54 63.2729C1378.42 61.383 1377.42 60.4059 1375.93 60.2441C1375.12 60.1577 1374.3 60.3532 1373.62 60.7967C1372.93 61.2402 1372.43 61.9039 1372.19 62.6734C1371.9 63.5571 1371.74 64.4784 1371.72 65.4076C1371.67 68.1066 1371.71 70.8015 1371.71 73.6167Z" fill="#4F4F4F"/>
<path d="M1324.12 59.8231C1324.12 58.4746 1324.08 57.3046 1324.16 56.1407C1324.17 55.9333 1324.63 55.6014 1324.91 55.5806C1325.84 55.5101 1326.79 55.5536 1327.86 55.5536C1327.86 54.4271 1327.91 53.4003 1327.85 52.3796C1327.81 51.7033 1328.06 51.4129 1328.71 51.2303C1330.45 50.7386 1332.18 50.1722 1334.05 49.5914V55.5122H1338.49V59.8231C1337.39 59.8231 1336.28 59.8604 1335.17 59.8106C1334.38 59.7754 1334.04 59.9724 1334.07 60.8479C1334.14 62.8478 1334.07 64.8539 1334.11 66.8641C1334.16 69.5506 1335.18 70.3701 1337.92 69.9552C1338.09 69.9282 1338.26 69.9137 1338.61 69.8701V73.7827C1336.13 74.1977 1333.51 74.4736 1330.96 73.5608C1328.71 72.7538 1327.95 70.8639 1327.88 68.7001C1327.79 66.1131 1327.81 63.5137 1327.86 60.9288C1327.88 60.0451 1327.56 59.7691 1326.7 59.8272C1325.9 59.8666 1325.09 59.8231 1324.12 59.8231Z" fill="#4F4F4F"/>
<path d="M1233.62 73.6251C1233.23 73.65 1232.98 73.6791 1232.75 73.6791C1230.99 73.6791 1229.24 73.6791 1227.41 73.6791V55.5703C1229.14 55.5703 1230.88 55.5516 1232.62 55.6055C1232.78 55.6055 1233.04 56.091 1233.06 56.3649C1233.12 57.0972 1233.08 57.8378 1233.2 58.6344C1234.87 55.6139 1237.37 54.6388 1240.78 55.4043C1240.68 57.0474 1240.58 58.6801 1240.48 60.3957C1240.01 60.3646 1239.64 60.3584 1239.26 60.3107C1236.3 59.9393 1234.08 61.4931 1233.8 64.4182C1233.56 66.8828 1233.66 69.3785 1233.62 71.8618C1233.61 72.4136 1233.62 72.9634 1233.62 73.6251Z" fill="#4F4F4F"/>
</svg>
