<svg width="1176" height="26" viewBox="0 0 1176 26" fill="none" xmlns="http://www.w3.org/2000/svg">
<path d="M430.5 13H330.5" stroke="url(#paint0_linear_349_2681)" stroke-width="3" stroke-linecap="round"/>
<path d="M470.601 12.12C470.729 11.352 470.793 10.536 470.793 9.672C470.793 8.808 470.721 7.984 470.577 7.2C470.433 6.4 470.201 5.64 469.881 4.92C469.561 4.2 469.161 3.576 468.681 3.048C468.201 2.504 467.601 2.08 466.881 1.776C466.161 1.456 465.361 1.296 464.481 1.296C463.361 1.296 462.385 1.536 461.553 2.016C460.721 2.48 460.073 3.12 459.609 3.936C459.161 4.736 458.825 5.616 458.601 6.576C458.393 7.52 458.289 8.536 458.289 9.624C458.289 10.728 458.401 11.76 458.625 12.72C458.865 13.68 459.225 14.568 459.705 15.384C460.185 16.184 460.841 16.824 461.673 17.304C462.521 17.768 463.505 18 464.625 18C465.521 18 466.321 17.84 467.025 17.52C467.745 17.2 468.337 16.776 468.801 16.248C469.265 15.72 469.649 15.096 469.953 14.376C470.257 13.64 470.473 12.888 470.601 12.12ZM473.601 9.504C473.601 12.064 472.785 14.16 471.153 15.792C469.537 17.424 467.361 18.24 464.625 18.24C461.905 18.24 459.697 17.416 458.001 15.768C456.321 14.12 455.481 12.024 455.481 9.48C455.481 6.936 456.289 4.896 457.905 3.36C459.537 1.824 461.729 1.056 464.481 1.056C467.217 1.056 469.417 1.832 471.081 3.384C472.761 4.92 473.601 6.96 473.601 9.504ZM487.835 1.296C487.627 1.36 487.459 1.448 487.331 1.56C487.107 1.72 486.947 1.904 486.851 2.112C486.691 2.448 486.579 3.2 486.515 4.368C486.499 4.96 486.491 5.704 486.491 6.6V11.784C486.491 13.608 486.867 15.088 487.619 16.224C488.387 17.36 489.475 17.928 490.883 17.928C492.803 17.928 494.235 17.336 495.179 16.152C496.139 14.952 496.619 13.392 496.619 11.472V6.048C496.619 5.168 496.587 4.488 496.523 4.008C496.475 3.624 496.435 3.328 496.403 3.12C496.371 2.912 496.299 2.664 496.187 2.376C496.075 2.072 495.915 1.832 495.707 1.656C495.515 1.48 495.259 1.36 494.939 1.296H498.707C498.435 1.36 498.219 1.448 498.059 1.56C497.355 1.976 497.003 3.472 497.003 6.048V11.424C497.003 13.504 496.467 15.144 495.395 16.344C494.339 17.544 492.755 18.176 490.643 18.24C488.499 18.24 486.867 17.688 485.747 16.584C484.627 15.464 484.067 13.824 484.067 11.664V5.832C484.067 3.48 483.843 2.104 483.395 1.704C483.171 1.512 482.875 1.376 482.507 1.296H487.835ZM507.664 18C507.952 17.936 508.216 17.8 508.456 17.592C508.824 17.288 509.008 15.648 509.008 12.672V5.832C509.008 3.384 508.824 2.008 508.456 1.704C508.216 1.48 507.952 1.344 507.664 1.296H513.328C514.208 1.296 515.056 1.4 515.872 1.608C516.688 1.816 517.44 2.128 518.128 2.544C518.832 2.944 519.392 3.512 519.808 4.248C520.24 4.968 520.456 5.8 520.456 6.744C520.456 7.704 520.272 8.568 519.904 9.336C519.552 10.088 519.056 10.704 518.416 11.184C517.776 11.664 517.064 12.048 516.28 12.336C515.496 12.608 514.64 12.792 513.712 12.888C514.576 12.984 515.304 13.224 515.896 13.608C516.488 13.992 517.064 14.616 517.624 15.48C518.36 16.664 519.032 17.256 519.64 17.256C519.976 17.256 520.288 17.184 520.576 17.04C520.88 16.88 521.088 16.728 521.2 16.584L521.392 16.368H521.608C521.448 16.832 521.08 17.232 520.504 17.568C519.944 17.888 519.272 18.048 518.488 18.048H518.392C517.816 18.032 517.312 17.904 516.88 17.664C516.448 17.408 516.136 17.16 515.944 16.92C515.768 16.68 515.52 16.296 515.2 15.768C514.864 15.24 514.608 14.856 514.432 14.616C514.272 14.36 514 14.064 513.616 13.728C513.248 13.376 512.856 13.12 512.44 12.96C512.2 12.96 511.84 12.944 511.36 12.912V13.44C511.36 15.888 511.528 17.272 511.864 17.592C512.136 17.816 512.408 17.952 512.68 18H507.664ZM511.36 12.576C511.696 12.64 512.064 12.672 512.464 12.672C513.968 12.672 515.256 12.2 516.328 11.256C517.4 10.296 517.936 8.936 517.936 7.176V7.128C517.92 4.968 517.384 3.496 516.328 2.712C515.288 1.928 513.64 1.536 511.384 1.536L511.36 12.576ZM543.609 18C543.897 17.936 544.161 17.8 544.401 17.592C544.769 17.288 544.953 15.648 544.953 12.672V5.832C544.953 3.384 544.769 2.008 544.401 1.704C544.161 1.48 543.897 1.344 543.609 1.296H549.249C550.129 1.296 551.001 1.4 551.865 1.608C552.729 1.816 553.545 2.128 554.313 2.544C555.081 2.944 555.697 3.512 556.161 4.248C556.641 4.968 556.881 5.8 556.881 6.744C556.881 7.832 556.633 8.792 556.137 9.624C555.641 10.44 554.969 11.088 554.121 11.568C553.273 12.032 552.353 12.384 551.361 12.624C550.385 12.848 549.353 12.96 548.265 12.96C548.073 12.96 547.753 12.944 547.305 12.912V13.44C547.305 15.888 547.473 17.272 547.809 17.592C548.081 17.816 548.353 17.952 548.625 18H543.609ZM547.305 12.576C547.641 12.64 548.001 12.672 548.385 12.672C550.001 12.672 551.401 12.2 552.585 11.256C553.769 10.296 554.361 8.928 554.361 7.152V7.128C554.361 6.008 554.185 5.072 553.833 4.32C553.497 3.568 553.001 3 552.345 2.616C551.689 2.216 550.961 1.936 550.161 1.776C549.377 1.616 548.433 1.536 547.329 1.536L547.305 12.576ZM565.953 18C566.241 17.936 566.505 17.8 566.745 17.592C567.113 17.288 567.297 15.648 567.297 12.672V5.832C567.297 3.384 567.113 2.008 566.745 1.704C566.505 1.48 566.241 1.344 565.953 1.296H571.617C572.497 1.296 573.345 1.4 574.161 1.608C574.977 1.816 575.729 2.128 576.417 2.544C577.121 2.944 577.681 3.512 578.097 4.248C578.529 4.968 578.745 5.8 578.745 6.744C578.745 7.704 578.561 8.568 578.193 9.336C577.841 10.088 577.345 10.704 576.705 11.184C576.065 11.664 575.353 12.048 574.569 12.336C573.785 12.608 572.929 12.792 572.001 12.888C572.865 12.984 573.593 13.224 574.185 13.608C574.777 13.992 575.353 14.616 575.913 15.48C576.649 16.664 577.321 17.256 577.929 17.256C578.265 17.256 578.577 17.184 578.865 17.04C579.169 16.88 579.377 16.728 579.489 16.584L579.681 16.368H579.897C579.737 16.832 579.369 17.232 578.793 17.568C578.233 17.888 577.561 18.048 576.777 18.048H576.681C576.105 18.032 575.601 17.904 575.169 17.664C574.737 17.408 574.425 17.16 574.233 16.92C574.057 16.68 573.809 16.296 573.489 15.768C573.153 15.24 572.897 14.856 572.721 14.616C572.561 14.36 572.289 14.064 571.905 13.728C571.537 13.376 571.145 13.12 570.729 12.96C570.489 12.96 570.129 12.944 569.649 12.912V13.44C569.649 15.888 569.817 17.272 570.153 17.592C570.425 17.816 570.697 17.952 570.969 18H565.953ZM569.649 12.576C569.985 12.64 570.353 12.672 570.753 12.672C572.257 12.672 573.545 12.2 574.617 11.256C575.689 10.296 576.225 8.936 576.225 7.176V7.128C576.209 4.968 575.673 3.496 574.617 2.712C573.577 1.928 571.929 1.536 569.673 1.536L569.649 12.576ZM603.726 12.12C603.854 11.352 603.918 10.536 603.918 9.672C603.918 8.808 603.846 7.984 603.702 7.2C603.558 6.4 603.326 5.64 603.006 4.92C602.686 4.2 602.286 3.576 601.806 3.048C601.326 2.504 600.726 2.08 600.006 1.776C599.286 1.456 598.486 1.296 597.606 1.296C596.486 1.296 595.51 1.536 594.678 2.016C593.846 2.48 593.198 3.12 592.734 3.936C592.286 4.736 591.95 5.616 591.726 6.576C591.518 7.52 591.414 8.536 591.414 9.624C591.414 10.728 591.526 11.76 591.75 12.72C591.99 13.68 592.35 14.568 592.83 15.384C593.31 16.184 593.966 16.824 594.798 17.304C595.646 17.768 596.63 18 597.75 18C598.646 18 599.446 17.84 600.15 17.52C600.87 17.2 601.462 16.776 601.926 16.248C602.39 15.72 602.774 15.096 603.078 14.376C603.382 13.64 603.598 12.888 603.726 12.12ZM606.726 9.504C606.726 12.064 605.91 14.16 604.278 15.792C602.662 17.424 600.486 18.24 597.75 18.24C595.03 18.24 592.822 17.416 591.126 15.768C589.446 14.12 588.606 12.024 588.606 9.48C588.606 6.936 589.414 4.896 591.03 3.36C592.662 1.824 594.854 1.056 597.606 1.056C600.342 1.056 602.542 1.832 604.206 3.384C605.886 4.92 606.726 6.96 606.726 9.504ZM626.421 1.296C626.277 1.328 626.149 1.376 626.037 1.44C625.925 1.504 625.821 1.576 625.725 1.656C625.645 1.72 625.565 1.816 625.485 1.944C625.421 2.056 625.365 2.152 625.317 2.232C625.269 2.312 625.229 2.44 625.197 2.616C625.165 2.776 625.141 2.896 625.125 2.976C625.109 3.056 625.093 3.192 625.077 3.384C625.077 3.576 625.069 3.704 625.053 3.768C625.053 3.832 625.053 3.968 625.053 4.176C625.053 4.368 625.053 4.488 625.053 4.536C625.037 5.448 625.029 6.76 625.029 8.472C625.045 10.168 625.053 11.44 625.053 12.288C625.021 14.24 624.549 15.768 623.637 16.872C622.741 17.96 621.349 18.504 619.461 18.504C617.973 18.504 616.901 18.104 616.245 17.304C615.589 16.488 615.309 15.64 615.405 14.76C615.453 14.2 615.765 13.92 616.341 13.92C616.741 13.936 616.989 14.168 617.085 14.616C617.181 15.064 617.213 15.552 617.181 16.08C617.149 16.592 617.301 17.072 617.637 17.52C617.973 17.952 618.549 18.168 619.365 18.168H619.653C620.165 18.136 620.605 17.976 620.973 17.688C621.341 17.4 621.613 17.072 621.789 16.704C621.981 16.336 622.133 15.848 622.245 15.24C622.357 14.632 622.421 14.128 622.437 13.728C622.453 13.328 622.469 12.808 622.485 12.168C622.501 11.528 622.509 11.136 622.509 10.992V4.464C622.557 2.608 622.109 1.552 621.165 1.296H626.421ZM635.47 18C635.79 17.936 636.086 17.8 636.358 17.592C636.822 17.208 637.054 15.568 637.054 12.672V5.832C637.054 3.464 636.822 2.08 636.358 1.68C636.134 1.504 635.87 1.376 635.566 1.296H647.662V3.792H647.518C647.246 2.96 646.718 2.4 645.934 2.112C644.926 1.728 642.774 1.536 639.478 1.536V10.272H639.838H640.39H641.926C642.918 10.272 643.59 10.136 643.942 9.864C644.294 9.592 644.518 8.952 644.614 7.944H644.734V12.768H644.614C644.598 12.32 644.534 11.96 644.422 11.688C644.31 11.4 644.174 11.176 644.014 11.016C643.854 10.84 643.59 10.72 643.222 10.656C642.87 10.592 642.526 10.552 642.19 10.536C641.854 10.52 641.358 10.512 640.702 10.512C640.334 10.512 640.046 10.512 639.838 10.512H639.478V14.784C639.51 15.552 639.582 16.136 639.694 16.536C639.742 16.776 639.878 17.032 640.102 17.304C640.342 17.576 640.622 17.72 640.942 17.736C641.23 17.752 641.718 17.76 642.406 17.76C646.102 17.76 648.11 16.968 648.43 15.384H648.574V18H635.47ZM674.469 7.392L674.085 7.416C674.069 6.44 673.813 5.552 673.317 4.752C672.837 3.936 672.229 3.288 671.493 2.808C670.757 2.328 669.989 1.96 669.189 1.704C668.389 1.432 667.629 1.296 666.909 1.296C665.805 1.296 664.837 1.536 664.005 2.016C663.189 2.48 662.549 3.12 662.085 3.936C661.637 4.736 661.301 5.608 661.077 6.552C660.853 7.496 660.741 8.512 660.741 9.6C660.741 10.688 660.845 11.712 661.053 12.672C661.277 13.616 661.613 14.496 662.061 15.312C662.509 16.128 663.125 16.776 663.909 17.256C664.693 17.72 665.613 17.952 666.669 17.952C668.429 17.952 670.077 17.336 671.613 16.104C673.165 14.872 674.101 13.44 674.421 11.808L674.853 11.976C674.581 13.56 673.693 15 672.189 16.296C670.685 17.576 668.981 18.224 667.077 18.24H666.933C664.181 18.24 661.981 17.44 660.333 15.84C658.701 14.24 657.885 12.176 657.885 9.648C657.885 7.12 658.701 5.064 660.333 3.48C661.981 1.896 664.173 1.088 666.909 1.056H667.077C668.261 1.056 669.365 1.208 670.389 1.512C671.429 1.816 672.205 2.12 672.717 2.424C673.229 2.712 673.813 3.104 674.469 3.6V7.392ZM683.885 1.296H697.925V3.888H697.757C697.693 3.344 697.461 2.904 697.061 2.568C696.661 2.216 696.125 1.976 695.453 1.848C694.797 1.704 694.237 1.616 693.773 1.584C693.325 1.552 692.781 1.536 692.141 1.536V12.672C692.141 13.568 692.157 14.32 692.189 14.928C692.253 16.064 692.381 16.808 692.573 17.16C692.797 17.576 693.181 17.856 693.725 18H688.157C688.365 17.952 688.557 17.872 688.733 17.76C688.941 17.616 689.117 17.416 689.261 17.16C689.549 16.728 689.693 15.344 689.693 13.008V12.672V1.536C689.149 1.536 688.709 1.544 688.373 1.56C688.053 1.56 687.613 1.6 687.053 1.68C686.493 1.76 686.037 1.88 685.685 2.04C685.349 2.184 685.013 2.408 684.677 2.712C684.357 3.016 684.141 3.384 684.029 3.816H683.885V1.296ZM708.104 10.704C707.752 12.688 708.16 14.392 709.328 15.816C710.512 17.224 712.008 17.944 713.816 17.976C715.256 17.96 716.384 17.568 717.2 16.8C718.016 16.032 718.424 15.032 718.424 13.8C718.424 12.664 717.968 11.712 717.056 10.944C716.144 10.176 714.976 9.6 713.552 9.216C712.784 8.992 712.12 8.768 711.56 8.544C711.016 8.32 710.464 8.032 709.904 7.68C709.36 7.328 708.944 6.912 708.656 6.432C708.368 5.936 708.224 5.376 708.224 4.752C708.224 4.016 708.392 3.392 708.728 2.88C709.08 2.368 709.544 1.984 710.12 1.728C710.712 1.472 711.312 1.288 711.92 1.176C712.544 1.064 713.208 1.008 713.912 1.008C715.816 1.008 717.616 1.384 719.312 2.136C719.312 3.064 719.184 4.296 718.928 5.832H718.712C718.888 4.504 718.536 3.424 717.656 2.592C716.776 1.76 715.528 1.32 713.912 1.272C711.896 1.32 710.808 2.328 710.648 4.296C710.648 5.16 710.96 5.816 711.584 6.264C712.208 6.712 713.112 7.104 714.296 7.44C715.032 7.648 715.632 7.832 716.096 7.992C716.576 8.152 717.128 8.392 717.752 8.712C718.376 9.016 718.864 9.344 719.216 9.696C719.584 10.048 719.896 10.504 720.152 11.064C720.408 11.624 720.536 12.248 720.536 12.936C720.536 14.472 719.88 15.744 718.568 16.752C717.256 17.76 715.664 18.256 713.792 18.24C713.072 18.224 712.312 18.128 711.512 17.952C710.728 17.776 709.928 17.448 709.112 16.968C708.296 16.488 707.72 15.912 707.384 15.24C707.304 14.792 707.296 14.112 707.36 13.2C707.44 12.272 707.544 11.448 707.672 10.728L708.104 10.704Z" fill="#D1AF49"/>
<path d="M745.5 13H845.5" stroke="url(#paint1_linear_349_2681)" stroke-width="3" stroke-linecap="round"/>
<defs>
<linearGradient id="paint0_linear_349_2681" x1="430.5" y1="13.5" x2="330.5" y2="13.5" gradientUnits="userSpaceOnUse">
<stop stop-color="#D1AF49"/>
<stop offset="1" stop-color="#666666" stop-opacity="0"/>
</linearGradient>
<linearGradient id="paint1_linear_349_2681" x1="745.5" y1="13.5" x2="845.5" y2="13.5" gradientUnits="userSpaceOnUse">
<stop stop-color="#D1AF49"/>
<stop offset="1" stop-color="#666666" stop-opacity="0"/>
</linearGradient>
</defs>
</svg>
