<svg width="80" height="81" viewBox="0 0 80 81" fill="none" xmlns="http://www.w3.org/2000/svg">
<g clip-path="url(#clip0_348_2257)">
<path d="M16.6667 43.8333C21.2633 43.8333 25 47.57 25 52.1667C25 56.7633 21.2633 60.5 16.6667 60.5C12.07 60.5 8.33333 56.7633 8.33333 52.1667C8.33333 47.57 12.07 43.8333 16.6667 43.8333ZM23.3333 63.8333H10C4.48667 63.8333 0 68.32 0 73.8333V80.5H33.3333V73.8333C33.3333 68.32 28.8467 63.8333 23.3333 63.8333ZM63.3333 43.8333C58.7367 43.8333 55 47.57 55 52.1667C55 56.7633 58.7367 60.5 63.3333 60.5C67.93 60.5 71.6667 56.7633 71.6667 52.1667C71.6667 47.57 67.93 43.8333 63.3333 43.8333ZM70 63.8333H56.6667C51.1533 63.8333 46.6667 68.32 46.6667 73.8333V80.5H80V73.8333C80 68.32 75.5133 63.8333 70 63.8333ZM39.7733 37.1667C44.37 37.1667 48.1067 33.43 48.1067 28.8333C48.1067 24.2367 44.37 20.5 39.7733 20.5C35.1767 20.5 31.44 24.2367 31.44 28.8333C31.44 33.43 35.1767 37.1667 39.7733 37.1667ZM66.6667 30.4967C68.3633 30.4967 70.0633 29.85 71.3533 28.56L79.7067 20.2033L74.9933 15.49L70 20.5167V0.5H63.3333V20.4867L58.34 15.49L53.6267 20.2033L61.9833 28.5633C63.2767 29.8533 64.97 30.4967 66.6667 30.4967ZM13.3333 30.4967C15.03 30.4967 16.73 29.85 18.02 28.56L26.3733 20.2033L21.66 15.49L16.6667 20.5167V0.5H10V20.4867L5.00667 15.49L0.293333 20.2033L8.65 28.5633C9.94333 29.8533 11.6367 30.4967 13.3333 30.4967ZM30.7467 57.1667H49.2567C48.6967 55.5967 48.3367 53.93 48.3367 52.1667C48.3367 48.32 49.8333 44.8467 52.22 42.19C50.63 41.1267 48.7233 40.5 46.67 40.5H33.3367C31.2833 40.5 29.3767 41.1233 27.7867 42.19C30.1733 44.8467 31.67 48.3233 31.67 52.1667C31.67 53.93 31.31 55.5967 30.75 57.1667H30.7467Z" fill="#2F5D74"/>
</g>
<defs>
<clipPath id="clip0_348_2257">
<rect width="80" height="80" fill="white" transform="translate(0 0.5)"/>
</clipPath>
</defs>
</svg>
