<svg width="21" height="21" viewBox="0 0 21 21" fill="none" xmlns="http://www.w3.org/2000/svg">
<g clip-path="url(#clip0_107_1944)">
<path d="M2.64829 19.589C2.46876 19.8583 2.54153 20.2221 2.81079 20.4016C2.91071 20.4682 3.0236 20.5001 3.13528 20.5001C3.32462 20.5001 3.51044 20.4084 3.62333 20.239L4.06989 19.5692C3.70841 19.4106 3.36399 19.22 3.04063 19.0005L2.64829 19.589Z" fill="#1E3747"/>
<path d="M17.2939 19.0005C16.9705 19.22 16.6262 19.4106 16.2646 19.5692L16.7112 20.239C16.8241 20.4084 17.0099 20.5001 17.1993 20.5001C17.3109 20.5001 17.4239 20.4682 17.5238 20.4016C17.793 20.2221 17.8658 19.8583 17.6863 19.589L17.2939 19.0005Z" fill="#1E3747"/>
<path d="M1.37793 11.8336V13.664C1.37793 16.5718 3.74359 18.9374 6.65137 18.9374H13.6826C16.5904 18.9374 18.9561 16.5718 18.9561 13.664V13.3228H9.2741C6.55016 13.3228 3.89867 12.822 1.37793 11.8336Z" fill="#1E3747"/>
<path d="M3.33105 7.40582V2.64844C3.33105 2.10996 3.76914 1.67188 4.30762 1.67188H5.08887C5.62734 1.67188 6.06543 2.10996 6.06543 2.64844V2.92645C5.15965 3.18742 4.50293 4.0375 4.50293 5.0248V5.1875C4.50293 5.51109 4.76527 5.77344 5.08887 5.77344H8.21387C8.53746 5.77344 8.7998 5.51109 8.7998 5.1875V4.99219C8.7998 4.01066 8.13797 3.18125 7.2373 2.92551V2.64844C7.2373 1.46379 6.27352 0.5 5.08887 0.5H4.30762C3.12297 0.5 2.15918 1.46379 2.15918 2.64844V6.93531C2.25145 6.96367 2.34254 6.99699 2.43195 7.03664C2.72918 7.16875 3.02898 7.2916 3.33105 7.40582Z" fill="#1E3747"/>
<path d="M18.8828 9.66079H9.27419C6.73658 9.66079 4.27513 9.13833 1.9572 8.10805C1.32775 7.82922 0.592944 8.11172 0.313686 8.73993C0.0344285 9.36817 0.317319 10.1042 0.945561 10.3834C3.58412 11.5564 6.38599 12.151 9.27423 12.151H18.8829C19.5707 12.151 20.128 11.5937 20.128 10.9059C20.1279 10.2181 19.5706 9.66079 18.8828 9.66079Z" fill="#1E3747"/>
</g>
<defs>
<clipPath id="clip0_107_1944">
<rect width="20" height="20" fill="white" transform="translate(0.166992 0.5)"/>
</clipPath>
</defs>
</svg>
