<svg width="20" height="21" viewBox="0 0 20 21" fill="none" xmlns="http://www.w3.org/2000/svg">
<g clip-path="url(#clip0_107_1936)">
<path d="M2.08363 8.41663H4.16695C4.03863 8.41663 3.91777 8.35745 3.83863 8.25663C3.75945 8.15581 3.73195 8.02413 3.76281 7.89913L4.02199 6.86331C4.16117 6.30581 4.66031 5.91663 5.23449 5.91663H7.91699C8.60617 5.91663 9.16699 6.47745 9.16699 7.16663V7.99995C9.16699 8.22995 8.98031 8.41663 8.75031 8.41663H11.2503C11.0203 8.41663 10.8336 8.22995 10.8336 7.99995V7.16663C10.8336 6.47745 11.3945 5.91663 12.0836 5.91663H14.7661C15.3403 5.91663 15.8395 6.30581 15.9786 6.86331L16.2378 7.89913C16.2695 8.02331 16.2411 8.15581 16.162 8.25663C16.0828 8.35745 15.962 8.41663 15.8337 8.41663H17.917C18.147 8.41663 18.3337 8.22995 18.3337 7.99995V5.49995C18.3337 4.35163 17.3987 3.41663 16.2504 3.41663H3.75031C2.60199 3.41663 1.66699 4.35163 1.66699 5.49995V7.99995C1.66699 8.22995 1.85363 8.41663 2.08363 8.41663Z" fill="#1E3747"/>
<path d="M17.9167 9.25H2.08332C0.935 9.25 0 10.185 0 11.3333V17.1666C0 17.3966 0.18668 17.5833 0.41668 17.5833C0.64668 17.5833 0.833359 17.3966 0.833359 17.1666V15.9166H19.1667V17.1666C19.1667 17.3966 19.3534 17.5833 19.5834 17.5833C19.8134 17.5833 20 17.3966 20 17.1666V11.3333C20 10.185 19.065 9.25 17.9167 9.25ZM19.1667 15.0833H0.83332V14.25H19.1666V15.0833H19.1667Z" fill="#1E3747"/>
</g>
<defs>
<clipPath id="clip0_107_1936">
<rect width="20" height="20" fill="white" transform="translate(0 0.5)"/>
</clipPath>
</defs>
</svg>
