<svg width="32" height="33" viewBox="0 0 32 33" fill="none" xmlns="http://www.w3.org/2000/svg">
<g clip-path="url(#clip0_107_2415)">
<path d="M16 0.475342C7.16352 0.475342 0 7.63886 0 16.4753C0 23.9787 5.16608 30.275 12.135 32.0043V21.3649H8.83584V16.4753H12.135V14.3685C12.135 8.9227 14.5997 6.39854 19.9462 6.39854C20.96 6.39854 22.7091 6.59758 23.4246 6.79598V11.228C23.047 11.1883 22.391 11.1685 21.5763 11.1685C18.953 11.1685 17.9392 12.1624 17.9392 14.7461V16.4753H23.1654L22.2675 21.3649H17.9392V32.3582C25.8618 31.4014 32.0006 24.6558 32.0006 16.4753C32 7.63886 24.8365 0.475342 16 0.475342Z" fill="white"/>
</g>
<defs>
<clipPath id="clip0_107_2415">
<rect width="32" height="32" fill="white" transform="translate(0 0.475342)"/>
</clipPath>
</defs>
</svg>
