<svg width="80" height="81" viewBox="0 0 80 81" fill="none" xmlns="http://www.w3.org/2000/svg">
<g clip-path="url(#clip0_348_2242)">
<path d="M6.66699 65.4667V47.5667C3.62033 45.12 1.66699 41.37 1.66699 37.1667C1.66699 29.8133 7.64699 23.8333 15.0003 23.8333C22.3537 23.8333 28.3337 29.8133 28.3337 37.1667C28.3337 41.37 26.3803 45.12 23.3337 47.5667V65.4667L15.0003 57.1333L6.66699 65.4667ZM63.3337 2.45333V17.1667H78.047L63.3337 2.45333ZM56.667 23.8333V0.5H23.3337C17.8103 0.5 13.3337 4.97667 13.3337 10.5V17.2367C13.8837 17.19 14.4403 17.1667 15.0003 17.1667C26.027 17.1667 35.0003 26.1367 35.0003 37.1667C35.0003 38.3033 34.9037 39.4167 34.7203 40.5H63.3337V47.1667H32.317C31.6503 48.3167 30.8737 49.39 30.0003 50.38V53.8333H63.3337V60.5H30.0003V70.5H18.9403L13.3337 64.8933V80.5H80.0003V23.8333H56.667Z" fill="#2F5D74"/>
</g>
<defs>
<clipPath id="clip0_348_2242">
<rect width="80" height="80" fill="white" transform="translate(0 0.5)"/>
</clipPath>
</defs>
</svg>
