<svg width="16" height="16" viewBox="0 0 16 16" fill="none" xmlns="http://www.w3.org/2000/svg">
<path d="M14.0177 10.3299L11.901 10.0882C11.3927 10.0299 10.8927 10.2049 10.5344 10.5632L9.00104 12.0966C6.64271 10.8966 4.70938 8.97158 3.50938 6.60492L5.05104 5.06325C5.40938 4.70491 5.58438 4.20492 5.52604 3.69658L5.28438 1.59658C5.18438 0.754916 4.47604 0.121582 3.62604 0.121582H2.18438C1.24271 0.121582 0.459376 0.904915 0.51771 1.84658C0.959376 8.96325 6.65104 14.6466 13.7594 15.0882C14.701 15.1466 15.4844 14.3632 15.4844 13.4216V11.9799C15.4927 11.1382 14.8594 10.4299 14.0177 10.3299Z" fill="#434343"/>
</svg>
