<svg width="40" height="41" viewBox="0 0 40 41" fill="none" xmlns="http://www.w3.org/2000/svg">
<g clip-path="url(#clip0_108_793)">
<path d="M30.6809 0.5C27.0434 0.500391 23.7986 2.78688 22.5746 6.21229C21.2671 6.29872 19.9981 6.69097 18.8699 7.35753C16.0021 9.07492 14.4503 12.35 14.9375 15.657C14.979 15.9313 14.851 16.2037 14.6133 16.3469L11.1362 18.4303L10.7913 19.7756C10.6534 20.3433 10.1164 20.7209 9.53567 20.6587L8.08689 20.5069C8.0593 20.6311 8.01101 20.8243 7.96271 21.0244L7.8454 21.5349C7.69855 22.104 7.16149 22.4835 6.57598 22.4317L5.14103 22.28L4.87891 23.3148C4.74761 23.8868 4.20602 24.2677 3.62332 24.1978L2.07106 24.0392C1.90991 24.0238 1.74806 24.0601 1.60887 24.1426C1.41708 24.2552 1.28555 24.4474 1.25015 24.6669L0.698242 27.9025L4.14772 29.0546L16.9936 21.3554C16.3154 17.8008 17.6793 14.165 20.5282 11.9336C23.3771 9.70224 27.2337 9.24881 30.5224 10.7586C29.5257 8.73957 27.7416 7.2199 25.5897 6.55717C25.0831 6.40392 24.5634 6.29771 24.0374 6.2398C25.2862 3.3581 28.2496 1.60937 31.376 1.90932C34.5023 2.20926 37.0791 4.48974 37.7571 7.55635C38.435 10.623 37.0597 13.7771 34.3513 15.3671C34.1651 15.4706 33.9787 15.5672 33.7925 15.6499C32.3593 13.0404 29.6353 11.4015 26.6585 11.3575C23.6817 11.3135 20.9105 12.8713 19.4008 15.4374C17.8911 18.0034 17.8755 21.1824 19.3599 23.763C19.5025 24.0007 19.4861 24.3012 19.3185 24.5219L16.897 27.7713L17.0902 29.1373C17.1816 29.7205 16.8233 30.2802 16.2554 30.4412L14.8688 30.8552C14.8895 30.9794 14.9171 31.1656 14.9515 31.3657L15.0343 31.8969C15.1257 32.48 14.7675 33.0398 14.1996 33.2008L12.8198 33.6078L12.9715 34.6633C13.0605 35.2459 12.7031 35.8041 12.1368 35.9672L10.6466 36.4087C10.491 36.4559 10.3538 36.5499 10.2533 36.6778C10.1216 36.8586 10.0738 37.0873 10.1223 37.3056L10.8467 40.4998L14.4755 40.2515L23.7477 27.8196C23.9142 27.5944 24.2011 27.4933 24.4721 27.5644C27.4031 28.3018 30.5029 27.3813 32.5565 25.1639C34.6101 22.9465 35.2904 19.7853 34.3307 16.9193C34.579 16.802 34.8205 16.6917 35.055 16.5537C38.4053 14.5799 40.0204 10.6083 38.9981 6.85657C37.9759 3.10488 34.5693 0.501485 30.6809 0.5ZM15.3446 20.7346L4.31316 27.3437C4.10192 27.4893 3.82729 27.5057 3.60026 27.3861C3.37323 27.2665 3.23131 27.0309 3.23177 26.7743C3.23224 26.5177 3.37511 26.2827 3.60253 26.1639L14.634 19.548C14.8459 19.4211 15.1096 19.4169 15.3255 19.537C15.5414 19.6571 15.6769 19.8833 15.6808 20.1303C15.6847 20.3773 15.5565 20.6077 15.3446 20.7346ZM22.8575 26.7091L13.9785 38.6097C13.7492 38.9119 13.3207 38.9763 13.0127 38.7546C12.8663 38.6448 12.7695 38.4814 12.7437 38.3003C12.7178 38.1191 12.7649 37.9351 12.8747 37.7887L21.7536 25.8812C21.9822 25.5764 22.4147 25.5146 22.7195 25.7432C23.0243 25.9719 23.0861 26.4043 22.8575 26.7091ZM27.1969 17.0091C27.3098 17.6648 27.877 18.1447 28.5422 18.1475C28.9392 18.15 29.3174 17.9786 29.5771 17.6784V17.6715C30.0882 17.7517 30.6073 17.768 31.1224 17.7198C31.0353 17.9708 30.9121 18.2078 30.7568 18.4235C29.8462 19.6451 28.1178 19.8976 26.8957 18.9875C25.6737 18.0773 25.4206 16.349 26.3304 15.1267C27.2402 13.9044 28.9684 13.6507 30.191 14.5601C30.765 14.9861 31.1489 15.6202 31.2604 16.3263C30.7836 16.3885 30.3002 16.3815 29.8254 16.3055C29.5823 15.6416 28.8725 15.2728 28.1895 15.4557C27.5064 15.6385 27.0758 16.3125 27.1969 17.0091Z" fill="#D1AF49"/>
</g>
<defs>
<clipPath id="clip0_108_793">
<rect width="40" height="40" fill="white" transform="translate(0 0.5)"/>
</clipPath>
</defs>
</svg>
