<svg width="32" height="33" viewBox="0 0 32 33" fill="none" xmlns="http://www.w3.org/2000/svg">
<g clip-path="url(#clip0_107_2418)">
<path d="M16 3.35659C20.275 3.35659 20.7813 3.37534 22.4625 3.45034C24.025 3.51909 24.8688 3.78159 25.4313 4.00034C26.175 4.28784 26.7125 4.63784 27.2688 5.19409C27.8313 5.75659 28.175 6.28784 28.4625 7.03159C28.6813 7.59409 28.9438 8.44409 29.0125 10.0003C29.0875 11.6878 29.1063 12.1941 29.1063 16.4628C29.1063 20.7378 29.0875 21.2441 29.0125 22.9253C28.9438 24.4878 28.6813 25.3316 28.4625 25.8941C28.175 26.6378 27.825 27.1753 27.2688 27.7316C26.7063 28.2941 26.175 28.6378 25.4313 28.9253C24.8688 29.1441 24.0188 29.4066 22.4625 29.4753C20.775 29.5503 20.2688 29.5691 16 29.5691C11.725 29.5691 11.2188 29.5503 9.5375 29.4753C7.975 29.4066 7.13125 29.1441 6.56875 28.9253C5.825 28.6378 5.2875 28.2878 4.73125 27.7316C4.16875 27.1691 3.825 26.6378 3.5375 25.8941C3.31875 25.3316 3.05625 24.4816 2.9875 22.9253C2.9125 21.2378 2.89375 20.7316 2.89375 16.4628C2.89375 12.1878 2.9125 11.6816 2.9875 10.0003C3.05625 8.43784 3.31875 7.59409 3.5375 7.03159C3.825 6.28784 4.175 5.75034 4.73125 5.19409C5.29375 4.63159 5.825 4.28784 6.56875 4.00034C7.13125 3.78159 7.98125 3.51909 9.5375 3.45034C11.2188 3.37534 11.725 3.35659 16 3.35659ZM16 0.475342C11.6563 0.475342 11.1125 0.494092 9.40625 0.569092C7.70625 0.644092 6.5375 0.919092 5.525 1.31284C4.46875 1.72534 3.575 2.26909 2.6875 3.16284C1.79375 4.05034 1.25 4.94409 0.8375 5.99409C0.44375 7.01284 0.16875 8.17534 0.09375 9.87534C0.01875 11.5878 0 12.1316 0 16.4753C0 20.8191 0.01875 21.3628 0.09375 23.0691C0.16875 24.7691 0.44375 25.9378 0.8375 26.9503C1.25 28.0066 1.79375 28.9003 2.6875 29.7878C3.575 30.6753 4.46875 31.2253 5.51875 31.6316C6.5375 32.0253 7.7 32.3003 9.4 32.3753C11.1063 32.4503 11.65 32.4691 15.9938 32.4691C20.3375 32.4691 20.8813 32.4503 22.5875 32.3753C24.2875 32.3003 25.4563 32.0253 26.4688 31.6316C27.5188 31.2253 28.4125 30.6753 29.3 29.7878C30.1875 28.9003 30.7375 28.0066 31.1438 26.9566C31.5375 25.9378 31.8125 24.7753 31.8875 23.0753C31.9625 21.3691 31.9813 20.8253 31.9813 16.4816C31.9813 12.1378 31.9625 11.5941 31.8875 9.88784C31.8125 8.18784 31.5375 7.01909 31.1438 6.00659C30.75 4.94409 30.2063 4.05034 29.3125 3.16284C28.425 2.27534 27.5313 1.72534 26.4813 1.31909C25.4625 0.925342 24.3 0.650342 22.6 0.575342C20.8875 0.494092 20.3438 0.475342 16 0.475342Z" fill="white"/>
<path d="M16 8.25659C11.4625 8.25659 7.78125 11.9378 7.78125 16.4753C7.78125 21.0128 11.4625 24.6941 16 24.6941C20.5375 24.6941 24.2188 21.0128 24.2188 16.4753C24.2188 11.9378 20.5375 8.25659 16 8.25659ZM16 21.8066C13.0563 21.8066 10.6687 19.4191 10.6687 16.4753C10.6687 13.5316 13.0563 11.1441 16 11.1441C18.9438 11.1441 21.3312 13.5316 21.3312 16.4753C21.3312 19.4191 18.9438 21.8066 16 21.8066Z" fill="white"/>
<path d="M26.4625 7.93154C26.4625 8.99404 25.6 9.85029 24.5438 9.85029C23.4813 9.85029 22.625 8.98779 22.625 7.93154C22.625 6.86904 23.4875 6.01279 24.5438 6.01279C25.6 6.01279 26.4625 6.87529 26.4625 7.93154Z" fill="white"/>
</g>
<defs>
<clipPath id="clip0_107_2418">
<rect width="32" height="32" fill="white" transform="translate(0 0.475342)"/>
</clipPath>
</defs>
</svg>
