<svg width="80" height="81" viewBox="0 0 80 81" fill="none" xmlns="http://www.w3.org/2000/svg">
<g clip-path="url(#clip0_348_2250)">
<path d="M59.9631 14.97L54.2665 11.5L60.8865 0.633301L66.5831 4.1033L59.9631 14.97ZM79.9064 21.73L77.1665 15.6566L66.0631 20.67L68.8031 26.7433L79.9064 21.73ZM25.7498 11.5L19.1298 0.633301L13.4331 4.1033L20.0498 14.97L25.7498 11.5ZM13.9498 20.67L2.84978 15.6566L0.106445 21.73L11.2064 26.7433L13.9498 20.67ZM26.6664 70.5V80.5H53.3331V70.71C53.3331 70.6366 53.3531 70.57 53.3531 70.5H26.6664ZM22.5198 60.6066C23.5464 61.5 24.3464 62.62 25.0098 63.8333H36.6664V46.5533C32.7964 45.1733 29.9998 41.5066 29.9998 37.1666H36.6664C36.6664 39.0066 38.1598 40.5 39.9998 40.5C41.8398 40.5 43.3331 39.0066 43.3331 37.1666H49.9998C49.9998 41.5066 47.2031 45.1733 43.3331 46.5533V63.8333H55.0731C55.7531 62.5766 56.5631 61.4166 57.6064 60.4966C63.3664 55.4366 66.6665 48.15 66.6665 40.5C66.6665 33.2966 63.8365 26.5433 58.6998 21.49C53.5631 16.4366 46.7131 13.6966 39.5464 13.8366C25.5998 14.0666 13.8498 25.59 13.3531 39.52C13.0598 47.6133 16.3998 55.2966 22.5198 60.6066Z" fill="#2F5D74"/>
</g>
<defs>
<clipPath id="clip0_348_2250">
<rect width="80" height="80" fill="white" transform="translate(0 0.5)"/>
</clipPath>
</defs>
</svg>
