<svg width="32" height="33" viewBox="0 0 32 33" fill="none" xmlns="http://www.w3.org/2000/svg">
<g clip-path="url(#clip0_107_2417)">
<path d="M29.6313 0.475342H2.3625C1.05625 0.475342 0 1.50659 0 2.78159V30.1628C0 31.4378 1.05625 32.4753 2.3625 32.4753H29.6313C30.9375 32.4753 32 31.4378 32 30.1691V2.78159C32 1.50659 30.9375 0.475342 29.6313 0.475342ZM9.49375 27.7441H4.74375V12.4691H9.49375V27.7441ZM7.11875 10.3878C5.59375 10.3878 4.3625 9.15659 4.3625 7.63784C4.3625 6.11909 5.59375 4.88784 7.11875 4.88784C8.6375 4.88784 9.86875 6.11909 9.86875 7.63784C9.86875 9.15034 8.6375 10.3878 7.11875 10.3878ZM27.2687 27.7441H22.525V20.3191C22.525 18.5503 22.4937 16.2691 20.0562 16.2691C17.5875 16.2691 17.2125 18.2003 17.2125 20.1941V27.7441H12.475V12.4691H17.025V14.5566H17.0875C17.7188 13.3566 19.2688 12.0878 21.575 12.0878C26.3813 12.0878 27.2687 15.2503 27.2687 19.3628V27.7441Z" fill="white"/>
</g>
<defs>
<clipPath id="clip0_107_2417">
<rect width="32" height="32" fill="white" transform="translate(0 0.475342)"/>
</clipPath>
</defs>
</svg>
