<svg width="14" height="17" viewBox="0 0 14 17" fill="none" xmlns="http://www.w3.org/2000/svg">
<path d="M6.99967 0.407715C3.49967 0.407715 0.333008 3.09105 0.333008 7.24105C0.333008 9.89105 2.37467 13.0077 6.44967 16.5994C6.76634 16.8744 7.24134 16.8744 7.55801 16.5994C11.6247 13.0077 13.6663 9.89105 13.6663 7.24105C13.6663 3.09105 10.4997 0.407715 6.99967 0.407715ZM6.99967 8.74105C6.08301 8.74105 5.33301 7.99105 5.33301 7.07438C5.33301 6.15771 6.08301 5.40771 6.99967 5.40771C7.91634 5.40771 8.66634 6.15771 8.66634 7.07438C8.66634 7.99105 7.91634 8.74105 6.99967 8.74105Z" fill="#434343"/>
</svg>
