<svg width="41" height="41" viewBox="0 0 41 41" fill="none" xmlns="http://www.w3.org/2000/svg">
<g clip-path="url(#clip0_108_838)">
<path d="M27.5762 14.6523C21.0014 14.6523 15.6523 20.0014 15.6523 26.5762C15.6523 33.151 21.0014 38.5 27.5762 38.5C34.151 38.5 39.5 33.151 39.5 26.5762C39.5 20.0014 34.151 14.6523 27.5762 14.6523ZM27.5762 25.4922C29.3694 25.4922 30.8281 26.9509 30.8281 28.7441C30.8281 30.1555 29.9192 31.3474 28.6602 31.7964V34.1641H26.4922V31.7964C25.2332 31.3474 24.3242 30.1555 24.3242 28.7441H26.4922C26.4922 29.3422 26.9781 29.8281 27.5762 29.8281C28.1742 29.8281 28.6602 29.3422 28.6602 28.7441C28.6602 28.1461 28.1742 27.6602 27.5762 27.6602C25.783 27.6602 24.3242 26.2014 24.3242 24.4082C24.3242 22.9969 25.2332 21.8049 26.4922 21.3559V18.9883H28.6602V21.3559C29.9192 21.8049 30.8281 22.9969 30.8281 24.4082H28.6602C28.6602 23.8101 28.1742 23.3242 27.5762 23.3242C26.9781 23.3242 26.4922 23.8101 26.4922 24.4082C26.4922 25.0063 26.9781 25.4922 27.5762 25.4922Z" fill="#D1AF49"/>
<path d="M14.5684 14.6523C21.2544 14.6523 26.4922 11.7952 26.4922 8.14844C26.4922 4.50163 21.2544 1.5 14.5684 1.5C7.88234 1.5 2.5 4.50163 2.5 8.14844C2.5 11.7952 7.88234 14.6523 14.5684 14.6523Z" fill="#D1AF49"/>
<path d="M2.5 25.8938V27.66C2.5 31.3069 7.88234 34.164 14.5684 34.164C14.9476 34.164 15.3151 34.129 15.6885 34.1108C14.857 32.8034 14.2369 31.3527 13.8717 29.8019C9.03679 29.6685 4.83866 28.1827 2.5 25.8938Z" fill="#D1AF49"/>
<path d="M13.5365 27.6048C13.5116 27.2639 13.4844 26.9233 13.4844 26.5761C13.4844 25.446 13.6324 24.3524 13.8849 23.2986C9.04401 23.1674 4.84076 21.6809 2.5 19.3899V21.1561C2.5 24.6095 7.36073 27.3234 13.5365 27.6048Z" fill="#D1AF49"/>
<path d="M14.5684 21.1561C14.5695 21.1561 14.5705 21.156 14.5717 21.156C15.2866 19.4473 16.3259 17.9071 17.6165 16.6166C16.6375 16.7403 15.6257 16.8202 14.5684 16.8202C9.42182 16.8202 4.95168 15.2855 2.5 12.886V14.6522C2.5 18.299 7.88234 21.1561 14.5684 21.1561Z" fill="#D1AF49"/>
</g>
<defs>
<clipPath id="clip0_108_838">
<rect width="37" height="37" fill="white" transform="translate(2.5 1.5)"/>
</clipPath>
</defs>
</svg>
