<svg width="40" height="41" viewBox="0 0 40 41" fill="none" xmlns="http://www.w3.org/2000/svg">
<path d="M37.2722 33.2273H30.9086C26.8986 33.2273 23.636 29.9648 23.636 25.9548C23.636 21.9447 26.8986 18.6822 30.9086 18.6822H37.2722C37.7747 18.6822 38.1813 18.2756 38.1813 17.7731V15.0458C38.1813 13.1395 36.7026 11.5892 34.8344 11.4388L29.6134 2.31965C29.1296 1.47626 28.3483 0.873454 27.4135 0.623146C26.4831 0.374542 25.5101 0.505108 24.6774 0.989788L6.77972 11.4095H3.63633C1.63088 11.4095 0 13.0403 0 15.0458V36.8637C0 38.8691 1.6308 40.5 3.63633 40.5H34.5449C36.5504 40.5 38.1813 38.8692 38.1813 36.8637V34.1364C38.1813 33.6339 37.7747 33.2273 37.2722 33.2273ZM30.7409 7.94967L32.7217 11.4095H24.7982L30.7409 7.94967ZM10.3933 11.4095L25.5926 2.5611C26.0037 2.3205 26.4839 2.25659 26.943 2.37914C27.4073 2.5034 27.7944 2.80348 28.035 3.22339L28.0368 3.22671L13.9822 11.4095H10.3933Z" fill="#D1AF49"/>
<path d="M37.2721 20.5002H30.9086C27.9008 20.5002 25.4541 22.9469 25.4541 25.9547C25.4541 28.9625 27.9008 31.4092 30.9086 31.4092H37.2721C38.776 31.4092 39.9993 30.1858 39.9993 28.6819V23.2275C39.9993 21.7236 38.776 20.5002 37.2721 20.5002ZM30.9086 27.7728C29.9063 27.7728 29.0904 26.957 29.0904 25.9547C29.0904 24.9524 29.9063 24.1366 30.9086 24.1366C31.9108 24.1366 32.7267 24.9524 32.7267 25.9547C32.7268 26.957 31.9109 27.7728 30.9086 27.7728Z" fill="#D1AF49"/>
</svg>
