<svg width="80" height="80" viewBox="0 0 80 80" fill="none" xmlns="http://www.w3.org/2000/svg">
<g clip-path="url(#clip0_348_2264)">
<path d="M-0.000297546 75.287L20.8564 54.427C15.4449 47.8055 12.7853 39.3575 13.4274 30.8301C14.0696 22.3028 17.9645 14.3484 24.3067 8.61206C30.6488 2.87572 38.9529 -0.203769 47.5018 0.0104736C56.0506 0.224716 64.1901 3.7163 70.2369 9.76312C76.2837 15.8099 79.7753 23.9494 79.9895 32.4982C80.2038 41.0471 77.1243 49.3512 71.3879 55.6933C65.6516 62.0355 57.6972 65.9304 49.1699 66.5726C40.6425 67.2147 32.1945 64.5551 25.573 59.1436L4.71304 80.0003L-0.000297546 75.287Z" fill="#2F5D74"/>
</g>
<defs>
<clipPath id="clip0_348_2264">
<rect width="80" height="80" fill="white" transform="matrix(-1 0 0 1 80 0)"/>
</clipPath>
</defs>
</svg>
