<svg width="19" height="18" viewBox="0 0 19 18" fill="none" xmlns="http://www.w3.org/2000/svg">
<path d="M13.4762 11.4716H12.6862L12.4062 11.2016C13.6062 9.80157 14.2262 7.89157 13.8862 5.86157C13.4162 3.08157 11.0962 0.861573 8.29621 0.521573C4.06621 0.00157288 0.506212 3.56157 1.02621 7.79157C1.36621 10.5916 3.58621 12.9116 6.36621 13.3816C8.39621 13.7216 10.3062 13.1016 11.7062 11.9016L11.9762 12.1816V12.9716L16.2262 17.2216C16.6362 17.6316 17.3062 17.6316 17.7162 17.2216C18.1262 16.8116 18.1262 16.1416 17.7162 15.7316L13.4762 11.4716ZM7.47621 11.4716C4.98621 11.4716 2.97621 9.46157 2.97621 6.97157C2.97621 4.48157 4.98621 2.47157 7.47621 2.47157C9.96621 2.47157 11.9762 4.48157 11.9762 6.97157C11.9762 9.46157 9.96621 11.4716 7.47621 11.4716Z" fill="#FAFAFA"/>
</svg>
