<svg width="21" height="21" viewBox="0 0 21 21" fill="none" xmlns="http://www.w3.org/2000/svg">
<path d="M19.0084 0.5H5.34676C4.64589 0.5 4.07715 1.06848 4.07715 1.76996V2.96667H5.40986V1.83271H18.9453V15.3679H17.9217V16.7006H19.0085C19.7093 16.7006 20.278 16.1322 20.278 15.4307V1.76996C20.278 1.06848 19.7093 0.5 19.0084 0.5Z" fill="#1E3747"/>
<path d="M15.319 4.29944H1.65722C0.95644 4.29944 0.387695 4.86783 0.387695 5.5694V19.2301C0.387695 19.9316 0.95644 20.5 1.65722 20.5H15.319C16.0198 20.5 16.5886 19.9316 16.5886 19.2301V5.5694C16.5886 4.86783 16.0198 4.29944 15.319 4.29944ZM15.2559 19.1673H1.72041V5.63219H15.2558V19.1673H15.2559Z" fill="#1E3747"/>
<path d="M2.75218 18.3513L5.83534 18.3523C5.92521 18.3523 6.00654 18.2979 6.04099 18.2149C6.07552 18.132 6.05603 18.0363 5.99289 17.9725L4.92303 16.9024L12.974 8.80809L14.0432 9.87759C14.107 9.94104 14.2026 9.96023 14.2853 9.92569C14.3686 9.89124 14.4227 9.81018 14.4227 9.7204L14.4233 6.63789C14.4233 6.51523 14.3237 6.41568 14.2008 6.41568L11.1182 6.41467C11.0284 6.41467 10.947 6.46896 10.9126 6.55199C10.878 6.63492 10.897 6.73059 10.9607 6.79434L12.0318 7.86582L3.98076 15.9601L2.90964 14.8893C2.84585 14.8258 2.75083 14.8066 2.6675 14.8412C2.58421 14.8756 2.53027 14.9567 2.53027 15.0464V18.129C2.53032 18.2517 2.62987 18.3513 2.75218 18.3513Z" fill="#1E3747"/>
</svg>
