<svg width="32" height="33" viewBox="0 0 32 33" fill="none" xmlns="http://www.w3.org/2000/svg">
<path d="M31.6812 10.0754C31.6812 10.0754 31.3688 7.86915 30.4062 6.9004C29.1875 5.6254 27.825 5.61915 27.2 5.54415C22.725 5.21915 16.0063 5.21915 16.0063 5.21915H15.9937C15.9937 5.21915 9.275 5.21915 4.8 5.54415C4.175 5.61915 2.8125 5.6254 1.59375 6.9004C0.63125 7.86915 0.325 10.0754 0.325 10.0754C0.325 10.0754 0 12.6691 0 15.2566V17.6816C0 20.2691 0.31875 22.8629 0.31875 22.8629C0.31875 22.8629 0.63125 25.0691 1.5875 26.0379C2.80625 27.3129 4.40625 27.2691 5.11875 27.4066C7.68125 27.6504 16 27.7254 16 27.7254C16 27.7254 22.725 27.7129 27.2 27.3941C27.825 27.3191 29.1875 27.3129 30.4062 26.0379C31.3688 25.0691 31.6812 22.8629 31.6812 22.8629C31.6812 22.8629 32 20.2754 32 17.6816V15.2566C32 12.6691 31.6812 10.0754 31.6812 10.0754ZM12.6938 20.6254V11.6316L21.3375 16.1441L12.6938 20.6254Z" fill="white"/>
</svg>
