<svg width="48" height="49" viewBox="0 0 48 49" fill="none" xmlns="http://www.w3.org/2000/svg">
<g clip-path="url(#clip0_107_2711)">
<path d="M45 32.5533H40V29.5533C40 29.0013 39.552 28.5532 39 28.5532H27C26.448 28.5532 26 29.0013 26 29.5533V32.5533H16V17.5533C16 17.0013 15.552 16.5532 15 16.5532H14.388L15.948 11.8692C15.982 11.7672 16 11.6612 16 11.5532V7.55322C16 7.00122 15.552 6.55319 15 6.55319H10V1.55322C10 1.00122 9.552 0.553192 9 0.553192C8.448 0.553192 7.99997 1.00122 7.99997 1.55322V6.55319H3C2.448 6.55319 1.99997 7.00122 1.99997 7.55322V11.5533C1.99997 11.6613 2.01797 11.7673 2.052 11.8693L3.612 16.5533H3C2.448 16.5533 1.99997 17.0013 1.99997 17.5533V32.5533H1.00003C0.448031 32.5533 0 33.0012 0 33.5532V47.5532C0 48.1053 0.448031 48.5532 1.00003 48.5532H34V37.5532C34 37.0012 34.4481 36.5532 35.0001 36.5532H41.0001C41.5521 36.5532 42.0001 37.0012 42.0001 37.5532V48.5532H45.0001C45.5521 48.5532 46.0001 48.1052 46.0001 47.5532V33.5532C46 33.0012 45.552 32.5533 45 32.5533ZM10 41.5533C10 42.1053 9.552 42.5533 9 42.5533H4.99997C4.44797 42.5533 3.99994 42.1053 3.99994 41.5533V37.5532C3.99994 37.0012 4.44797 36.5532 4.99997 36.5532H9C9.552 36.5532 10 37.0012 10 37.5532V41.5533ZM12 25.5532C12 26.1052 11.552 26.5533 11 26.5533H7.00003C6.44803 26.5533 6 26.1052 6 25.5532V21.5532C6 21.0012 6.44803 20.5532 7.00003 20.5532H11.0001C11.5521 20.5532 12.0001 21.0012 12.0001 21.5532V25.5532H12ZM11 12.5532H7.00003C6.44803 12.5532 6 12.1053 6 11.5533C6 11.0013 6.44803 10.5532 7.00003 10.5532H11.0001C11.5521 10.5532 12.0001 11.0013 12.0001 11.5533C12.0001 12.1053 11.552 12.5532 11 12.5532ZM20 41.5533C20 42.1053 19.5519 42.5533 18.9999 42.5533H15C14.448 42.5533 14 42.1053 14 41.5533V37.5532C14 37.0012 14.448 36.5532 15 36.5532H19C19.552 36.5532 20.0001 37.0012 20.0001 37.5532V41.5533H20ZM30 41.5533C30 42.1053 29.552 42.5533 29 42.5533H24.9999C24.4479 42.5533 23.9999 42.1053 23.9999 41.5533V37.5532C23.9999 37.0012 24.4479 36.5532 24.9999 36.5532H29C29.552 36.5532 30 37.0012 30 37.5532V41.5533Z" fill="#1E3747"/>
<path d="M47.246 9.46318C45.6061 8.34118 43.864 8.20318 42.1561 9.03315L36.488 11.6971L36.32 11.7972L32.812 9.96315C31.346 8.98712 29.67 8.46915 27.936 8.46915H27.934L24.974 8.55315C24.548 8.56515 24.178 8.84518 24.05 9.25112C23.9221 9.65715 24.062 10.0991 24.404 10.3531L30.6301 15.0211L25.73 17.5671C25.124 17.5091 23.372 17.0811 22.5001 16.8671C21.3721 16.5931 21.1981 16.5531 21.0001 16.5531H19.0001C18.5781 16.5531 18.2001 16.8191 18.0581 17.2171C17.9161 17.6151 18.0401 18.0591 18.3681 18.3271C19.2621 19.0572 23.8502 22.6992 26.3781 22.6992C26.8082 22.6992 27.1881 22.6032 27.4541 22.4452L47.2681 12.3712C47.7301 12.0472 48.0041 11.5032 48.0001 10.9152C47.9981 10.3292 47.7161 9.78718 47.246 9.46318Z" fill="#1E3747"/>
</g>
<defs>
<clipPath id="clip0_107_2711">
<rect width="48" height="48" fill="white" transform="translate(0 0.553192)"/>
</clipPath>
</defs>
</svg>
