<svg width="40" height="40" viewBox="0 0 40 40" fill="none" xmlns="http://www.w3.org/2000/svg">
<path d="M8.01818 37.8339C7.716 38.7187 8.20365 39.5969 8.99584 39.8765C9.81943 40.1706 10.74 39.7337 11.0427 38.8947L13.1478 32.8999H9.75303L8.01818 37.8339Z" fill="black"/>
<path d="M29.4103 32.8999H26.0156L28.1207 38.8947C28.4277 39.7544 29.3716 40.1676 30.1675 39.8765C30.9953 39.5833 31.4397 38.6696 31.1452 37.838L29.4103 32.8999Z" fill="black"/>
<path d="M17.9785 38.2999C17.9785 39.1819 18.6982 39.9015 19.5802 39.9015C20.4663 39.9015 21.1819 39.1819 21.1819 38.2999V32.8999H17.9785V38.2999Z" fill="black"/>
<path d="M30.5546 28.8645H8.60945C7.72336 28.8645 7.00781 29.5842 7.00781 30.4661C7.00781 31.3481 7.72336 32.0678 8.60945 32.0678H30.5546C31.4407 32.0678 32.1563 31.3481 32.1563 30.4661C32.1563 29.5842 31.4408 28.8645 30.5546 28.8645Z" fill="black"/>
<path d="M18.5397 2.57198C17.8051 1.08581 18.2786 0.222061 19.0389 0.0425301C19.2636 -0.0115324 19.4882 0.125733 19.5381 0.350421C19.5922 0.575108 19.4549 0.795577 19.2302 0.84964C18.7382 0.968936 19.0629 1.75464 19.2843 2.19753C20.0367 3.70245 19.4591 4.57894 18.706 4.70612C18.4862 4.75011 18.2654 4.59659 18.2275 4.36917C18.186 4.14034 18.3399 3.92401 18.5645 3.88659C19.059 3.79941 18.7596 3.01183 18.5397 2.57198Z" fill="black"/>
<path d="M21.8759 2.57198C21.141 1.08519 21.6143 0.220968 22.3751 0.0425301C22.5956 -0.0115324 22.8244 0.125733 22.8743 0.350421C22.9284 0.575108 22.7911 0.795577 22.5664 0.84964C22.0744 0.968937 22.3988 1.75417 22.6205 2.19753C23.3745 3.70542 22.7938 4.57917 22.0422 4.70612C21.7966 4.74706 21.5988 4.57917 21.5638 4.36917C21.5222 4.14034 21.6761 3.92402 21.9007 3.88659C22.3958 3.79925 22.0948 3.00995 21.8759 2.57198Z" fill="black"/>
<path d="M38.4298 8.42134C38.4298 8.65017 38.2467 8.83735 38.0137 8.83735H30.3132C30.1177 9.82751 29.2398 10.5805 28.1915 10.5805H26.5066C25.4583 10.5805 24.5846 9.82751 24.3891 8.83735H23.037C22.9912 9.80251 22.1967 10.5805 21.219 10.5805C20.6448 10.5805 20.1415 10.3101 19.8045 9.89821C19.4717 10.3101 18.9641 10.5805 18.3942 10.5805C17.8201 10.5805 17.3167 10.3101 16.9798 9.89821C16.647 10.3101 16.1395 10.5805 15.5695 10.5805C14.5918 10.5805 13.793 9.80251 13.7473 8.83735H12.5574V9.41149C12.5574 10.0563 12.0332 10.5805 11.3926 10.5805H10.0696C9.42477 10.5805 8.90063 10.0563 8.90063 9.41149V8.83735H7.68164C7.45281 8.83735 7.26562 8.65017 7.26562 8.42134C7.26562 8.19251 7.45281 8.00532 7.68164 8.00532H8.90055V7.42704C8.90055 6.7822 9.42477 6.25806 10.0695 6.25806H11.3925C12.0332 6.25806 12.5573 6.78228 12.5573 7.42704V8.00532H13.7472C13.793 7.03595 14.5875 6.25806 15.5694 6.25806C16.1393 6.25806 16.6469 6.52845 16.9797 6.94032C17.3166 6.52845 17.8201 6.25806 18.3941 6.25806C18.9641 6.25806 19.4716 6.52845 19.8045 6.94032C20.1414 6.52845 20.6448 6.25806 21.2189 6.25806C22.2007 6.25806 22.9953 7.03603 23.037 8.00532H24.389C24.5845 7.01103 25.4581 6.25806 26.5066 6.25806H28.1914C29.244 6.25806 30.1176 7.01103 30.3131 8.00532H38.0137C38.2467 8.00524 38.4298 8.19251 38.4298 8.42134Z" fill="black"/>
<path d="M11.8713 2.57198C11.1062 1.05917 11.6495 0.211827 12.3664 0.0425301C12.591 -0.0115324 12.8157 0.125733 12.8698 0.350421C12.9238 0.575108 12.7824 0.795577 12.5619 0.84964C12.0726 0.964796 12.391 1.75948 12.6159 2.19753C13.3598 3.72456 12.778 4.58026 12.0377 4.70612C11.7925 4.74698 11.5945 4.57964 11.5551 4.36917C11.5177 4.14034 11.6674 3.92401 11.8963 3.88659C12.3823 3.79823 12.0895 3.00823 11.8713 2.57198Z" fill="black"/>
<path d="M37.5894 14.1249C37.5894 15.3348 36.1233 15.9563 35.268 15.1149C35.0309 14.8903 34.7188 14.7281 34.3735 14.6365C33.5581 19.2753 30.6668 23.111 26.7188 25.2327L27.7005 28.0325H24.3059L23.7442 26.435C22.9163 26.668 22.0594 26.8344 21.1816 26.926V28.0326H17.9781V26.926C17.1003 26.8345 16.2434 26.668 15.4196 26.435L14.858 28.0325H11.4633L12.4451 25.2327C8.49289 23.1152 5.6057 19.2753 4.79031 14.6367C4.445 14.7281 4.13305 14.8946 3.89172 15.1234C3.03945 15.9472 1.57031 15.3419 1.57031 14.1249C1.57031 13.8961 1.7575 13.7089 1.98633 13.7089C2.2193 13.7089 2.40234 13.8961 2.40234 14.1249C2.40234 14.6002 2.97453 14.849 3.31758 14.5202C3.68367 14.1749 4.15375 13.9294 4.66547 13.8088C4.64883 13.6798 4.63633 13.5467 4.62391 13.4177C4.57812 12.9392 4.73625 12.4649 5.05656 12.1156C5.37273 11.7661 5.80953 11.5747 6.27969 11.5747H32.8843C33.3544 11.5747 33.787 11.766 34.1074 12.1156C34.4277 12.465 34.5816 12.9393 34.5401 13.4177C34.5276 13.5467 34.5152 13.6798 34.4985 13.8088C35.0144 13.9253 35.4762 14.1665 35.8423 14.516C36.193 14.8528 36.7575 14.5984 36.7575 14.1249C36.7575 13.8961 36.9447 13.7089 37.1735 13.7089C37.4063 13.7088 37.5894 13.896 37.5894 14.1249Z" fill="black"/>
<path d="M15.2073 2.57198C14.4421 1.05917 14.9854 0.211827 15.7023 0.0425301C15.927 -0.0115324 16.1516 0.125733 16.2057 0.350421C16.2556 0.575108 16.1184 0.795577 15.8937 0.84964C15.4092 0.96714 15.7295 1.76089 15.9477 2.19753C16.7017 3.7055 16.1211 4.57917 15.3695 4.70612C15.1486 4.75034 14.9282 4.59198 14.891 4.36917C14.8536 4.14034 15.0034 3.92401 15.228 3.88659C15.7232 3.79925 15.4212 3.01066 15.2073 2.57198Z" fill="black"/>
</svg>
