<svg width="40" height="40" viewBox="0 0 40 40" fill="none" xmlns="http://www.w3.org/2000/svg">
<path d="M29.6089 25.8781H24.0553V26.6326C24.0553 27.8777 23.0367 28.8963 21.7916 28.8963H18.2075C16.9625 28.8963 15.9438 27.8777 15.9438 26.6326V25.8781H10.3903C9.12261 25.8781 8.08887 26.9118 8.08887 28.1719C8.08887 29.4245 9.09244 30.4431 10.3374 30.4658V37.3549C10.3374 37.7699 10.677 38.1095 11.092 38.1095C11.507 38.1095 11.8466 37.7699 11.8466 37.3549V30.4733H28.1526V37.3549C28.1526 37.7699 28.4921 38.1095 28.9071 38.1095C29.3222 38.1095 29.6617 37.7699 29.6617 37.3549V30.4658C30.9067 30.4356 31.9103 29.4245 31.9103 28.1719C31.9103 26.9118 30.8766 25.8781 29.6089 25.8781Z" fill="black"/>
<path d="M8.94922 15.0499H15.9439V16.5594H8.94922V15.0499Z" fill="black"/>
<path d="M24.0557 15.0499H31.0504V16.5594H24.0557V15.0499Z" fill="black"/>
<path d="M8.84338 13.5411H15.9438V7.65552H6.60986C5.5384 7.65552 4.66309 8.53079 4.66309 9.60225V10.1607C6.71551 10.1607 8.43588 11.6094 8.84338 13.5411Z" fill="black"/>
<path d="M35.3363 10.1607V9.60225C35.3363 8.53079 34.4611 7.65552 33.382 7.65552H24.0557V13.5411H31.1485C31.5296 11.7047 33.1929 10.1607 35.3363 10.1607Z" fill="black"/>
<path d="M8.92677 24.1953V23.4785H15.9442V18.0683H7.44031V14.4465C7.44031 12.9147 6.19527 11.6697 4.66349 11.6697C3.91649 11.6697 3.21475 11.9639 2.70921 12.477C2.18101 12.9977 1.88672 13.6994 1.88672 14.4465V20.7017C1.88672 21.811 2.55073 22.7692 3.49393 23.2144V26.1949C3.49393 26.6099 3.8335 26.9495 4.24849 26.9495C4.66349 26.9495 5.00305 26.6099 5.00305 26.1949V23.4785H7.41765V24.1953C7.41765 24.6103 7.75722 24.9499 8.17221 24.9499C8.58721 24.9499 8.92677 24.6103 8.92677 24.1953Z" fill="black"/>
<path d="M35.3363 11.6697C33.8055 11.6697 32.5596 12.8975 32.5596 14.4465V18.0683H24.0557V23.4785H31.0731V24.1953C31.0731 24.6103 31.4126 24.9499 31.8276 24.9499C32.2427 24.9499 32.5822 24.6103 32.5822 24.1953V23.4785H34.9968V26.1949C34.9968 26.6099 35.3363 26.9495 35.7513 26.9495C36.1663 26.9495 36.5059 26.6099 36.5059 26.1949V23.2144C37.4491 22.7692 38.1131 21.811 38.1131 20.7017V14.4465C38.1131 12.9147 36.8681 11.6697 35.3363 11.6697Z" fill="black"/>
<path d="M18.2077 27.3872H21.7918C22.2068 27.3872 22.5464 27.0476 22.5464 26.6326V4.44104C22.5464 3.03002 21.407 1.89062 20.0035 1.89062C18.6001 1.89062 17.4531 3.03002 17.4531 4.44104V26.6326C17.4531 27.0476 17.7927 27.3872 18.2077 27.3872Z" fill="black"/>
</svg>
