<svg width="40" height="40" viewBox="0 0 40 40" fill="none" xmlns="http://www.w3.org/2000/svg">
<path d="M8.07991 35.0867C7.99991 35.2934 8.02658 35.5267 8.14658 35.7067C8.27324 35.8934 8.47991 36 8.69991 36H11.3666C11.6399 36 11.8866 35.8334 11.9866 35.58L12.8866 33.3334H8.77991L8.07991 35.0867Z" fill="black"/>
<path d="M28.6665 36H31.3332C31.5532 36 31.7598 35.8933 31.8865 35.7066C32.0065 35.5266 32.0332 35.2933 31.9532 35.0866L30.9065 32.46C30.2998 33.0266 29.4998 33.3333 28.6665 33.3333H27.1465L28.0465 35.58C28.1465 35.8333 28.3932 36 28.6665 36Z" fill="black"/>
<path d="M19.4997 18C19.4463 18 19.3863 18 19.333 17.9934V26.6667H23.333V17.9867C23.2797 18 23.2197 18 23.1663 18H19.4997Z" fill="black"/>
<path d="M17.4269 11.3333C17.7735 7.49333 19.1135 4 21.3335 4C16.8535 4 13.1002 7.17333 12.2002 11.3933C12.3535 11.3533 12.5069 11.3333 12.6669 11.3333H17.4269Z" fill="black"/>
<path d="M25.2397 11.3333H29.9997C30.1597 11.3333 30.313 11.3533 30.4663 11.3933C29.5663 7.17333 25.813 4 21.333 4C23.553 4 24.893 7.49333 25.2397 11.3333Z" fill="black"/>
<path d="M21.3329 5.33325C20.3796 5.33325 19.0996 7.57325 18.7529 11.3333H23.9129C23.5663 7.57325 22.2863 5.33325 21.3329 5.33325Z" fill="black"/>
<path d="M13.4066 16.3C13.5133 16.5266 13.7466 16.6666 14 16.6666H16.6666C16.92 16.6666 17.1533 16.5266 17.26 16.3L18.0333 14.7533L18.92 16.3266C19.04 16.54 19.26 16.6666 19.5 16.6666H23.1666C23.4066 16.6666 23.6266 16.54 23.7466 16.3266L24.6333 14.7533L25.4066 16.3C25.5133 16.5266 25.7466 16.6666 26 16.6666H28.6666C28.92 16.6666 29.1533 16.5266 29.26 16.3L30.5933 13.6333C30.7 13.4266 30.6866 13.18 30.5666 12.98C30.4466 12.7866 30.2333 12.6666 30 12.6666H12.6666C12.4333 12.6666 12.22 12.7866 12.1 12.98C11.98 13.18 11.9666 13.4266 12.0733 13.6333L13.4066 16.3Z" fill="black"/>
<path d="M32.5867 23.2534L27.84 28H6C4.9 28 4 28.9 4 30C4 31.1 4.9 32 6 32H28.6667C29.2 32 29.7 31.7934 30.08 31.4134L35.4133 26.08C35.7933 25.7 36 25.2 36 24.6667C36 24.1334 35.7933 23.6334 35.4133 23.2534C34.66 22.5 33.34 22.5 32.5867 23.2534Z" fill="black"/>
</svg>
