<svg width="40" height="40" viewBox="0 0 40 40" fill="none" xmlns="http://www.w3.org/2000/svg">
<g clip-path="url(#clip0_107_2569)">
<path d="M39.3013 12.2875L35.9936 8.9798L38.4801 6.49425C38.6999 6.27464 38.8235 5.97706 38.8235 5.66581C38.8235 5.35456 38.6999 5.05698 38.4802 4.8373L35.1511 1.50823C34.7116 1.06877 33.9334 1.06877 33.494 1.50823L31.0084 3.99471L27.7003 0.686427C26.7851 -0.228809 25.3011 -0.228809 24.3858 0.686427C23.4704 1.60166 23.4704 3.08565 24.3858 4.00097L35.9866 15.602C36.902 16.5172 38.386 16.5172 39.3013 15.602C40.2165 14.6868 40.2165 13.2028 39.3013 12.2875Z" fill="black"/>
<path d="M15.6136 35.999L4.01276 24.398C3.09737 23.4827 1.61354 23.4827 0.698146 24.398C-0.21709 25.3134 -0.21709 26.7974 0.698146 27.7126L4.00636 31.0208L1.52471 33.5014C1.30494 33.7212 1.18135 34.0187 1.18135 34.3299C1.18135 34.6412 1.30494 34.9388 1.52471 35.1585L4.85378 38.4864C5.08261 38.7154 5.38245 38.8299 5.6823 38.8299C5.98214 38.8299 6.28198 38.7154 6.51081 38.4865L8.99144 36.0059L12.2991 39.3136C13.2143 40.2289 14.6983 40.2289 15.6136 39.3136C16.529 38.3982 16.529 36.9143 15.6136 35.999Z" fill="black"/>
<path d="M21.0716 13.9447L13.957 21.0835L18.9289 26.0554L26.0435 18.9164L21.0716 13.9447Z" fill="black"/>
<path d="M35.987 18.9165L21.0714 4.00088C20.1562 3.08564 18.6721 3.08564 17.7569 4.00088C16.8415 4.91627 16.8415 6.4001 17.7569 7.3155L32.6724 22.2311C33.5877 23.1463 35.0717 23.1463 35.987 22.2311C36.9024 21.3158 36.9024 19.8319 35.987 18.9165Z" fill="black"/>
<path d="M22.2438 32.6845L7.32815 17.7688C6.41292 16.8536 4.92893 16.8536 4.01369 17.7688C3.0983 18.6842 3.0983 20.1682 4.01369 21.0834L18.9293 35.999C19.8445 36.9143 21.3285 36.9143 22.2438 35.999C23.1592 35.0838 23.1592 33.5998 22.2438 32.6845Z" fill="black"/>
</g>
<defs>
<clipPath id="clip0_107_2569">
<rect width="40" height="40" fill="white"/>
</clipPath>
</defs>
</svg>
