<svg width="48" height="48" viewBox="0 0 48 48" fill="none" xmlns="http://www.w3.org/2000/svg">
<path d="M14.1158 32.5913L14.1191 32.5921C16.0661 33.1352 18.4798 33.7385 20.9981 33.9987C20.7693 33.9273 20.5413 33.8541 20.3152 33.7776C17.8088 33.0151 15.4495 32.549 13.1621 32.3661C13.4805 32.4325 13.7977 32.5062 14.1124 32.5905L14.1158 32.5913Z" fill="#1E3747"/>
<path d="M23.4238 34.8168C20.2759 34.8168 17.0833 34.1319 13.9342 33.2535C12.5252 32.8758 11.0765 32.6862 9.63215 32.6863C6.29768 32.6864 2.989 33.6976 0.265625 35.7407C2.90424 34.6262 5.47479 34.1166 8.06289 34.1167C10.3212 34.1169 12.5929 34.5048 14.9328 35.2175C17.0411 35.9324 19.3841 36.3398 21.7234 36.3398C23.8003 36.3398 25.8738 36.0178 27.7769 35.3047C26.5703 35.2087 25.362 35.0402 24.1687 34.8032C23.9207 34.8121 23.6724 34.8168 23.4238 34.8168Z" fill="#1E3747"/>
<path d="M5.96377 29.4522C8.27148 28.712 10.6931 28.3366 13.162 28.3366C15.2842 28.3366 17.402 28.6158 19.4567 29.1666L19.4615 29.1679L19.4662 29.1692C23.0737 30.1756 27.8202 31.3308 32.5423 31.3308C35.1119 31.3308 37.4921 30.9944 39.7264 30.3122L47.9996 14.4168C47.9996 14.4168 30.6239 12.6642 0.265625 27.5778V31.9278H0.708373C2.33103 30.8835 4.09239 30.0526 5.96377 29.4522ZM25.6049 20.5721C26.3141 20.5721 26.8892 21.1471 26.8892 21.8564C26.8892 22.5656 26.3141 23.1406 25.6049 23.1406C24.8957 23.1406 24.3206 22.5656 24.3206 21.8564C24.3206 21.147 24.8957 20.5721 25.6049 20.5721ZM21.5381 21.8564C22.2473 21.8564 22.8223 22.4314 22.8223 23.1406C22.8223 23.8498 22.2473 24.4249 21.5381 24.4249C20.8288 24.4249 20.2538 23.8498 20.2538 23.1406C20.2538 22.4314 20.8288 21.8564 21.5381 21.8564ZM17.6318 23.1406C18.341 23.1406 18.916 23.7156 18.916 24.4249C18.916 25.1341 18.341 25.7091 17.6318 25.7091C16.9226 25.7091 16.3475 25.1341 16.3475 24.4249C16.3475 23.7156 16.9226 23.1406 17.6318 23.1406Z" fill="#1E3747"/>
<path d="M19.2075 30.0987C17.2278 29.5681 15.1917 29.3017 13.1624 29.3017C8.4761 29.3016 3.82709 30.7228 0 33.594C3.70787 32.0277 7.31995 31.3117 10.9571 31.3119C14.1302 31.312 17.3226 31.8573 20.6106 32.8587C23.5734 33.8633 26.8658 34.436 30.1531 34.436C35.595 34.436 41.0215 32.8657 44.9054 29.0849C40.9094 31.4238 36.754 32.2957 32.5428 32.2957C28.1187 32.2957 23.6332 31.3333 19.2075 30.0987Z" fill="#1E3747"/>
<path d="M10.3356 14.2243L10.7272 15.513C11.4467 15.2094 13.4274 14.4166 15.6655 13.8925C16.0968 13.7916 16.5288 14.0593 16.6301 14.4909C16.7311 14.9225 16.4632 15.3544 16.0315 15.4555C13.7253 15.9956 11.6608 16.8583 11.1969 17.0583L12.334 20.7994C12.334 20.7994 22.3696 16.0778 34.1541 14.3533L22.7922 11.8129C22.7922 11.8129 14.3236 10.7499 6.78027 14.2328C6.78027 14.2328 8.38335 14.7279 10.3356 14.2243Z" fill="#1E3747"/>
</svg>
